<svg xmlns="http://www.w3.org/2000/svg" width="195.364" height="195.364" viewBox="0 0 195.364 195.364">
  <g id="Manage_Master" data-name="Manage Master" transform="translate(-840 -414)">
    <g id="Group_11" data-name="Group 11">
      <g id="Menu_icon" transform="translate(484)">
        <g id="category" transform="translate(340 398)">
          <path id="Path_62" data-name="Path 62" d="M212.852,88V244.291a6.512,6.512,0,0,1-6.512,6.512H30.512A6.512,6.512,0,0,1,24,244.291V88Z" transform="translate(-4.744 -42.695)" fill="#fff"/>
          <path id="Path_63" data-name="Path 63" d="M24,50.048V30.512A6.512,6.512,0,0,1,30.512,24H206.339a6.512,6.512,0,0,1,6.512,6.512V50.048Z" transform="translate(-4.744 -4.744)" fill="#fff"/>
          <path id="Path_69" data-name="Path 69" d="M201.6,16H25.768A9.779,9.779,0,0,0,16,25.768V201.6a9.779,9.779,0,0,0,9.768,9.768H201.6a9.779,9.779,0,0,0,9.768-9.768V25.768A9.779,9.779,0,0,0,201.6,16Zm3.256,185.6a3.26,3.26,0,0,1-3.256,3.256H25.768a3.26,3.26,0,0,1-3.256-3.256V25.768a3.26,3.26,0,0,1,3.256-3.256H201.6a3.26,3.26,0,0,1,3.256,3.256Z" fill="#1e81ce"/>
          <path id="Path_79" data-name="Path 79" d="M224.28,408H211.256A3.256,3.256,0,0,0,208,411.256V424.28a3.256,3.256,0,0,0,3.256,3.256H224.28a3.256,3.256,0,0,0,3.256-3.256V411.256A3.256,3.256,0,0,0,224.28,408Zm-3.256,13.024h-6.512v-6.512h6.512Z" transform="translate(-113.855 -235.453)" fill="#1e81ce"/>
          <path id="Path_80" data-name="Path 80" d="M280,424h9.768v6.512H280Z" transform="translate(-156.55 -244.941)" fill="#1e81ce"/>
          <path id="Path_81" data-name="Path 81" d="M320,424h45.585v6.512H320Z" transform="translate(-180.27 -244.941)" fill="#1e81ce"/>
          <path id="Path_88" data-name="Path 88" d="M320,424h45.585v10H320Z" transform="translate(-284.27 -284.941)" fill="#1e81ce"/>
          <path id="Path_89" data-name="Path 89" d="M320,424h45.585v10H320Z" transform="translate(-284.27 -324.941)" fill="#1e81ce"/>
          <path id="Path_90" data-name="Path 90" d="M320,424h45.585v10H320Z" transform="translate(-284.27 -371.941)" fill="#1e81ce"/>
          <g id="Rectangle_2" data-name="Rectangle 2" transform="translate(92 131)" fill="#9bc9ff" stroke="#1e81ce" stroke-width="5">
            <rect width="93" height="26" stroke="none"/>
            <rect x="2.5" y="2.5" width="88" height="21" fill="none"/>
          </g>
          <g id="Rectangle_3" data-name="Rectangle 3" transform="translate(92 88)" fill="#9bc9ff" stroke="#1e81ce" stroke-width="5">
            <rect width="93" height="26" stroke="none"/>
            <rect x="2.5" y="2.5" width="88" height="21" fill="none"/>
          </g>
          <g id="Rectangle_4" data-name="Rectangle 4" transform="translate(92 42)" fill="#9bc9ff" stroke="#1e81ce" stroke-width="5">
            <rect width="93" height="26" stroke="none"/>
            <rect x="2.5" y="2.5" width="88" height="21" fill="none"/>
          </g>
        </g>
      </g>
    </g>
  </g>
</svg>
