<svg xmlns="http://www.w3.org/2000/svg" width="55" height="57.999" viewBox="0 0 55 57.999">
  <g id="Group_3" data-name="Group 3" transform="translate(-2245 646)">
    <path id="Subtraction_1" data-name="Subtraction 1" d="M23.886,52.548C10.492,52.548,0,47.827,0,41.8V10.748C0,4.721,10.492,0,23.886,0A42.826,42.826,0,0,1,40.744,3.066c4.447,1.975,6.942,4.65,7.026,7.532a1.365,1.365,0,0,1,.009.15V26.24a17.619,17.619,0,0,0-4.6-2.326A4.705,4.705,0,0,0,45.389,20.3v-4.8c-3.962,3.7-12.2,5.994-21.5,5.994s-17.533-2.294-21.5-5.988V20.3c0,4.927,11.331,8.36,21.5,8.36.189,0,.383,0,.575,0a17.147,17.147,0,0,0-1.838,2.381A46.6,46.6,0,0,1,10.5,29.259a20.744,20.744,0,0,1-8.113-4.193v5.985c0,2.018,1.884,3.9,5.449,5.441a39.9,39.9,0,0,0,12.178,2.759c-.011.242-.017.494-.017.748,0,.556.028,1.118.083,1.669A43.417,43.417,0,0,1,9.524,39.7a19.742,19.742,0,0,1-7.136-3.882V41.8c0,2.248,2.4,4.366,6.767,5.966a44.616,44.616,0,0,0,14.311,2.392,17.316,17.316,0,0,0,2.2,2.363C25.055,52.539,24.458,52.548,23.886,52.548Zm0-50.16-.005,0c-10.08,0-21.386,3.4-21.494,8.288,0,.022,0,.044,0,.067v.135c.092,2.249,2.593,4.357,7.043,5.936a45.108,45.108,0,0,0,14.454,2.294c10.169,0,21.5-3.433,21.5-8.36S34.055,2.389,23.886,2.389Z" transform="translate(2245 -646)" fill="#005da3"/>
    <g id="_4781840___add_circle_create_expand_icon_1_" data-name="4781840_+_add_circle_create_expand_icon (1)" transform="translate(2267.497 -620.115)">
      <g id="Layer_2" data-name="Layer 2" transform="translate(2.885 2.885)">
        <path id="Path_16" data-name="Path 16" d="M16.259,29.518A13.259,13.259,0,1,1,29.518,16.259,13.259,13.259,0,0,1,16.259,29.518Zm0-24.478A11.219,11.219,0,1,0,27.478,16.259,11.219,11.219,0,0,0,16.259,5.04Z" transform="translate(-3 -3)" fill="#005da3"/>
        <path id="Path_17" data-name="Path 17" d="M16.02,23.279A1.02,1.02,0,0,1,15,22.259V10.02a1.02,1.02,0,1,1,2.04,0V22.259a1.02,1.02,0,0,1-1.02,1.02Z" transform="translate(-2.761 -2.88)" fill="#005da3"/>
        <path id="Path_18" data-name="Path 18" d="M22.259,17.04H10.02a1.02,1.02,0,1,1,0-2.04H22.259a1.02,1.02,0,1,1,0,2.04Z" transform="translate(-2.88 -2.761)" fill="#005da3"/>
      </g>
      <g id="frame">
        <rect id="Rectangle_1" data-name="Rectangle 1" width="33" height="32" transform="translate(-0.497 0.114)" fill="none"/>
      </g>
    </g>
  </g>
</svg>
