<?xml version="1.0" encoding="utf-8"?>
<!-- Generator: Adobe Illustrator 25.4.8, SVG Export Plug-In . SVG Version: 6.00 Build 0)  -->
<svg version="1.1" xmlns="http://www.w3.org/2000/svg" xmlns:xlink="http://www.w3.org/1999/xlink" x="0px" y="0px"
	 viewBox="0 0 200 186.4" style="enable-background:new 0 0 200 186.4;" xml:space="preserve">
<style type="text/css">
	.st0{display:none;}
	.st1{display:inline;}
	.st2{fill:#007AFF;}
	.st3{fill:#9BC9FF;}
	.st4{fill:#1E81CE;}
	.st5{fill:#FCFCFC;stroke:#00AAF0;stroke-width:10;stroke-miterlimit:10;}
	.st6{fill:#00AAF0;stroke:#00AAF0;stroke-width:10;stroke-miterlimit:10;}
	.st7{fill:#C7CAD3;stroke:#00AAF0;stroke-width:3;stroke-miterlimit:10;}
	.st8{fill:#B0B6C1;stroke:#00AAF0;stroke-width:0.25;stroke-miterlimit:10;}
	.st9{fill:#00AAF0;stroke:#00AAF0;stroke-width:0.25;stroke-miterlimit:10;}
	.st10{fill:#29ABE2;}
	.st11{fill:#F8CF26;}
	.st12{fill:#B3B3B3;}
	.st13{fill:#666666;}
	.st14{fill:#FBB03B;}
	.st15{fill:#F7931E;}
</style>
<g id="Layer_1" class="st0">
	<g id="html" transform="translate(-5 -12)" class="st1">
		<path id="Path_33" class="st2" d="M198.2,12H11.8c-3.7-0.1-6.8,2.9-6.8,6.6c0,0.1,0,0.2,0,0.2v172.7c-0.1,3.7,2.9,6.8,6.6,6.8
			c0.1,0,0.2,0,0.2,0h186.4c3.7,0.1,6.8-2.9,6.8-6.6c0-0.1,0-0.2,0-0.2V18.8c0.1-3.7-2.9-6.8-6.6-6.8C198.3,12,198.3,12,198.2,12z
			 M191.4,25.6v28H18.6v-28H191.4z M18.6,184.7V67.2h172.7v117.5L18.6,184.7z"/>
		<path id="Path_34" class="st3" d="M79.8,93.4c-2.3-2.9-6.6-3.4-9.5-1.1l-34.1,27.3c-1.6,1.3-2.5,3.2-2.5,5.2c0,2,0.9,4,2.5,5.2
			l34.1,27.3c1.2,1,2.8,1.5,4.3,1.6c2,0,4-0.9,5.2-2.5c2.3-3,1.8-7.2-1.1-9.5l-27.5-22.1l27.7-21.8c2.9-2.2,3.4-6.4,1.1-9.3
			C79.9,93.5,79.8,93.5,79.8,93.4z"/>
		<path id="Path_35" class="st3" d="M138,92.5c-3-2.2-7.3-1.6-9.5,1.4c-2.2,2.9-1.7,7,1.1,9.3l27.5,22l-27.5,22
			c-2.9,2.3-3.4,6.6-1.1,9.5c1.3,1.5,3.2,2.4,5.2,2.5c1.6,0,3.1-0.5,4.3-1.6l34.1-27.3c1.6-1.3,2.5-3.2,2.5-5.2c0-2-0.9-4-2.5-5.2
			L138,92.5z"/>
		<path id="Path_36" class="st2" d="M116.4,71.3c-3.6-0.9-7.3,1.4-8.2,5c0,0,0,0,0,0l-24.1,94.8c-0.9,3.6,1.4,7.3,5,8.2c0,0,0,0,0,0
			c0.5,0.2,1.1,0.3,1.6,0.2c3.1,0,5.9-2.2,6.6-5.2l24.1-94.8C122.2,75.9,120,72.2,116.4,71.3C116.4,71.3,116.4,71.3,116.4,71.3z"/>
	</g>
</g>
<g id="Layer_2" class="st0">
	<g id="Calendar" class="st1">
		<path class="st3" d="M177,24.8h-18.1v9.1c0,5-4.1,9-9.1,9s-9.1-4.1-9.1-9v-9.1h-30.2v9.1c0,5-4.1,9-9.1,9c-5,0-9.1-4.1-9.1-9v-9.1
			H62.3v9.1c0,5-4.1,9-9,9s-9-4.1-9-9v-9.1H26.1c-6.7,0-12.1,5.4-12.1,12.1V61h175V36.9C189,30.2,183.6,24.8,177,24.8z"/>
		<path class="st3" d="M77.4,82.1h12.1c1.7,0,3,1.4,3,3v9c0,1.7-1.4,3-3,3H77.4c-1.7,0-3-1.4-3-3v-9C74.4,83.5,75.8,82.1,77.4,82.1z
			"/>
		<path class="st3" d="M41.2,82.1h12.1c1.7,0,3,1.4,3,3v9c0,1.7-1.4,3-3,3H41.2c-1.7,0-3-1.4-3-3v-9C38.2,83.5,39.6,82.1,41.2,82.1z
			"/>
		<path class="st3" d="M149.8,82.1h12.1c1.7,0,3,1.4,3,3v9c0,1.7-1.4,3-3,3h-12.1c-1.7,0-3-1.4-3-3v-9
			C146.8,83.5,148.2,82.1,149.8,82.1z"/>
		<path class="st3" d="M77.4,109.3h12.1c1.7,0,3,1.4,3,3v9.1c0,1.7-1.4,3-3,3H77.4c-1.7,0-3-1.4-3-3v-9.1
			C74.4,110.6,75.8,109.3,77.4,109.3z"/>
		<path class="st3" d="M41.2,109.3h12.1c1.7,0,3,1.4,3,3v9.1c0,1.7-1.4,3-3,3H41.2c-1.7,0-3-1.4-3-3v-9.1
			C38.2,110.6,39.6,109.3,41.2,109.3z"/>
		<path class="st3" d="M77.4,136.4h12.1c1.7,0,3,1.4,3,3v9c0,1.7-1.4,3-3,3H77.4c-1.7,0-3-1.4-3-3v-9
			C74.4,137.8,75.8,136.4,77.4,136.4z"/>
		<path class="st3" d="M113.6,82.1h12.1c1.7,0,3,1.4,3,3v9c0,1.7-1.4,3-3,3h-12.1c-1.7,0-3-1.4-3-3v-9
			C110.6,83.5,112,82.1,113.6,82.1z"/>
		<path class="st3" d="M113.6,109.3h12.1c1.7,0,3,1.4,3,3v9.1c0,1.7-1.4,3-3,3h-12.1c-1.7,0-3-1.4-3-3v-9.1
			C110.6,110.6,112,109.3,113.6,109.3z"/>
		<path class="st3" d="M41.2,136.4h12.1c1.7,0,3,1.4,3,3v9c0,1.7-1.4,3-3,3H41.2c-1.7,0-3-1.4-3-3v-9
			C38.2,137.8,39.6,136.4,41.2,136.4z"/>
		<circle class="st3" cx="152.8" cy="145.5" r="36.2"/>
		<g>
			<path class="st4" d="M177,21.8h-15.1v-6c0-6.7-5.4-12.1-12.1-12.1c-6.7,0-12.1,5.4-12.1,12.1v6h-24.1v-6
				c0-6.7-5.4-12.1-12.1-12.1S89.5,9.1,89.5,15.8v6H65.4v-6c0-6.7-5.4-12.1-12.1-12.1S41.2,9.1,41.2,15.8v6H26.1
				c-8.3,0-15.1,6.8-15.1,15.1v120.7c0,8.3,6.8,15.1,15.1,15.1h84.5c1.7,0,3-1.4,3-3s-1.4-3-3-3H26.1c-5,0-9-4.1-9-9.1V64H186v51.3
				c0,1.7,1.4,3,3,3c1.7,0,3-1.4,3-3V36.9C192.1,28.6,185.3,21.8,177,21.8z M143.8,15.8c0-3.3,2.7-6,6-6c3.3,0,6,2.7,6,6v18.1
				c0,3.3-2.7,6-6,6c-3.3,0-6-2.7-6-6V15.8z M95.5,15.8c0-3.3,2.7-6,6-6c3.3,0,6,2.7,6,6v18.1c0,3.3-2.7,6-6,6c-3.3,0-6-2.7-6-6
				V15.8z M47.3,15.8c0-3.3,2.7-6,6-6s6,2.7,6,6v18.1c0,3.3-2.7,6-6,6s-6-2.7-6-6V15.8z M186,58H17.1V36.9c0-5,4.1-9,9-9.1h15.1v6
				c0,6.7,5.4,12.1,12.1,12.1s12.1-5.4,12.1-12.1v-6h24.1v6c0,6.7,5.4,12.1,12.1,12.1s12.1-5.4,12.1-12.1v-6h24.1v6
				c0,6.7,5.4,12.1,12.1,12.1c6.7,0,12.1-5.4,12.1-12.1v-6H177c5,0,9,4.1,9,9.1V58z"/>
			<path class="st4" d="M95.5,85.1c0-3.3-2.7-6-6-6H77.4c-3.3,0-6,2.7-6,6v9c0,3.3,2.7,6,6,6h12.1c3.3,0,6-2.7,6-6V85.1z M77.4,94.2
				v-9h12.1v9H77.4z"/>
			<path class="st4" d="M59.3,85.1c0-3.3-2.7-6-6-6H41.2c-3.3,0-6,2.7-6,6v9c0,3.3,2.7,6,6,6h12.1c3.3,0,6-2.7,6-6V85.1z M41.2,94.2
				v-9h12.1v9H41.2z"/>
			<path class="st4" d="M161.9,100.2c3.3,0,6-2.7,6-6v-9c0-3.3-2.7-6-6-6h-12.1c-3.3,0-6,2.7-6,6v9c0,3.3,2.7,6,6,6H161.9z
				 M149.8,85.1h12.1v9h-12.1V85.1z"/>
			<path class="st4" d="M95.5,112.3c0-3.3-2.7-6-6-6H77.4c-3.3,0-6,2.7-6,6v9.1c0,3.3,2.7,6,6,6h12.1c3.3,0,6-2.7,6-6V112.3z
				 M77.4,121.3v-9.1h12.1v9.1H77.4z"/>
			<path class="st4" d="M59.3,112.3c0-3.3-2.7-6-6-6H41.2c-3.3,0-6,2.7-6,6v9.1c0,3.3,2.7,6,6,6h12.1c3.3,0,6-2.7,6-6V112.3z
				 M41.2,121.3v-9.1h12.1v9.1H41.2z"/>
			<path class="st4" d="M89.5,133.4H77.4c-3.3,0-6,2.7-6,6v9c0,3.3,2.7,6,6,6h12.1c3.3,0,6-2.7,6-6v-9
				C95.5,136.1,92.8,133.4,89.5,133.4z M77.4,148.5v-9h12.1v9H77.4z"/>
			<path class="st4" d="M113.6,100.2h12.1c3.3,0,6-2.7,6-6v-9c0-3.3-2.7-6-6-6h-12.1c-3.3,0-6,2.7-6,6v9
				C107.6,97.5,110.3,100.2,113.6,100.2z M113.6,85.1h12.1v9h-12.1V85.1z"/>
			<path class="st4" d="M107.6,121.3c0,3.3,2.7,6,6,6c1.7,0,3-1.4,3-3c0-1.7-1.4-3-3-3v-9.1h12.1c1.7,0,3-1.4,3-3c0-1.7-1.4-3-3-3
				h-12.1c-3.3,0-6,2.7-6,6V121.3z"/>
			<path class="st4" d="M53.3,133.4H41.2c-3.3,0-6,2.7-6,6v9c0,3.3,2.7,6,6,6h12.1c3.3,0,6-2.7,6-6v-9
				C59.3,136.1,56.6,133.4,53.3,133.4z M41.2,148.5v-9h12.1v9H41.2z"/>
			<path class="st4" d="M152.8,106.3c-21.7,0-39.2,17.6-39.2,39.2s17.6,39.2,39.2,39.2s39.2-17.6,39.2-39.2
				C192,123.8,174.5,106.3,152.8,106.3z M152.8,178.7c-18.3,0-33.2-14.9-33.2-33.2s14.9-33.2,33.2-33.2s33.2,14.9,33.2,33.2
				C186,163.8,171.2,178.6,152.8,178.7z"/>
			<path class="st4" d="M170.3,132.8l-23.5,23.5l-10.7-10.7c-1.2-1.2-3.1-1.1-4.3,0.1c-1.1,1.2-1.1,3,0,4.2l12.8,12.8
				c1.2,1.2,3.1,1.2,4.3,0l25.6-25.6c1.2-1.2,1.1-3.1-0.1-4.3C173.3,131.7,171.4,131.7,170.3,132.8z"/>
		</g>
	</g>
</g>
<g id="Layer_3" class="st0">
	<g class="st1">
		<path class="st5" d="M177.8,165.7H23.2c-6.7,0-12-5.4-12-12V30.9c0-6.7,5.4-12,12-12h154.6c6.7,0,12,5.4,12,12v122.8
			C189.9,160.3,184.5,165.7,177.8,165.7z"/>
		<path class="st6" d="M189.9,47.8V30.9c0-6.7-5.4-12-12-12H23.2c-6.7,0-12,5.4-12,12v16.9H189H189.9z"/>
		<path class="st7" d="M69.6,136l-4.1-0.5c-0.7-2.5-1.7-4.9-3-7.2l2.5-3.2c1.3-1.6,1.1-3.9-0.3-5.4l-6.5-6.5
			c-1.5-1.5-3.8-1.6-5.4-0.3l-3.2,2.5c-2.2-1.2-4.6-2.2-7.1-3l-0.5-4.1c-0.3-2-2-3.6-4-3.6h-9.1c-2.1,0-3.8,1.5-4,3.6l-0.5,4.1
			c-2.5,0.7-4.8,1.7-7,2.9v17.6c3.6-5,9.5-8.2,16.1-8.2c11,0,19.9,8.9,19.9,19.9c0,6.9-3.5,13-8.9,16.6h18.4l-0.2-0.3
			c1.2-2.2,2.2-4.6,3-7.1l4.1-0.5c2-0.3,3.6-2,3.6-4V140C73.1,138,71.6,136.2,69.6,136z"/>
		<path class="st8" d="M44.4,161.1h8.8c3.8-4.6,6-10.4,6-16.8c0-14.6-11.9-26.5-26.5-26.5c-5.8,0-11.1,1.9-15.5,5v10
			c3.6-5,9.5-8.2,16.1-8.2c11,0,19.9,8.9,19.9,19.9C53.2,151.5,49.7,157.6,44.4,161.1z"/>
		<path d="M127.3,33.5c0-1.8-1.4-3.2-3.2-3.2h-53c-1.8,0-3.2,1.4-3.2,3.2s1.4,3.2,3.2,3.2h53C125.9,36.7,127.3,35.3,127.3,33.5z"/>
		<circle cx="27" cy="33.5" r="3.8"/>
		<circle cx="41.7" cy="33.5" r="3.8"/>
		<circle cx="55.6" cy="33.5" r="3.8"/>
		<circle cx="174.3" cy="33.5" r="3.8"/>
		<path d="M40,62.8c-0.8-0.4-1.8-0.6-2.8-0.6c-1.1,0-2,0.2-2.8,0.6c-0.8,0.4-1.3,0.9-1.6,1.7l-8,26.2c-0.1,0.2-0.1,0.4-0.1,0.5
			c0,0.7,0.5,1.4,1.4,1.9c0.9,0.5,1.9,0.8,2.9,0.8c1.2,0,2-0.4,2.2-1.2l1.5-5.4h9.1l1.5,5.4c0.2,0.8,1,1.2,2.2,1.2
			c1,0,2-0.3,2.9-0.8c0.9-0.5,1.4-1.2,1.4-1.9c0-0.1,0-0.2-0.1-0.5l-8-26.2C41.3,63.7,40.8,63.2,40,62.8z M34,82.1l3.1-11.5
			l3.1,11.5H34z"/>
		<path d="M63.6,62.5h-8.9c-0.7,0-1.3,0.2-1.8,0.6c-0.5,0.4-0.7,0.9-0.7,1.4v27.4c0,0.7,0.3,1.2,1,1.5c0.7,0.4,1.4,0.5,2.4,0.5
			c0.9,0,1.7-0.2,2.4-0.5c0.7-0.4,1-0.9,1-1.5v-9.3h4.3c3.2,0,5.7-0.8,7.7-2.4s2.9-4.1,2.9-7.5v-0.2c0-3.4-0.9-5.9-2.8-7.5
			C69.1,63.3,66.6,62.5,63.6,62.5z M67,73.1c0,2.9-1.3,4.3-3.9,4.3h-4.3v-9.1h4.3c2.6,0,3.9,1.4,3.9,4.3V73.1z"/>
		<path d="M83.4,64.5c0-0.7-0.3-1.2-1-1.5c-0.7-0.3-1.4-0.5-2.4-0.5c-0.9,0-1.7,0.2-2.4,0.5c-0.7,0.3-1,0.8-1,1.5v27.4
			c0,0.7,0.3,1.2,1,1.5c0.7,0.4,1.4,0.5,2.4,0.5s1.7-0.2,2.4-0.5c0.7-0.4,1-0.9,1-1.5V64.5z"/>
		<g id="user_people_person_users_man">
			<path class="st9" d="M166.2,123.3c-1.4-1.4-3.6-1.3-4.9,0c-1.4,1.4-1.3,3.6,0,4.9c5.9,5.9,9.3,13.9,9.3,22.3
				c0,4.2-12.2,10.4-31.3,10.4s-31.3-6.2-31.3-10.4c0-8.3,3.3-16.3,9.2-22.2c1.3-1.4,1.3-3.5,0-4.9c-1.4-1.3-3.5-1.3-4.9,0
				c-7.2,7.2-11.2,16.9-11.2,27.1c0,11.3,19.7,17.4,38.3,17.4s38.3-6.1,38.3-17.4C177.6,140.3,173.5,130.5,166.2,123.3z"/>
			<path class="st9" d="M139.3,126.1c13.5,0,24.4-10.9,24.4-24.4s-10.9-24.4-24.4-24.4s-24.4,10.9-24.4,24.4
				S125.8,126.1,139.3,126.1z M139.3,84.4c9.6,0,17.4,7.8,17.4,17.4s-7.8,17.4-17.4,17.4s-17.4-7.8-17.4-17.4S129.7,84.4,139.3,84.4
				z"/>
		</g>
	</g>
</g>
<g id="Layer_4">
	<path class="st10" d="M152.8,123.5h3.3c21.9,0,39.6-17.7,39.6-39.6c0-21.9-17.7-39.6-39.6-39.6c-2.7,0-5.4,0.3-8.1,0.8
		c-6.8-28.3-35.3-45.8-63.7-39C60.5,11.8,43.8,33,43.8,57.4c0,0.2,0,0.4,0,0.7C26,54.5,8.6,66,4.9,83.9s7.9,35.3,25.8,38.9
		c2.1,0.4,4.3,0.7,6.5,0.7L152.8,123.5L152.8,123.5z"/>
	<g>
		<path class="st11" d="M96.6,116.9H90V40.9c0-1.8,1.5-3.3,3.3-3.3h26.4v6.6H96.6L96.6,116.9L96.6,116.9z"/>
		<path class="st11" d="M119.7,116.9h-6.6V73.9c0-1.8,1.5-3.3,3.3-3.3h42.9v6.6h-39.6V116.9z"/>
		<path class="st11" d="M73.5,116.9h-6.6V87.2H43.8v-6.6h26.4c1.8,0,3.3,1.5,3.3,3.3V116.9z"/>
	</g>
	<rect x="57" y="133.4" class="st12" width="85.8" height="19.8"/>
	<g>
		<rect x="47.1" y="110.3" class="st13" width="105.6" height="26.4"/>
		<polygon class="st13" points="66.9,176.3 47.1,176.3 47.1,149.9 152.8,149.9 152.8,176.3 132.9,176.3 		"/>
	</g>
	<g>
		<rect x="57" y="120.2" class="st14" width="6.6" height="6.6"/>
		<rect x="70.2" y="120.2" class="st14" width="6.6" height="6.6"/>
		<rect x="57" y="159.8" class="st14" width="6.6" height="6.6"/>
		<rect x="70.2" y="159.8" class="st14" width="6.6" height="6.6"/>
	</g>
	<g>
		<circle class="st15" cx="119.7" cy="40.9" r="6.6"/>
		<circle class="st15" cx="159.4" cy="73.9" r="6.6"/>
		<circle class="st15" cx="43.8" cy="83.9" r="6.6"/>
	</g>
</g>
</svg>
