<svg xmlns="http://www.w3.org/2000/svg" width="100.562" height="88.171" viewBox="0 0 100.562 88.171">
  <g id="_6351910_ascnding_conversion_descending_filter_funnel_icon" data-name="6351910_ascnding_conversion_descending_filter_funnel_icon" transform="translate(-2 -3.5)">
    <path id="Path_16" data-name="Path 16" d="M54.75,29.225,42.359,16.838l.082,43.344a4.2,4.2,0,0,1-8.4,0l-.082-43.048L21.874,29.225a4.2,4.2,0,0,1-5.937-5.941L33.215,6.005A6.3,6.3,0,0,1,42.4,5.066a4.362,4.362,0,0,1,.468.406L60.687,23.284a4.2,4.2,0,0,1-5.937,5.941Z" transform="translate(40.645)" fill="#fff"/>
    <path id="Path_17" data-name="Path 17" d="M2,9.858A3.358,3.358,0,0,1,5.362,6.5H38.525a3.357,3.357,0,0,1,3.362,3.358v1.681A3.358,3.358,0,0,1,38.525,14.9H5.362a3.36,3.36,0,0,1-2.468-1.07A3.371,3.371,0,0,1,2,11.539Z" transform="translate(0 9.596)" fill="#fff"/>
    <path id="Path_18" data-name="Path 18" d="M4.124,14.738A3.362,3.362,0,0,0,2,17.858v1.681A3.358,3.358,0,0,0,5.362,22.9H57.419a3.358,3.358,0,0,0,3.362-3.358V17.858A3.358,3.358,0,0,0,57.419,14.5H5.362A3.381,3.381,0,0,0,4.124,14.738Z" transform="translate(0 35.185)" fill="#fff"/>
    <path id="Path_19" data-name="Path 19" d="M2.312,24.452A3.349,3.349,0,0,0,2,25.858v1.681A3.352,3.352,0,0,0,5.362,30.9h90.17a3.358,3.358,0,0,0,3.362-3.358V25.858A3.358,3.358,0,0,0,95.532,22.5H5.362A3.359,3.359,0,0,0,2.312,24.452Z" transform="translate(0 60.774)" fill="#fff"/>
  </g>
</svg>
