<svg xmlns="http://www.w3.org/2000/svg" width="38.52" height="36.879" viewBox="0 0 38.52 36.879">
  <g id="Group_3" data-name="Group 3" transform="translate(-1482 -1100.75)">
    <g id="Group_7" data-name="Group 7" transform="translate(-622.326 1860.757)">
      <g id="Group_6" data-name="Group 6">
        <g id="Group_5" data-name="Group 5">
          <g id="Group_4" data-name="Group 4">
            <g id="Group_2" data-name="Group 2" transform="translate(2114.596 -744.258)">
              <path id="_6936490_lock_protection_safety_security_shield_icon" data-name="6936490_lock_protection_safety_security_shield_icon" d="M18.862,5.439,11.988,3.131,5.115,5.439v5.438A7.939,7.939,0,0,0,8.7,17.452l3.293,2.212,3.293-2.212a7.94,7.94,0,0,0,3.581-6.576ZM11.989,22.13,16.5,19.1a9.924,9.924,0,0,0,4.478-8.223V4.018L11.989,1,3,4.018v6.858A9.924,9.924,0,0,0,7.476,19.1Z" transform="translate(-3 -1)" fill="#005da3" fill-rule="evenodd"/>
              <g id="_216286_closed_lock_icon" data-name="216286_closed_lock_icon" transform="translate(5.308 4.96)">
                <g id="Group_1" data-name="Group 1" transform="translate(2.997 6.008)">
                  <circle id="Ellipse_1" data-name="Ellipse 1" cx="0.684" cy="0.684" r="0.684" transform="translate(0 0)" fill="#005da3"/>
                </g>
                <path id="Path_1" data-name="Path 1" d="M11.311,7.141h-.526V6.094a2.108,2.108,0,0,0-4.207,0V7.146H6.052A1.052,1.052,0,0,0,5,8.193v3.681a1.052,1.052,0,0,0,1.052,1.052h5.259a1.052,1.052,0,0,0,1.052-1.052V8.193a1.052,1.052,0,0,0-1.052-1.052ZM7.629,6.094a1.054,1.054,0,0,1,2.108,0V7.667H7.629Zm3.681,5.785H6.052V8.193h5.26Z" transform="translate(-5 -4.131)" fill="#005da3"/>
              </g>
            </g>
            <g id="_1904675_configuration_edit_gear_options_preferences_icon" data-name="1904675_configuration_edit_gear_options_preferences_icon" transform="translate(2123.586 -759.757)">
              <path id="Path_6" data-name="Path 6" d="M41.822,39a2.822,2.822,0,1,0,2.822,2.822A2.822,2.822,0,0,0,41.822,39Zm0,4.967a2.145,2.145,0,1,1,2.145-2.145,2.145,2.145,0,0,1-2.145,2.145Z" transform="translate(-35.248 -33.534)" fill="#005da3" stroke="#005da3" stroke-width="0.5"/>
              <path id="Path_7" data-name="Path 7" d="M15.671,6.216H14.514a.13.13,0,0,1-.122-.092,6.462,6.462,0,0,0-.259-.628.13.13,0,0,1,.023-.149l.817-.819a.906.906,0,0,0,0-1.282L13.325,1.6a.906.906,0,0,0-1.282,0l-.817.817a.13.13,0,0,1-.149.023,6.447,6.447,0,0,0-.629-.258.13.13,0,0,1-.092-.122V.911A.906.906,0,0,0,9.454,0H7.123a.906.906,0,0,0-.906.906V2.065a.13.13,0,0,1-.092.122,6.462,6.462,0,0,0-.628.259.13.13,0,0,1-.149-.023l-.819-.817a.906.906,0,0,0-1.282,0L1.606,3.251a.906.906,0,0,0,0,1.282l.817.817a.13.13,0,0,1,.023.149,6.447,6.447,0,0,0-.259.628.13.13,0,0,1-.122.092H.906a.906.906,0,0,0-.906.9V9.454a.906.906,0,0,0,.906.906H2.065a.13.13,0,0,1,.122.092,6.461,6.461,0,0,0,.259.628.13.13,0,0,1-.023.149l-.817.818a.906.906,0,0,0,0,1.282l1.649,1.649a.906.906,0,0,0,1.282,0l.817-.817a.13.13,0,0,1,.149-.023,6.447,6.447,0,0,0,.628.259.13.13,0,0,1,.092.122v1.155a.906.906,0,0,0,.9.9H9.454a.906.906,0,0,0,.906-.906V14.514a.13.13,0,0,1,.092-.122,6.463,6.463,0,0,0,.628-.259.13.13,0,0,1,.149.023l.819.817a.906.906,0,0,0,1.282,0l1.649-1.649a.906.906,0,0,0,0-1.282l-.817-.817a.13.13,0,0,1-.023-.149,6.447,6.447,0,0,0,.259-.628.13.13,0,0,1,.122-.092h1.155a.906.906,0,0,0,.9-.9V7.123a.906.906,0,0,0-.906-.906Zm.13,3.238a.13.13,0,0,1-.13.13H14.514a.906.906,0,0,0-.855.608,5.685,5.685,0,0,1-.229.553.906.906,0,0,0,.176,1.033l.817.817a.13.13,0,0,1,0,.185l-1.648,1.645a.13.13,0,0,1-.185,0l-.817-.817a.906.906,0,0,0-1.033-.176,5.683,5.683,0,0,1-.553.229.906.906,0,0,0-.606.855v1.156a.13.13,0,0,1-.13.13H7.123a.13.13,0,0,1-.13-.13V14.514a.906.906,0,0,0-.608-.855,5.684,5.684,0,0,1-.553-.229A.906.906,0,0,0,4.8,13.6l-.817.817a.13.13,0,0,1-.185,0L2.152,12.776a.13.13,0,0,1,0-.185l.817-.817a.906.906,0,0,0,.176-1.033,5.682,5.682,0,0,1-.229-.553.906.906,0,0,0-.85-.606H.906a.13.13,0,0,1-.13-.13V7.123a.13.13,0,0,1,.13-.13H2.065a.906.906,0,0,0,.855-.608,5.686,5.686,0,0,1,.229-.553A.906.906,0,0,0,2.974,4.8l-.817-.817a.13.13,0,0,1,0-.185L3.8,2.152a.13.13,0,0,1,.185,0l.817.817a.906.906,0,0,0,1.033.176,5.683,5.683,0,0,1,.553-.229A.906.906,0,0,0,7,2.065V.906a.13.13,0,0,1,.124-.13H9.454a.13.13,0,0,1,.13.13V2.065a.906.906,0,0,0,.608.855,5.685,5.685,0,0,1,.553.229.906.906,0,0,0,1.033-.176l.817-.817a.13.13,0,0,1,.185,0l1.649,1.649a.13.13,0,0,1,0,.185l-.817.817a.906.906,0,0,0-.176,1.033,5.682,5.682,0,0,1,.229.553A.906.906,0,0,0,14.519,7h1.147a.13.13,0,0,1,.13.13Z" transform="translate(-1.715)" fill="#005da3" stroke="#005da3" stroke-width="0.5"/>
            </g>
            <path id="Subtraction_3" data-name="Subtraction 3" d="M31.469,24.045h-.981V22.669h.662l.275-.034A5.868,5.868,0,0,0,33.867,11.5a10.592,10.592,0,0,0,1.162-.9,7.172,7.172,0,0,1,3.491,6.2,7.3,7.3,0,0,1-2.075,5.088,6.887,6.887,0,0,1-4.976,2.157Zm-23.439,0H7.7a7.552,7.552,0,0,1-5.448-2.333A7.91,7.91,0,0,1,0,16.169,7.577,7.577,0,0,1,5.21,8.964a5.291,5.291,0,0,1,5.064-4.471,5.058,5.058,0,0,1,2.3.551A10.109,10.109,0,0,1,17.892,0a10.5,10.5,0,0,0-.311,1.639,8.906,8.906,0,0,0-3.815,4l-.559,1.178L12.046,6.23a3.684,3.684,0,0,0-1.711-.413A3.96,3.96,0,0,0,6.56,9.2l-.129.757-.722.257A6.241,6.241,0,0,0,1.393,16.13a6.549,6.549,0,0,0,6.379,6.543H8.03v1.375Z" transform="translate(2104.326 -756.282)" fill="#005da3"/>
          </g>
        </g>
      </g>
    </g>
  </g>
</svg>
