<svg xmlns="http://www.w3.org/2000/svg" width="38.52" height="37.291" viewBox="0 0 38.52 37.291">
  <g id="Group_7" data-name="Group 7" transform="translate(-2104.326 760.007)">
    <g id="Group_6" data-name="Group 6">
      <g id="Group_5" data-name="Group 5">
        <g id="Group_4" data-name="Group 4">
          <g id="Group_2" data-name="Group 2" transform="translate(2115.879 -741.757)">
            <path id="_6936490_lock_protection_safety_security_shield_icon" data-name="6936490_lock_protection_safety_security_shield_icon" d="M16.6,5,10.706,2.92,4.813,5V9.9a7.254,7.254,0,0,0,3.071,5.926l2.823,1.993,2.823-1.993A7.254,7.254,0,0,0,16.6,9.9ZM10.707,20.041l3.869-2.731A9.067,9.067,0,0,0,18.415,9.9V3.72L10.707,1,3,3.72V9.9a9.067,9.067,0,0,0,3.838,7.41Z" transform="translate(-3 -1)" fill="#005da3" fill-rule="evenodd"/>
            <g id="_216286_closed_lock_icon" data-name="216286_closed_lock_icon" transform="translate(4.39 4.339)">
              <g id="Group_1" data-name="Group 1" transform="translate(2.701 5.545)">
                <circle id="Ellipse_1" data-name="Ellipse 1" cx="0.616" cy="0.616" r="0.616" transform="translate(0 0)" fill="#005da3"/>
              </g>
              <path id="Path_1" data-name="Path 1" d="M10.687,6.843h-.474V5.9a1.9,1.9,0,0,0-3.791,0v.948H5.948A.948.948,0,0,0,5,7.791v3.317a.948.948,0,0,0,.948.948h4.739a.948.948,0,0,0,.948-.948V7.791a.948.948,0,0,0-.948-.948ZM7.369,5.9a.95.95,0,1,1,1.9,0V7.317h-1.9Zm3.317,5.213H5.948V7.791h4.74Z" transform="translate(-5 -4)" fill="#005da3"/>
            </g>
          </g>
          <g id="_1904675_configuration_edit_gear_options_preferences_icon" data-name="1904675_configuration_edit_gear_options_preferences_icon" transform="translate(2123.586 -759.757)">
            <path id="Path_6" data-name="Path 6" d="M41.822,39a2.822,2.822,0,1,0,2.822,2.822A2.822,2.822,0,0,0,41.822,39Zm0,4.967a2.145,2.145,0,1,1,2.145-2.145,2.145,2.145,0,0,1-2.145,2.145Z" transform="translate(-34.598 -34.598)" fill="#005da3" stroke="#005da3" stroke-width="0.5"/>
            <path id="Path_7" data-name="Path 7" d="M13.659,5.418H12.65a.113.113,0,0,1-.106-.08,5.632,5.632,0,0,0-.226-.547.113.113,0,0,1,.02-.13l.712-.714a.79.79,0,0,0,0-1.117L11.614,1.393a.79.79,0,0,0-1.117,0l-.712.712a.113.113,0,0,1-.13.02A5.619,5.619,0,0,0,9.107,1.9a.113.113,0,0,1-.08-.106v-1A.79.79,0,0,0,8.24,0H6.208a.79.79,0,0,0-.79.79V1.8a.113.113,0,0,1-.08.106,5.632,5.632,0,0,0-.547.226.113.113,0,0,1-.13-.02L3.947,1.4a.79.79,0,0,0-1.117,0L1.4,2.834a.79.79,0,0,0,0,1.117l.712.712a.113.113,0,0,1,.02.13,5.619,5.619,0,0,0-.226.547.113.113,0,0,1-.106.08H.79A.79.79,0,0,0,0,6.208V8.24a.79.79,0,0,0,.79.79H1.8a.113.113,0,0,1,.106.08,5.632,5.632,0,0,0,.226.547.113.113,0,0,1-.02.13L1.4,10.5a.79.79,0,0,0,0,1.117l1.437,1.437a.79.79,0,0,0,1.117,0l.712-.712a.113.113,0,0,1,.13-.02,5.619,5.619,0,0,0,.547.226.113.113,0,0,1,.08.106v1.007a.79.79,0,0,0,.787.787H8.24a.79.79,0,0,0,.79-.79V12.65a.113.113,0,0,1,.08-.106,5.633,5.633,0,0,0,.547-.226.113.113,0,0,1,.13.02l.714.712a.79.79,0,0,0,1.117,0l1.437-1.437a.79.79,0,0,0,0-1.117l-.712-.712a.113.113,0,0,1-.02-.13,5.619,5.619,0,0,0,.226-.547.113.113,0,0,1,.106-.08h1.007a.79.79,0,0,0,.787-.787V6.208A.79.79,0,0,0,13.659,5.418Zm.113,2.822a.113.113,0,0,1-.113.113H12.65a.79.79,0,0,0-.745.53,4.955,4.955,0,0,1-.2.482.79.79,0,0,0,.153.9l.712.712a.113.113,0,0,1,0,.161l-1.436,1.434a.113.113,0,0,1-.161,0l-.712-.712a.79.79,0,0,0-.9-.153,4.953,4.953,0,0,1-.482.2.79.79,0,0,0-.528.745V13.66a.113.113,0,0,1-.113.113H6.208a.113.113,0,0,1-.113-.113V12.65a.79.79,0,0,0-.53-.745,4.955,4.955,0,0,1-.482-.2.79.79,0,0,0-.9.153l-.712.712a.113.113,0,0,1-.161,0L1.876,11.136a.113.113,0,0,1,0-.161l.712-.712a.79.79,0,0,0,.153-.9,4.953,4.953,0,0,1-.2-.482A.79.79,0,0,0,1.8,8.353H.79A.113.113,0,0,1,.677,8.24V6.208A.113.113,0,0,1,.79,6.095H1.8a.79.79,0,0,0,.745-.53,4.956,4.956,0,0,1,.2-.482.79.79,0,0,0-.153-.9l-.712-.712a.113.113,0,0,1,0-.161L3.313,1.876a.113.113,0,0,1,.161,0l.712.712a.79.79,0,0,0,.9.153,4.953,4.953,0,0,1,.482-.2A.79.79,0,0,0,6.1,1.8V.79A.113.113,0,0,1,6.208.677H8.24a.113.113,0,0,1,.113.113V1.8a.79.79,0,0,0,.53.745,4.955,4.955,0,0,1,.482.2.79.79,0,0,0,.9-.153l.712-.712a.113.113,0,0,1,.161,0l1.437,1.437a.113.113,0,0,1,0,.161l-.712.712a.79.79,0,0,0-.153.9,4.952,4.952,0,0,1,.2.482.79.79,0,0,0,.745.528h1a.113.113,0,0,1,.113.113Z" fill="#005da3" stroke="#005da3" stroke-width="0.5"/>
          </g>
          <path id="Subtraction_3" data-name="Subtraction 3" d="M31.469,24.045h-.981V22.669h.662l.275-.034A5.868,5.868,0,0,0,33.867,11.5a10.592,10.592,0,0,0,1.162-.9,7.172,7.172,0,0,1,3.491,6.2,7.3,7.3,0,0,1-2.075,5.088A6.887,6.887,0,0,1,31.469,24.045Zm-23.439,0H7.7a7.552,7.552,0,0,1-5.448-2.333A7.91,7.91,0,0,1,0,16.169,7.577,7.577,0,0,1,5.21,8.964a5.291,5.291,0,0,1,5.064-4.471,5.058,5.058,0,0,1,2.3.551A10.109,10.109,0,0,1,17.892,0a10.5,10.5,0,0,0-.311,1.639,8.906,8.906,0,0,0-3.815,4l-.559,1.178L12.046,6.23a3.684,3.684,0,0,0-1.711-.413A3.96,3.96,0,0,0,6.56,9.2l-.129.757-.722.257a6.241,6.241,0,0,0-4.316,5.916,6.549,6.549,0,0,0,6.379,6.543h.258v1.375Z" transform="translate(2104.326 -756.282)" fill="#005da3"/>
        </g>
      </g>
    </g>
  </g>
</svg>
