<svg xmlns="http://www.w3.org/2000/svg" width="39.841" height="34.579" viewBox="0 0 39.841 34.579">
  <g id="Group_5" data-name="Group 5" transform="translate(-186.82 -93.573)">
    <g id="Group_4" data-name="Group 4">
      <g id="Group_1" data-name="Group 1">
        <path id="Subtraction_1" data-name="Subtraction 1" d="M22.454,21.026v0a12.547,12.547,0,0,0,.175-1.67L24.18,17.8a.18.18,0,0,0,0-.257l-1.138-1.139A1.263,1.263,0,0,1,22.8,14.97a7.929,7.929,0,0,0,.319-.77,1.262,1.262,0,0,1,1.191-.847h1.612a.181.181,0,0,0,.181-.181l-.006-3.238a.182.182,0,0,0-.182-.181h-1.6a1.264,1.264,0,0,1-1.19-.846,7.788,7.788,0,0,0-.319-.77A1.263,1.263,0,0,1,23.051,6.7l1.138-1.138a.184.184,0,0,0,0-.258L21.892,3a.182.182,0,0,0-.257,0L20.5,4.142a1.262,1.262,0,0,1-1.439.246,8,8,0,0,0-.77-.319,1.262,1.262,0,0,1-.847-1.191V1.262a.182.182,0,0,0-.182-.181H14.011a.181.181,0,0,0-.173.181V2.877a1.261,1.261,0,0,1-.852,1.185,8,8,0,0,0-.77.319,1.262,1.262,0,0,1-1.439-.245L9.638,3a.18.18,0,0,0-.257,0L7.091,5.291a.184.184,0,0,0,0,.258L8.23,6.687a1.268,1.268,0,0,1,.363.774l-1.19.4c.013-.032.028-.063.042-.094l.05-.106a.18.18,0,0,0-.032-.207L6.324,6.315a1.26,1.26,0,0,1,0-1.786L8.61,2.237a1.262,1.262,0,0,1,1.786,0l1.141,1.139a.18.18,0,0,0,.126.051.182.182,0,0,0,.082-.02,9.3,9.3,0,0,1,.875-.361.178.178,0,0,0,.128-.169V1.262A1.264,1.264,0,0,1,14.01,0h3.247a1.263,1.263,0,0,1,1.257,1.269v1.6a.181.181,0,0,0,.128.17,9.176,9.176,0,0,1,.877.359.178.178,0,0,0,.081.019.183.183,0,0,0,.126-.051l1.139-1.138a1.261,1.261,0,0,1,1.786,0l2.3,2.293a1.262,1.262,0,0,1,0,1.786L23.809,7.449a.183.183,0,0,0-.032.208,8.842,8.842,0,0,1,.361.875.181.181,0,0,0,.17.128h1.612a1.266,1.266,0,0,1,1.26,1.264v3.251a1.267,1.267,0,0,1-1.255,1.254H24.315a.18.18,0,0,0-.169.129,9.389,9.389,0,0,1-.361.875.178.178,0,0,0,.031.207l1.139,1.139a1.271,1.271,0,0,1,.37.893,1.255,1.255,0,0,1-.37.894l-2.3,2.3a1.263,1.263,0,0,1-.2.164ZM18.63,9h0L14.781,7.708A3.937,3.937,0,0,1,18.627,9Z" transform="translate(197.941 93.823)" fill="#005da3" stroke="#005da3" stroke-width="0.5"/>
        <g id="Group_2" data-name="Group 2" transform="translate(196.941 101.545)">
          <path id="_6936490_lock_protection_safety_security_shield_icon" data-name="6936490_lock_protection_safety_security_shield_icon" d="M22.973,6.589,14.317,3.683,5.663,6.589v6.847a10,10,0,0,0,4.514,8.279L14.324,24.5l4.146-2.785a10,10,0,0,0,4.509-8.28ZM14.319,27.606,20,23.791a12.5,12.5,0,0,0,5.639-10.354V4.8L14.319,1,3,4.8v8.635A12.5,12.5,0,0,0,8.636,23.791Z" transform="translate(-3 -1)" fill="#005da3" fill-rule="evenodd"/>
          <g id="_216286_closed_lock_icon" data-name="216286_closed_lock_icon" transform="translate(6.684 6.236)">
            <g id="Group_1-2" data-name="Group 1" transform="translate(3.774 7.574)">
              <circle id="Ellipse_1" data-name="Ellipse 1" cx="0.861" cy="0.861" r="0.861" transform="translate(0 0)" fill="#005da3"/>
            </g>
            <path id="Path_1" data-name="Path 1" d="M12.947,7.923h-.662V6.6a2.654,2.654,0,0,0-5.3,0V7.929H6.325A1.325,1.325,0,0,0,5,9.248v4.635a1.325,1.325,0,0,0,1.325,1.325h6.622a1.325,1.325,0,0,0,1.325-1.325V9.248A1.325,1.325,0,0,0,12.947,7.923ZM8.31,6.6a1.327,1.327,0,1,1,2.654,0V8.585H8.31Zm4.635,7.284H6.325V9.248h6.623Z" transform="translate(-5 -4.124)" fill="#005da3"/>
          </g>
        </g>
        <g id="Group_4-2" data-name="Group 4" transform="matrix(0.998, -0.07, 0.07, 0.998, -1859.888, 999.082)">
          <path id="Subtraction_3" data-name="Subtraction 3" d="M31.469,24.045h-.981V22.669h.662l.275-.034a5.868,5.868,0,0,0,5.59-4.609c.579-2.641,1.52-3.765,1.5-1.226a7.3,7.3,0,0,1-2.075,5.088,6.887,6.887,0,0,1-4.976,2.157Zm-23.439,0H7.7a7.552,7.552,0,0,1-5.448-2.333A7.91,7.91,0,0,1,0,16.169,7.577,7.577,0,0,1,5.21,8.964a5.291,5.291,0,0,1,5.064-4.471,5.058,5.058,0,0,1,2.3.551c1.079-2.287,2.007-1.109,1.192.595l-.559,1.178L12.046,6.23a3.684,3.684,0,0,0-1.711-.413A3.96,3.96,0,0,0,6.56,9.2l-.129.757-.722.257A6.241,6.241,0,0,0,1.393,16.13a6.549,6.549,0,0,0,6.379,6.543H8.03v1.375Z" transform="translate(2104.326 -756.282)" fill="#005da3"/>
        </g>
      </g>
    </g>
  </g>
</svg>
