<svg xmlns="http://www.w3.org/2000/svg" width="200" height="195.364" viewBox="0 0 200 195.364">
  <g id="Group_29" data-name="Group 29" transform="translate(-1413 -413)">
    <g id="Group_27" data-name="Group 27" transform="translate(-4 -1)">
      <g id="API_listing_icon" transform="translate(1311)">
        <g id="api" transform="translate(104 412)">
          <path id="Path_49" data-name="Path 49" d="M183.279,3H16.354C8.979,3,3,8.7,3,15.733v19.1H196.633v-19.1C196.633,8.7,190.655,3,183.279,3ZM23.031,25.283a6.527,6.527,0,0,1-6.677-6.367,6.527,6.527,0,0,1,6.677-6.367,6.527,6.527,0,0,1,6.677,6.367A6.527,6.527,0,0,1,23.031,25.283Zm23.37,0a6.527,6.527,0,0,1-6.677-6.367,6.685,6.685,0,0,1,13.354,0A6.527,6.527,0,0,1,46.4,25.283Zm23.37,0a6.527,6.527,0,0,1-6.677-6.367,6.685,6.685,0,0,1,13.354,0A6.527,6.527,0,0,1,69.77,25.283Z" transform="translate(2.183 2.183)" fill="#9bc9ff"/>
          <path id="Path_50" data-name="Path 50" d="M120.77,44.211l-8.086,8.054a46.027,46.027,0,0,0-8.468-3.5v-11.4A6.386,6.386,0,0,0,97.85,31H85.117a6.386,6.386,0,0,0-6.367,6.367v11.4A44.026,44.026,0,0,0,70.282,52.3L62.2,44.211a6.341,6.341,0,0,0-8.977,0L44.211,53.22a6.341,6.341,0,0,0,0,8.977L52.3,70.282a44.025,44.025,0,0,0-3.533,8.468h-11.4A6.386,6.386,0,0,0,31,85.117V97.85a6.386,6.386,0,0,0,6.367,6.367h11.4a44.025,44.025,0,0,0,3.534,8.468l-8.086,8.086a6.392,6.392,0,0,0-1.751,5.73h71.307A12.733,12.733,0,0,0,126.5,113.767V42.46a6.392,6.392,0,0,0-5.73,1.751ZM91.483,113.767a22.283,22.283,0,1,1,22.283-22.283,22.283,22.283,0,0,1-22.283,22.283Z" transform="translate(72.317 67.68)" fill="#9bc9ff"/>
          <g id="Group_9" data-name="Group 9" transform="translate(2 2)">
            <path id="Path_51" data-name="Path 51" d="M185.333,2H18.667A16.5,16.5,0,0,0,2,18.28v162.8a16.5,16.5,0,0,0,16.667,16.28H185.333A16.5,16.5,0,0,0,202,181.083V18.28A16.5,16.5,0,0,0,185.333,2ZM18.667,8.512H185.333a9.886,9.886,0,0,1,10,9.768v16.28H8.667V18.28a9.886,9.886,0,0,1,10-9.768Zm-10,172.571V41.073H195.333v63.978a10.012,10.012,0,0,0-5.02,2.579l-6.76,6.581a52.293,52.293,0,0,0-4.887-1.973v-9.3a9.886,9.886,0,0,0-10-9.768H155.333a9.886,9.886,0,0,0-10,9.768v9.3a51.284,51.284,0,0,0-4.9,1.989l-6.747-6.594a10.393,10.393,0,0,0-14.113,0l-9.433,9.211a9.583,9.583,0,0,0,0,13.789l6.75,6.594a47.972,47.972,0,0,0-2.04,4.783h-9.52a9.886,9.886,0,0,0-10,9.768V164.8a9.886,9.886,0,0,0,10,9.768h9.52a47.975,47.975,0,0,0,2.04,4.78l-6.75,6.594a9.638,9.638,0,0,0-2.647,4.907H18.667a9.886,9.886,0,0,1-10-9.768Zm176.667,9.768H114.617a3.588,3.588,0,0,1,.24-.3l8.467-8.27a3.2,3.2,0,0,0,.567-3.865,41.944,41.944,0,0,1-3.433-8.039,3.325,3.325,0,0,0-3.19-2.315H105.333A3.3,3.3,0,0,1,102,164.8V151.779a3.3,3.3,0,0,1,3.333-3.256h11.933a3.325,3.325,0,0,0,3.19-2.315,41.941,41.941,0,0,1,3.433-8.039,3.2,3.2,0,0,0-.567-3.865l-8.467-8.274a3.174,3.174,0,0,1,0-4.575l9.433-9.215a3.445,3.445,0,0,1,4.687,0l8.467,8.27a3.393,3.393,0,0,0,3.957.554,43.372,43.372,0,0,1,8.227-3.35A3.267,3.267,0,0,0,152,114.595V102.938a3.3,3.3,0,0,1,3.333-3.256h13.333A3.3,3.3,0,0,1,172,102.938v11.657a3.267,3.267,0,0,0,2.373,3.119,45.185,45.185,0,0,1,8.25,3.334,3.393,3.393,0,0,0,3.93-.563l8.47-8.244a3.073,3.073,0,0,1,.31-.234v69.077a9.886,9.886,0,0,1-10,9.768Z" transform="translate(-2 -2)" fill="#1e81ce"/>
            <path id="Path_52" data-name="Path 52" d="M15.55,24.1A9.55,9.55,0,1,0,6,14.55,9.55,9.55,0,0,0,15.55,24.1Zm0-12.733a3.183,3.183,0,1,1-3.183,3.183A3.183,3.183,0,0,1,15.55,11.367Z" transform="translate(6.733 4.55)" fill="#1e81ce"/>
            <path id="Path_53" data-name="Path 53" d="M22.55,24.1A9.55,9.55,0,1,0,13,14.55,9.55,9.55,0,0,0,22.55,24.1Zm0-12.733a3.183,3.183,0,1,1-3.183,3.183A3.183,3.183,0,0,1,22.55,11.367Z" transform="translate(23.85 4.55)" fill="#1e81ce"/>
            <path id="Path_54" data-name="Path 54" d="M29.55,24.1A9.55,9.55,0,1,0,20,14.55,9.55,9.55,0,0,0,29.55,24.1Zm0-12.733a3.183,3.183,0,1,1-3.183,3.183A3.183,3.183,0,0,1,29.55,11.367Z" transform="translate(40.3 4.55)" fill="#1e81ce"/>
            <path id="Path_55" data-name="Path 55" d="M67.467,42A25.467,25.467,0,1,0,92.933,67.467,25.467,25.467,0,0,0,67.467,42Zm0,44.567a19.1,19.1,0,1,1,19.1-19.1,19.1,19.1,0,0,1-19.1,19.1Z" transform="translate(94.333 89.697)" fill="#1e81ce"/>
          </g>
        </g>
      </g>
      <g id="coding" transform="translate(1389 353.5)">
        <g id="Group_24" data-name="Group 24" transform="translate(41.448 109.525)">
          <path id="Path_115" data-name="Path 115" d="M205.337,181.526h68.29a2.882,2.882,0,0,0,0-5.612h-68.29a2.882,2.882,0,0,0,0,5.612Z" transform="translate(-132.468 -170.033)" fill="#1e81ce"/>
          <path id="Path_116" data-name="Path 116" d="M205.337,236.537h68.29a2.882,2.882,0,0,0,0-5.612h-68.29a2.882,2.882,0,0,0,0,5.612Z" transform="translate(-132.468 -204.597)" fill="#1e81ce"/>
          <path id="Path_117" data-name="Path 117" d="M211.6,285.964H178.291a2.806,2.806,0,1,0,0,5.612H211.6a2.806,2.806,0,1,0,0-5.612Z" transform="translate(-134.222 -239.18)" fill="#1e81ce"/>
          <path id="Path_118" data-name="Path 118" d="M77.992,288.769a2.808,2.808,0,0,0,2.809,2.806h21.382a2.806,2.806,0,1,0,0-5.612H80.8A2.808,2.808,0,0,0,77.992,288.769Z" transform="translate(-72.967 -239.179)" fill="#1e81ce"/>
          <path id="Path_119" data-name="Path 119" d="M77.625,199.408a2.806,2.806,0,1,0,0-5.612c-1.568,0-3.437-.789-3.437-4.55v-3.956a7.488,7.488,0,0,0-1.571-4.962,7.491,7.491,0,0,0,1.571-4.961V171.41c0-3.76,1.869-4.549,3.437-4.549a2.806,2.806,0,1,0,0-5.612c-4.507,0-9.055,3.142-9.055,10.161v3.956c0,1.474-.268,1.573-1.557,2.053-.3.11-.6.223-.911.367a2.8,2.8,0,0,0-.206,4.981c.06.039.836.372,1.116.475,1.29.474,1.558.573,1.558,2.047v3.956C68.57,196.266,73.118,199.408,77.625,199.408Z" transform="translate(-64.472 -160.818)" fill="#1e81ce"/>
          <path id="Path_120" data-name="Path 120" d="M137.857,188.077c0,3.76-1.869,4.549-3.437,4.549a2.806,2.806,0,1,0,0,5.612c4.507,0,9.055-3.142,9.055-10.161v-3.946c0-1.474.268-1.574,1.557-2.053.281-.1.572-.214.868-.349.008,0,.129-.062.161-.084a2.8,2.8,0,0,0-.134-5.035c-.305-.139-.6-.249-.894-.355-1.29-.474-1.558-.573-1.558-2.047v-3.956c0-7.019-4.548-10.162-9.055-10.162a2.806,2.806,0,1,0,0,5.612c1.568,0,3.437.789,3.437,4.55v3.956a7.489,7.489,0,0,0,1.571,4.962,7.491,7.491,0,0,0-1.571,4.961v3.945Z" transform="translate(-81.657 -160.09)" fill="#1e81ce"/>
          <path id="Path_121" data-name="Path 121" d="M147.865,340.974H79.809a2.806,2.806,0,1,0,0,5.612h68.056a2.806,2.806,0,1,0,0-5.612Z" transform="translate(-72.344 -273.744)" fill="#1e81ce"/>
          <path id="Path_122" data-name="Path 122" d="M146.873,396.013H78.817a2.806,2.806,0,1,0,0,5.612h68.056a2.806,2.806,0,1,0,0-5.612Z" transform="translate(-71.72 -308.326)" fill="#1e81ce"/>
        </g>
      </g>
      <path id="Path_123" data-name="Path 123" d="M205.323,236.537h67.85a2.887,2.887,0,0,0,0-5.612h-67.85a2.887,2.887,0,0,0,0,5.612Z" transform="translate(1230.864 342.428)" fill="#1e81ce"/>
      <path id="Path_124" data-name="Path 124" d="M205.323,236.537h67.85a2.887,2.887,0,0,0,0-5.612h-67.85a2.887,2.887,0,0,0,0,5.612Z" transform="translate(1230.864 360.428)" fill="#1e81ce"/>
    </g>
  </g>
</svg>
