<?xml version="1.0" encoding="utf-8"?>
<!-- Generator: Adobe Illustrator 25.4.8, SVG Export Plug-In . SVG Version: 6.00 Build 0)  -->
<svg version="1.1" xmlns="http://www.w3.org/2000/svg" xmlns:xlink="http://www.w3.org/1999/xlink" x="0px" y="0px"
	 viewBox="0 0 200 200" style="enable-background:new 0 0 200 200;" xml:space="preserve">
<style type="text/css">
	.st0{display:none;}
	.st1{display:inline;}
	.st2{fill:#9BC9FF;}
	.st3{fill:#1E81CE;}
	.st4{fill:#FFFFFF;}
	.st5{fill:#F9F8F7;}
	.st6{fill:#0762A0;}
	.st7{fill:#373737;}
</style>
<g id="Layer_1" class="st0">
	<g id="Template" transform="translate(-2 -2)" class="st1">
		<path id="Path_9" class="st2" d="M192,5.3H12c-3.7,0-6.7,3-6.7,6.7c0,0,0,0,0,0v33.3h193.3V12C198.7,8.3,195.7,5.3,192,5.3z
			 M25.3,32c-3.7,0-6.7-3-6.7-6.7s3-6.7,6.7-6.7s6.7,3,6.7,6.7l0,0C32,29,29,32,25.3,32z M48.7,32C45,32,42,29,42,25.3
			s3-6.7,6.7-6.7s6.7,3,6.7,6.7l0,0C55.3,29,52.3,32,48.7,32z M72,32c-3.7,0-6.7-3-6.7-6.7s3-6.7,6.7-6.7s6.7,3,6.7,6.7l0,0
			C78.7,29,75.7,32,72,32L72,32z M178.7,32h-80c-3.7,0-6.7-2.9-6.7-6.6s2.9-6.7,6.6-6.7c0.1,0,0.1,0,0.2,0h80c3.7,0,6.7,2.9,6.7,6.6
			c0,3.7-2.9,6.7-6.6,6.7C178.8,32,178.7,32,178.7,32z"/>
		<path id="Path_10" class="st2" d="M32,65.3h53.3v40H32V65.3z"/>
		<path id="Path_11" class="st2" d="M138.7,118.7H172V132h-33.3V118.7z"/>
		<path id="Path_12" class="st2" d="M32,118.7h33.3V132H32V118.7z"/>
		<path id="Path_13" class="st2" d="M85.3,118.7h33.3V132H85.3V118.7z"/>
		<path id="Path_14" class="st2" d="M32,145.3h140v33.3H32V145.3z"/>
		<g id="Group_3" transform="translate(2 2)">
			<path id="Path_15" class="st3" d="M190,0H10C4.5,0,0,4.5,0,10v180c0,5.5,4.5,10,10,10h180c5.5,0,10-4.5,10-10V10
				C200,4.5,195.5,0,190,0z M6.7,10c0-1.8,1.5-3.3,3.3-3.3l0,0h180c1.8,0,3.3,1.5,3.3,3.3v30H6.7V10z M193.3,190
				c0,1.8-1.5,3.3-3.3,3.3H10c-1.8,0-3.3-1.5-3.3-3.3V46.7h186.7V190z"/>
			<path id="Path_16" class="st3" d="M176.7,33.3h-80c-5.5,0-10-4.5-10-10s4.5-10,10-10h80c5.5,0,10,4.5,10,10
				S182.2,33.3,176.7,33.3z M96.7,20c-1.8,0-3.3,1.5-3.3,3.3s1.5,3.3,3.3,3.3l0,0h80c1.8,0,3.3-1.5,3.3-3.3s-1.5-3.3-3.3-3.3H96.7z"
				/>
			<path id="Path_17" class="st3" d="M23.3,33.3c-5.5,0-10-4.5-10-10s4.5-10,10-10s10,4.5,10,10S28.9,33.3,23.3,33.3z M23.3,20
				c-1.8,0-3.3,1.5-3.3,3.3s1.5,3.3,3.3,3.3s3.3-1.5,3.3-3.3S25.2,20,23.3,20L23.3,20z"/>
			<path id="Path_18" class="st3" d="M46.7,33.3c-5.5,0-10-4.5-10-10s4.5-10,10-10s10,4.5,10,10S52.2,33.3,46.7,33.3z M46.7,20
				c-1.8,0-3.3,1.5-3.3,3.3s1.5,3.3,3.3,3.3s3.3-1.5,3.3-3.3S48.5,20,46.7,20L46.7,20z"/>
			<path id="Path_19" class="st3" d="M70,33.3c-5.5,0-10-4.5-10-10s4.5-10,10-10c5.5,0,10,4.5,10,10S75.5,33.3,70,33.3z M70,20
				c-1.8,0-3.3,1.5-3.3,3.3s1.5,3.3,3.3,3.3s3.3-1.5,3.3-3.3S71.8,20,70,20L70,20z"/>
			<path id="Path_20" class="st3" d="M83.3,106.7H30c-1.8,0-3.3-1.5-3.3-3.3c0,0,0,0,0,0v-40c0-1.8,1.5-3.3,3.3-3.3l0,0h53.3
				c1.8,0,3.3,1.5,3.3,3.3l0,0v40C86.7,105.2,85.2,106.7,83.3,106.7C83.3,106.7,83.3,106.7,83.3,106.7z M33.3,100H80V66.7H33.3V100z
				"/>
			<path id="Path_21" class="st3" d="M170,73.3h-66.7c-1.8,0-3.3-1.5-3.3-3.3s1.5-3.3,3.3-3.3H170c1.8,0,3.3,1.5,3.3,3.3
				S171.8,73.3,170,73.3z"/>
			<path id="Path_22" class="st3" d="M170,86.7h-66.7c-1.8,0-3.3-1.5-3.3-3.3s1.5-3.3,3.3-3.3H170c1.8,0,3.3,1.5,3.3,3.3
				S171.8,86.7,170,86.7z"/>
			<path id="Path_23" class="st3" d="M170,100h-66.7c-1.8,0-3.3-1.5-3.3-3.3s1.5-3.3,3.3-3.3H170c1.8,0,3.3,1.5,3.3,3.3
				S171.8,100,170,100z"/>
			<path id="Path_24" class="st3" d="M170,133.3h-33.3c-1.8,0-3.3-1.5-3.3-3.3l0,0v-13.3c0-1.8,1.5-3.3,3.3-3.3l0,0H170
				c1.8,0,3.3,1.5,3.3,3.3l0,0V130C173.3,131.8,171.8,133.3,170,133.3L170,133.3z M140,126.7h26.7V120H140V126.7z"/>
			<path id="Path_25" class="st3" d="M63.3,133.3H30c-1.8,0-3.3-1.5-3.3-3.3l0,0v-13.3c0-1.8,1.5-3.3,3.3-3.3l0,0h33.3
				c1.8,0,3.3,1.5,3.3,3.3l0,0V130C66.7,131.8,65.2,133.3,63.3,133.3L63.3,133.3z M33.3,126.7H60V120H33.3V126.7z"/>
			<path id="Path_26" class="st3" d="M116.7,133.3H83.3c-1.8,0-3.3-1.5-3.3-3.3l0,0v-13.3c0-1.8,1.5-3.3,3.3-3.3l0,0h33.3
				c1.8,0,3.3,1.5,3.3,3.3l0,0V130C120,131.8,118.5,133.3,116.7,133.3L116.7,133.3z M86.7,126.7h26.7V120H86.7V126.7z"/>
			<path id="Path_27" class="st3" d="M170,180H30c-1.8,0-3.3-1.5-3.3-3.3v-33.3c0-1.8,1.5-3.3,3.3-3.3l0,0h140
				c1.8,0,3.3,1.5,3.3,3.3v33.3C173.3,178.5,171.8,180,170,180C170,180,170,180,170,180z M33.3,173.3h133.3v-26.7H33.3V173.3z"/>
		</g>
	</g>
</g>
<g id="Layer_2">
	<g id="_x30_30---Business-Dashboard">
		<path id="Path" class="st3" d="M194.9,17.3v113.3l-3.2,3.2H10.5l-3.2-3.2V17.3c0-5.4,4.3-9.7,9.7-9.7h168.3
			C190.6,7.6,194.9,12,194.9,17.3z"/>
		<path id="Rectangle" class="st4" d="M65.5,153.2h71.2v19.4H65.5V153.2z"/>
		<path id="Path_00000088835088180338369000000003377659003011871897_" class="st4" d="M159.3,182.4l-22.7-12.9H65.5l-22.7,12.9
			l3.2,6.5l111.1-0.5L159.3,182.4z"/>
		<path id="Path_00000076603912159472108810000008499003561030516637_" class="st4" d="M194.9,130.6v16.2c0,5.4-4.3,9.7-9.7,9.7
			H16.9c-5.4,0-9.7-4.3-9.7-9.7v-16.2H194.9z"/>
		<circle id="Oval" class="st5" cx="162.6" cy="40" r="19.4"/>
		<path id="Path_00000172430347237484820140000003333352472772988840_" class="st4" d="M42.8,182.4h116.5v9.7c0,1.8-1.4,3.2-3.2,3.2
			h-110c-1.8,0-3.2-1.4-3.2-3.2V182.4z"/>
		<path id="Path_00000066474981537134887060000001312138306350119063_" class="st4" d="M182,40h-19.4V20.6
			C173.3,20.6,182,29.3,182,40z"/>
		<g>
			<path id="Shape" class="st3" d="M162.6,62.6c12.5,0,22.7-10.1,22.7-22.7s-10.1-22.7-22.7-22.7S139.9,27.5,139.9,40
				C139.9,52.5,150.1,62.6,162.6,62.6z M178.4,36.7h-12.6V24.1C172.1,25.4,177.1,30.4,178.4,36.7z M159.3,24.1V40
				c0,1.8,1.4,3.2,3.2,3.2h15.9c-1.6,7.9-8.9,13.4-16.9,12.9c-8.1-0.5-14.5-7-15.1-15.1S151.4,25.7,159.3,24.1L159.3,24.1z"/>
			<path id="Shape_00000025430829713038491530000003461520913241025468_" class="st6" d="M185.2,4.4H16.9C9.8,4.4,4,10.2,4,17.3
				v97.1c0,1.8,1.4,3.2,3.2,3.2s3.2-1.4,3.2-3.2V75.6h58.2v51.8H7.2c-1.8,0-3.2,1.4-3.2,3.2v16.2c0,7.1,5.8,12.9,12.9,12.9h45.3v7.8
				l-21,12c-0.2,0.1-0.3,0.2-0.4,0.3c-0.1,0.1-0.2,0.2-0.3,0.3c-0.2,0.3-0.4,0.6-0.6,0.9c0,0,0,0,0,0.1c-0.1,0.4-0.2,0.8-0.2,1.2
				c0,0,0,0.1,0,0.1v9.7c0,3.6,2.9,6.5,6.5,6.5h110c3.6,0,6.5-2.9,6.5-6.5v-9.7c0,0,0-0.1,0-0.1c0-0.4-0.1-0.8-0.2-1.2
				c0,0,0-0.1-0.1-0.1c-0.1-0.3-0.3-0.6-0.6-0.9c-0.1-0.1-0.2-0.2-0.3-0.3c-0.1-0.1-0.3-0.2-0.4-0.3l-21-12v-7.8h45.3
				c7.1,0,12.9-5.8,12.9-12.9V17.3C198.1,10.2,192.4,4.4,185.2,4.4L185.2,4.4z M75.2,10.9H127v58.2H75.2V10.9z M133.4,75.6h58.2
				v51.8h-58.2V75.6z M191.7,17.3v51.8h-58.2V10.9h51.8C188.8,10.9,191.7,13.8,191.7,17.3z M10.5,17.3c0-3.6,2.9-6.5,6.5-6.5h51.8
				v58.2H10.5V17.3z M75.2,75.6H127v51.8H75.2V75.6z M46.1,192.1v-6.5h110v6.5H46.1z M55,179.1l11.3-6.5h69.5l11.3,6.5H55z
				 M133.4,166.2H68.7v-6.5h64.7V166.2z M191.7,146.8c0,3.6-2.9,6.5-6.5,6.5H16.9c-3.6,0-6.5-2.9-6.5-6.5v-12.9h181.2V146.8z"/>
			<path id="Path_00000145046733201097604190000009947905658779023514_" class="st7" d="M107.5,140.3H94.6c-1.8,0-3.2,1.4-3.2,3.2
				c0,1.8,1.4,3.2,3.2,3.2h12.9c1.8,0,3.2-1.4,3.2-3.2C110.8,141.7,109.3,140.3,107.5,140.3z"/>
			<path id="Path_00000059305397056657004420000012367027786618650034_" class="st4" d="M59,52.9h-3.2V40c0-1.8-1.4-3.2-3.2-3.2
				s-3.2,1.4-3.2,3.2v12.9h-6.5V23.8c0-1.8-1.4-3.2-3.2-3.2s-3.2,1.4-3.2,3.2v29.1h-6.5V40c0-1.8-1.4-3.2-3.2-3.2
				c-1.8,0-3.2,1.4-3.2,3.2v12.9h-3.2c-1.8,0-3.2,1.4-3.2,3.2c0,1.8,1.4,3.2,3.2,3.2H59c1.8,0,3.2-1.4,3.2-3.2
				C62.2,54.4,60.8,52.9,59,52.9z"/>
			<path id="Path_00000035509713876522130080000006591732160173866389_" class="st4" d="M117.3,114.4v-12.9c0-1.8-1.4-3.2-3.2-3.2
				c-1.8,0-3.2,1.4-3.2,3.2v12.9h-6.5V98.2c0-1.8-1.4-3.2-3.2-3.2c-1.8,0-3.2,1.4-3.2,3.2v16.2h-6.5V85.3c0-1.8-1.4-3.2-3.2-3.2
				c-1.8,0-3.2,1.4-3.2,3.2v29.1c-1.8,0-3.2,1.4-3.2,3.2c0,1.8,1.4,3.2,3.2,3.2h32.4c1.8,0,3.2-1.4,3.2-3.2
				C120.5,115.9,119,114.4,117.3,114.4z"/>
			<path id="Path_00000163064776290419864530000012921719889727951778_" class="st4" d="M114,36.7H91.4v-6.5h19.4
				c1.8,0,3.2-1.4,3.2-3.2s-1.4-3.2-3.2-3.2H91.4v-3.2c0-1.8-1.4-3.2-3.2-3.2c-1.8,0-3.2,1.4-3.2,3.2v38.8c0,1.8,1.4,3.2,3.2,3.2
				c1.8,0,3.2-1.4,3.2-3.2v-3.2h9.7c1.8,0,3.2-1.4,3.2-3.2s-1.4-3.2-3.2-3.2h-9.7v-6.5H114c1.8,0,3.2-1.4,3.2-3.2
				S115.8,36.7,114,36.7z"/>
			<path id="Path_00000005225480903599744900000015886886581898821264_" class="st4" d="M178.7,85.3h-22.7c0-1.8-1.4-3.2-3.2-3.2
				s-3.2,1.4-3.2,3.2v32.4c0,1.8,1.4,3.2,3.2,3.2s3.2-1.4,3.2-3.2h19.4c1.8,0,3.2-1.4,3.2-3.2c0-1.8-1.4-3.2-3.2-3.2h-19.4v-6.5h9.7
				c1.8,0,3.2-1.4,3.2-3.2c0-1.8-1.4-3.2-3.2-3.2h-9.7v-6.5h22.7c1.8,0,3.2-1.4,3.2-3.2C182,86.7,180.5,85.3,178.7,85.3z"/>
			<path id="Path_00000151502351025386185660000012540637910709991865_" class="st4" d="M22.9,119.4l10.4-15.6l7,9.3
				c0.6,0.8,1.6,1.3,2.6,1.3h0c1,0,2-0.5,2.6-1.4l16.2-22.7c0.7-0.9,0.9-2.2,0.4-3.3c-0.5-1.1-1.5-1.8-2.7-1.9
				c-1.2-0.1-2.3,0.5-3,1.4l-13.6,19.1l-7.1-9.4C35.1,95.5,34.1,95,33,95c-1.1,0-2,0.6-2.6,1.4l-12.9,19.4c-1,1.5-0.6,3.5,0.9,4.5
				C19.9,121.3,21.9,120.9,22.9,119.4L22.9,119.4z"/>
		</g>
	</g>
</g>
</svg>
