<svg xmlns="http://www.w3.org/2000/svg" width="226" height="200" viewBox="0 0 226 200">
  <g id="Group_8" data-name="Group 8" transform="translate(-1124 -71)">
    <g id="Group_6" data-name="Group 6">
      <g id="database" transform="translate(1100.727 71)">
        <path id="Path_1" data-name="Path 1" d="M32.744,38.4C35.4,22.176,73.38,9.309,119.855,9.309V202.036c-46.475,0-84.451-12.868-87.11-29.091h-.162V38.4Z" transform="translate(-5.673 -5.673)" fill="#fff"/>
        <path id="Path_2" data-name="Path 2" d="M343.11,38.4C340.451,22.176,302.475,9.309,256,9.309V202.036c46.475,0,84.451-12.868,87.11-29.091h.162V38.4Z" transform="translate(-141.818 -5.673)" fill="#7facfa"/>
        <g id="Group_1" data-name="Group 1" transform="translate(37.818 3.636)">
          <path id="Path_3" data-name="Path 3" d="M213.074,38.4h0c-2.659-16.224-18.817-29.091-65.292-29.091S63.33,22.176,60.672,38.4h-.163V172.945h.163c2.659,16.223,40.636,29.091,87.11,29.091s62.633-12.868,65.292-29.091h.162V38.4Z" transform="translate(-60.509 -9.309)" fill="#cce4ff"/>
          <ellipse id="Ellipse_1" data-name="Ellipse 1" cx="81.818" cy="32.727" rx="81.818" ry="32.727" transform="translate(3.636 0)" fill="#a4c2f7"/>
        </g>
        <ellipse id="Ellipse_2" data-name="Ellipse 2" cx="81.818" cy="32.727" rx="81.818" ry="32.727" transform="translate(26.909 3.636)" fill="#fff"/>
        <ellipse id="Ellipse_3" data-name="Ellipse 3" cx="76.364" cy="32.727" rx="76.364" ry="32.727" transform="translate(37.818 3.636)" fill="#cce4ff"/>
        <g id="Group_2" data-name="Group 2" transform="translate(23.273)">
          <path id="Path_4" data-name="Path 4" d="M114.182,200c-47.766,0-86.189-13.288-90.483-31.087a3.411,3.411,0,0,1-.426-1.641V32.727a3.6,3.6,0,0,1,.455-1.761C28.159,13.232,66.519,0,114.182,0S200.2,13.232,204.637,30.966a3.6,3.6,0,0,1,.455,1.761V167.273a3.6,3.6,0,0,1-.455,1.761C200.2,186.768,161.842,200,114.182,200ZM30.546,166.207a3.439,3.439,0,0,1,.117.476c2.06,12.578,36.115,26.044,83.519,26.044s81.459-13.466,83.519-26.044a3.778,3.778,0,0,1,.117-.49V33.793a3.5,3.5,0,0,1-.117-.479c-2.056-12.575-36.108-26.041-83.519-26.041S32.719,20.739,30.663,33.313a3.687,3.687,0,0,1-.117.494v132.4Z" transform="translate(-23.273)" fill="#428dff"/>
          <path id="Path_5" data-name="Path 5" d="M114.182,288.436c-47.766,0-86.189-13.288-90.483-31.087a3.41,3.41,0,0,1-.426-1.641V208.436a3.636,3.636,0,0,1,7.273,0c0,13.732,35.767,29.091,83.636,29.091s83.636-15.359,83.636-29.091a3.636,3.636,0,0,1,7.273,0v47.273a3.6,3.6,0,0,1-.455,1.761C200.2,275.2,161.842,288.436,114.182,288.436ZM30.546,254.644a3.439,3.439,0,0,1,.117.476c2.06,12.578,36.115,26.044,83.519,26.044S195.641,267.7,197.7,255.12a3.775,3.775,0,0,1,.117-.49V222.687c-13.885,12.986-46.147,22.113-83.636,22.113s-69.752-9.127-83.636-22.113Z" transform="translate(-23.273 -124.8)" fill="#428dff"/>
          <path id="Path_6" data-name="Path 6" d="M114.182,176.727c-47.766,0-86.189-13.288-90.483-31.087A3.41,3.41,0,0,1,23.273,144V96.727a3.636,3.636,0,0,1,7.273,0c0,13.732,35.767,29.091,83.636,29.091s83.636-15.359,83.636-29.091a3.636,3.636,0,0,1,7.273,0V144a3.6,3.6,0,0,1-.455,1.761C200.2,163.5,161.842,176.727,114.182,176.727ZM30.546,142.935a3.439,3.439,0,0,1,.117.476c2.06,12.578,36.115,26.044,83.519,26.044s81.459-13.466,83.519-26.044a3.774,3.774,0,0,1,.117-.49V110.978c-13.885,12.986-46.147,22.113-83.636,22.113s-69.752-9.127-83.636-22.113Z" transform="translate(-23.273 -56.727)" fill="#428dff"/>
        </g>
      </g>
    </g>
    <g id="Group_7" data-name="Group 7" transform="translate(-32.375 -32.375)">
      <g id="Ellipse_4" data-name="Ellipse 4" transform="translate(1242.375 160.375)" fill="#fff" stroke="#428dff" stroke-width="5">
        <circle cx="70" cy="70" r="70" stroke="none"/>
        <circle cx="70" cy="70" r="67.5" fill="none"/>
      </g>
      <path id="iconfinder_language_1608752" d="M163.875,59.133q-.055.165-.686-.027t-1.728-.631l-1.1-.494a32.862,32.862,0,0,1-4.772-2.688q-.384-.274-2.249-1.728T151.258,52a93.427,93.427,0,0,1-7.351,9.929q-4.443,5.211-5.76,6.034a4.346,4.346,0,0,1-1.07.219,2.113,2.113,0,0,1-1.015,0q.329-.219,4.5-5.047,1.152-1.317,4.69-6.308a76.71,76.71,0,0,0,4.306-6.473q.933-1.646,2.8-5.4A42.791,42.791,0,0,0,154.33,40.7a45.058,45.058,0,0,0-6.034,1.81q-.439.11-1.509.411t-1.892.521a9.361,9.361,0,0,0-.933.274.932.932,0,0,0-.11.576,1.215,1.215,0,0,1-.055.521q-.274.549-1.7.823a4.423,4.423,0,0,1-2.578,0,2.314,2.314,0,0,1-1.536-1.152,2.79,2.79,0,0,1-.274-1.262,10.6,10.6,0,0,1,1.344-.274,16.385,16.385,0,0,0,1.618-.329q3.182-.878,5.76-1.755,5.485-1.92,5.6-1.92a12.167,12.167,0,0,0,2.359-1.07A24.8,24.8,0,0,1,156.8,36.7q.494-.165,1.179-.439t.8-.3a.735.735,0,0,1,.329.027,6.239,6.239,0,0,1-.055,1.81,11.677,11.677,0,0,1-.686,1.481q-.686,1.371-1.454,2.935t-.933,1.838a82.243,82.243,0,0,1-4.224,7.186l3.511,1.536q.658.329,4.087,1.755t3.7,1.536q.219.055.576,1.4A4.157,4.157,0,0,1,163.875,59.133ZM152.63,32.474a2.224,2.224,0,0,1-.219,1.536,4.973,4.973,0,0,1-2.743,2.084,8.8,8.8,0,0,1-3.291.658,4.54,4.54,0,0,1-2.688-1.426,4.125,4.125,0,0,1-.987-2.249l.055-.165a2.347,2.347,0,0,0,1.07.274,4.771,4.771,0,0,0,1.454,0q.548-.11,3.182-.878a15.662,15.662,0,0,1,3.017-.768A1.083,1.083,0,0,1,152.63,32.474Zm38.289,7.076L194.374,52l-7.625-2.3ZM130.139,83.434l38.069-12.726V14.1L130.139,26.879Zm68.075-17.389,5.6,1.7L193.88,31.706l-5.485-1.7-11.849,29.4,5.6,1.7,2.468-6.034,11.574,3.566Zm-27.592-52.77,31.432,10.093V2.523Zm17.06,72.573,8.667.713-2.962,8.777-2.194-3.62a40.665,40.665,0,0,1-15.14,5.924,26.29,26.29,0,0,1-4.992.658h-4.608A37.075,37.075,0,0,1,155.51,96.16,36.424,36.424,0,0,1,145.444,91.5,1.143,1.143,0,0,1,145,90.62a1.061,1.061,0,0,1,.274-.741.919.919,0,0,1,.713-.3,3.088,3.088,0,0,1,.987.411q.768.411,1.673.905t1.125.6a48.6,48.6,0,0,0,8.749,3.374,31.962,31.962,0,0,0,8.64,1.344,46.811,46.811,0,0,0,9.161-.8,45.214,45.214,0,0,0,8.612-2.77q.823-.384,1.673-.85t1.865-1.042q1.015-.576,1.563-.905Zm24.575-59.188V85.847L169.8,72.353q-.768.329-20.57,6.994t-20.187,6.665a.992.992,0,0,1-.987-.713.421.421,0,0,0-.055-.165V26a2.457,2.457,0,0,1,.219-.549,2.468,2.468,0,0,1,1.1-.6q5.815-1.92,8.173-2.743V1.042L168.1,11.9q.11,0,8.8-3.017t17.334-5.952Q202.877,0,203.1,0q1.1,0,1.1,1.152V24.081Z" transform="translate(1143.101 181.731)" fill="#428dff"/>
    </g>
  </g>
</svg>
