<svg xmlns="http://www.w3.org/2000/svg" width="96" height="84.171" viewBox="0 0 96 84.171">
  <g id="_6351911_arrows_ascending_down_sort_sorting_icon" data-name="6351911_arrows_ascending_down_sort_sorting_icon" transform="translate(-2 -3.5)">
    <path id="Path_12" data-name="Path 12" d="M52.933,43.56,41.1,55.385l.078-41.377a4.008,4.008,0,0,0-8.016,0l-.078,41.1L21.549,43.56a4.009,4.009,0,0,0-5.668,5.672L32.376,65.727a6.013,6.013,0,0,0,8.768.9,4.2,4.2,0,0,0,.447-.388l17.011-17a4.009,4.009,0,0,0-5.668-5.672Z" transform="translate(38.225 19.553)" fill="#fff"/>
    <path id="Path_13" data-name="Path 13" d="M2,24.311a3.206,3.206,0,0,0,3.21,3.206H36.868a3.2,3.2,0,0,0,3.21-3.206v-1.6a3.206,3.206,0,0,0-3.21-3.206H5.21a3.208,3.208,0,0,0-2.356,1.022A3.219,3.219,0,0,0,2,22.706Z" transform="translate(0 48.131)" fill="#fff"/>
    <path id="Path_14" data-name="Path 14" d="M4.028,19.289A3.209,3.209,0,0,1,2,16.311v-1.6A3.206,3.206,0,0,1,5.21,11.5H54.9a3.206,3.206,0,0,1,3.21,3.206v1.6a3.206,3.206,0,0,1-3.21,3.206H5.21A3.227,3.227,0,0,1,4.028,19.289Z" transform="translate(0 24.065)" fill="#fff"/>
    <path id="Path_15" data-name="Path 15" d="M2.3,9.653A3.2,3.2,0,0,1,2,8.311v-1.6A3.2,3.2,0,0,1,5.21,3.5H90.978a3.206,3.206,0,0,1,3.21,3.206v1.6a3.206,3.206,0,0,1-3.21,3.206H5.21A3.207,3.207,0,0,1,2.3,9.653Z" fill="#fff"/>
  </g>
</svg>
