<svg xmlns="http://www.w3.org/2000/svg" xmlns:xlink="http://www.w3.org/1999/xlink" width="200" height="200" viewBox="0 0 200 200">
  <defs>
    <clipPath id="clip-path">
      <path id="path1128" d="M0-682.665H28.174v30.859H0Z" transform="translate(0 682.665)" stroke="#1e81ce" stroke-width="1.333"/>
    </clipPath>
  </defs>
  <g id="Group_1" data-name="Group 1" transform="translate(-829 -482)">
    <g id="Template" transform="translate(827 480)">
      <path id="Path_9" data-name="Path 9" d="M189.667,3h-180A6.667,6.667,0,0,0,3,9.667V43H196.333V9.667A6.667,6.667,0,0,0,189.667,3ZM23,29.667A6.667,6.667,0,1,1,29.667,23,6.667,6.667,0,0,1,23,29.667Zm23.333,0A6.667,6.667,0,1,1,53,23a6.667,6.667,0,0,1-6.667,6.667Zm23.333,0A6.667,6.667,0,1,1,76.333,23a6.667,6.667,0,0,1-6.667,6.667Zm106.667,0h-80a6.667,6.667,0,1,1,0-13.333h80a6.667,6.667,0,1,1,0,13.333Z" transform="translate(2.333 2.333)" fill="#9bc9ff"/>
      <g id="Group_3" data-name="Group 3" transform="translate(2 2)">
        <path id="Path_15" data-name="Path 15" d="M192,2H12A10,10,0,0,0,2,12V192a10,10,0,0,0,10,10H192a10,10,0,0,0,10-10V12A10,10,0,0,0,192,2ZM8.667,12A3.333,3.333,0,0,1,12,8.667H192A3.333,3.333,0,0,1,195.333,12V42H8.667ZM195.333,192A3.333,3.333,0,0,1,192,195.333H12A3.333,3.333,0,0,1,8.667,192V48.667H195.333Z" transform="translate(-2 -2)" fill="#1e81ce"/>
        <path id="Path_16" data-name="Path 16" d="M118,26H38A10,10,0,1,1,38,6h80a10,10,0,0,1,0,20ZM38,12.667a3.333,3.333,0,1,0,0,6.667h80a3.334,3.334,0,0,0,0-6.667Z" transform="translate(58.667 7.333)" fill="#1e81ce"/>
        <path id="Path_17" data-name="Path 17" d="M16,26A10,10,0,1,1,26,16,10,10,0,0,1,16,26Zm0-13.333A3.333,3.333,0,1,0,19.333,16,3.333,3.333,0,0,0,16,12.667Z" transform="translate(7.333 7.333)" fill="#1e81ce"/>
        <path id="Path_18" data-name="Path 18" d="M23,26A10,10,0,1,1,33,16,10,10,0,0,1,23,26Zm0-13.333A3.333,3.333,0,1,0,26.333,16,3.333,3.333,0,0,0,23,12.667Z" transform="translate(23.667 7.333)" fill="#1e81ce"/>
        <path id="Path_19" data-name="Path 19" d="M30,26A10,10,0,1,1,40,16,10,10,0,0,1,30,26Zm0-13.333A3.333,3.333,0,1,0,33.333,16,3.333,3.333,0,0,0,30,12.667Z" transform="translate(40 7.333)" fill="#1e81ce"/>
      </g>
    </g>
    <path id="software-developer" d="M130.037,111.428h-9.707L126.551,68.7a5.336,5.336,0,0,0-5.293-6.12h-16.8A38.431,38.431,0,0,0,85.624,49.852,27.283,27.283,0,0,0,95.942,28.521a27.759,27.759,0,0,0-55.514,0A27.284,27.284,0,0,0,50.746,49.852,38.437,38.437,0,0,0,31.912,62.576h-16.8A5.336,5.336,0,0,0,9.819,68.7l6.221,42.732H6.333A5.339,5.339,0,0,0,1,116.761v4.562a5.339,5.339,0,0,0,5.333,5.333h4.049v3.419a5.339,5.339,0,0,0,5.333,5.333h104.94a5.339,5.339,0,0,0,5.333-5.333v-3.419h4.049a5.339,5.339,0,0,0,5.333-5.333v-4.562a5.339,5.339,0,0,0-5.333-5.333ZM44.38,28.521a23.807,23.807,0,0,1,47.61,0,23.807,23.807,0,0,1-47.61,0ZM55.265,52.8a27.992,27.992,0,0,0,25.839,0A34.341,34.341,0,0,1,99.18,62.576H37.191A34.342,34.342,0,0,1,55.265,52.8ZM13.73,68.127a1.384,1.384,0,0,1,1.382-1.6H121.257a1.384,1.384,0,0,1,1.382,1.6l-6.3,43.3h-96.3Zm117.688,53.2a1.4,1.4,0,0,1-1.381,1.381h-6.025a1.976,1.976,0,0,0-1.976,1.976v5.395a1.4,1.4,0,0,1-1.381,1.381H15.715a1.4,1.4,0,0,1-1.381-1.381V124.68a1.976,1.976,0,0,0-1.976-1.976H6.333a1.4,1.4,0,0,1-1.381-1.381v-4.562a1.382,1.382,0,0,1,1.381-1.381h123.7a1.4,1.4,0,0,1,1.381,1.381ZM80.724,76.439A17.733,17.733,0,1,0,68.185,106.71h0A17.733,17.733,0,0,0,80.724,76.439ZM77.93,98.723a13.783,13.783,0,1,1,4.036-9.744,13.69,13.69,0,0,1-4.036,9.744Zm3.215-9.745a1.976,1.976,0,0,1-.72,1.525L75.219,94.79a1.976,1.976,0,0,1-2.512-3.051l3.353-2.761-3.353-2.761a1.976,1.976,0,0,1,2.512-3.051l5.205,4.287a1.975,1.975,0,0,1,.72,1.525Zm-9.908-3.753-2.285,8.529a1.976,1.976,0,0,1-3.817-1.023L67.419,84.2a1.976,1.976,0,1,1,3.817,1.023Zm-7.574.992L60.31,88.978l3.353,2.761A1.976,1.976,0,0,1,61.15,94.79L55.945,90.5a1.976,1.976,0,0,1,0-3.051l5.205-4.286a1.976,1.976,0,1,1,2.512,3.051Z" transform="translate(860.815 533.514)" fill="#1e81ce"/>
    <g id="g1122" transform="translate(914.913 1227.679)">
      <g id="g1124" transform="translate(0 -682.665)">
        <g id="g1126" clip-path="url(#clip-path)">
          <g id="g1132" transform="translate(7.484 11.813)">
            <path id="path1134" d="M-306.792-152.767c0,3.994-2.957,7.232-6.6,7.232s-6.6-3.238-6.6-7.232,2.956-7.232,6.6-7.232S-306.792-156.762-306.792-152.767Z" transform="translate(319.999 160)" fill="none" stroke="#1e81ce" stroke-linecap="round" stroke-linejoin="round" stroke-miterlimit="10" stroke-width="2"/>
          </g>
          <g id="g1136" transform="translate(11.886 16.635)">
            <path id="path1138" d="M-51.132-101.845a2.315,2.315,0,0,1-2.2-2.411,2.315,2.315,0,0,1,2.2-2.411,2.315,2.315,0,0,1,2.2,2.411,2.315,2.315,0,0,1-2.2,2.411" transform="translate(53.333 106.666)" fill="#9bc9ff" stroke="#1e81ce" stroke-width="1.333"/>
          </g>
          <g id="g1140" transform="translate(11.886 16.635)">
            <path id="path1142" d="M-51.132-101.845a2.315,2.315,0,0,1-2.2-2.411,2.315,2.315,0,0,1,2.2-2.411,2.315,2.315,0,0,1,2.2,2.411A2.315,2.315,0,0,1-51.132-101.845Z" transform="translate(53.333 106.666)" fill="none" stroke="#1e81ce" stroke-linecap="round" stroke-linejoin="round" stroke-miterlimit="10" stroke-width="2"/>
          </g>
          <g id="g1144" transform="translate(0.55 11.813)">
            <path id="path1146" d="M0-152.767S5.833-160,13.537-160s13.537,7.232,13.537,7.232-5.833,7.232-13.537,7.232S0-152.767,0-152.767Z" transform="translate(0 160)" fill="none" stroke="#1e81ce" stroke-linecap="round" stroke-linejoin="round" stroke-miterlimit="10" stroke-width="2"/>
          </g>
          <g id="g1148" transform="translate(7.484 6.518)">
            <path id="path1150" d="M0,0,1.651,3.132" fill="none" stroke="#1e81ce" stroke-linecap="round" stroke-linejoin="round" stroke-miterlimit="10" stroke-width="2"/>
          </g>
          <g id="g1152" transform="translate(19.04 6.518)">
            <path id="path1154" d="M-38.349,0-40,3.132" transform="translate(40)" fill="none" stroke="#1e81ce" stroke-linecap="round" stroke-linejoin="round" stroke-miterlimit="10" stroke-width="2"/>
          </g>
          <g id="g1156" transform="translate(14.087 4.581)">
            <path id="path1158" d="M0,0V3.616" fill="none" stroke="#1e81ce" stroke-linecap="round" stroke-linejoin="round" stroke-miterlimit="10" stroke-width="2"/>
          </g>
        </g>
      </g>
    </g>
  </g>
</svg>
