<?xml version="1.0" encoding="utf-8"?>
<!-- Generator: Adobe Illustrator 27.5.0, SVG Export Plug-In . SVG Version: 6.00 Build 0)  -->
<svg version="1.1" xmlns="http://www.w3.org/2000/svg" xmlns:xlink="http://www.w3.org/1999/xlink" x="0px" y="0px"
	 viewBox="0 0 288.9 322.3" style="enable-background:new 0 0 288.9 322.3;" xml:space="preserve">
<style type="text/css">
	.st0{display:none;}
	.st1{display:inline;}
	.st2{fill:#407BFF;}
	.st3{opacity:0.9;fill:#FFFFFF;}
	.st4{fill:#FFFFFF;}
	.st5{fill:#F5F5F5;}
	.st6{opacity:0.5;fill:#407BFF;}
	.st7{opacity:0.8;fill:#FFFFFF;enable-background:new    ;}
	.st8{opacity:0.2;enable-background:new    ;}
	.st9{opacity:0.4;fill:#FFFFFF;enable-background:new    ;}
	.st10{fill:#EBB376;}
	.st11{opacity:0.1;clip-path:url(#XMLID_00000140000378986901663780000005197587136590396606_);enable-background:new    ;}
	.st12{fill:#263238;}
	.st13{opacity:0.6;fill:#FFFFFF;enable-background:new    ;}
	.st14{opacity:0.1;clip-path:url(#XMLID_00000093140390411507524390000017158398674564271541_);enable-background:new    ;}
</style>
<g id="Background_Complete">
</g>
<g id="Background_Simple" class="st0">
	<g class="st1">
		<path class="st2" d="M-4.5-10.7C23.5-70.2,122.6-61.8,160.9-20c38.3,41.8,50.7,68.6,85.2,53c34.5-15.6,78.5-11.4,81,38.2
			S289.2,179.4,225,196.8c-64.2,17.4-64.2,78.8-149.1,66.4c-46.3-6.8-47.4-56.9-40.8-98.3S-36.8,58.2-4.5-10.7z"/>
		<path class="st3" d="M-4.5-10.7C23.5-70.2,122.6-61.8,160.9-20c38.3,41.8,50.7,68.6,85.2,53c34.5-15.6,78.5-11.4,81,38.2
			S289.2,179.4,225,196.8c-64.2,17.4-64.2,78.8-149.1,66.4c-46.3-6.8-47.4-56.9-40.8-98.3S-36.8,58.2-4.5-10.7z"/>
	</g>
</g>
<g id="Shadow_1_">
</g>
<g id="Interface">
</g>
<g id="Asset_1">
	<circle class="st4" cx="253.7" cy="55.3" r="5.1"/>
	<circle class="st4" cx="254.6" cy="133.8" r="5.1"/>
</g>
<g id="Asset_2">
</g>
<g id="Selection">
</g>
<g id="Character">
	<g>
		<ellipse id="_x3C_Path_x3E__359_" class="st5" cx="138.4" cy="303.9" rx="130.2" ry="11.3"/>
		<g>
			<path class="st6" d="M270.8,198.7h-92.7c-2,0-3.7-1.6-3.7-3.7V25.6c0-2,1.6-3.7,3.7-3.7h92.7c2,0,3.7,1.6,3.7,3.7v169.5
				C274.4,197.1,272.8,198.7,270.8,198.7z"/>
			<path class="st2" d="M264.8,192.7h-92.7c-2,0-3.7-1.6-3.7-3.7V19.6c0-2,1.6-3.7,3.7-3.7h92.7c2,0,3.7,1.6,3.7,3.7v169.5
				C268.4,191.1,266.8,192.7,264.8,192.7z"/>
			<path class="st7" d="M264.8,192.7h-92.7c-2,0-3.7-1.6-3.7-3.7V19.6c0-2,1.6-3.7,3.7-3.7h92.7c2,0,3.7,1.6,3.7,3.7v169.5
				C268.4,191.1,266.8,192.7,264.8,192.7z"/>
		</g>
		<g>
			<g>
				<rect x="154.4" y="44.2" class="st2" width="107.8" height="20.6"/>
				<rect x="154.4" y="44.2" class="st8" width="107.8" height="20.6"/>
			</g>
		</g>
		<g>
			<g>
				<rect x="138.5" y="82.3" class="st2" width="107.8" height="20.6"/>
				<rect x="138.5" y="82.3" class="st9" width="107.8" height="20.6"/>
			</g>
		</g>
		<g>
			<g>
				<rect x="154.9" y="122.2" class="st2" width="107.8" height="20.6"/>
				<rect x="154.9" y="122.2" class="st9" width="107.8" height="20.6"/>
			</g>
		</g>
		<rect x="161.1" y="47.2" class="st4" width="52.4" height="3.1"/>
		<rect x="161.1" y="51.6" class="st4" width="19.9" height="1.8"/>
		<rect x="161" y="54.5" class="st4" width="19.9" height="1.8"/>
		<rect x="198.8" y="51.6" class="st4" width="14.6" height="1.8"/>
		<rect x="142.9" y="86.1" class="st4" width="52.4" height="3.1"/>
		<rect x="142.9" y="90.6" class="st4" width="19.9" height="3.1"/>
		<rect x="157" y="126.3" class="st4" width="52.4" height="3.1"/>
		<rect x="157" y="130.8" class="st4" width="19.9" height="3.1"/>
		<circle class="st4" cx="236.5" cy="92.6" r="5.1"/>
		<circle class="st4" cx="254.9" cy="134.5" r="5.1"/>
		<circle class="st4" cx="250.8" cy="54.3" r="5.1"/>
		<g>
			<path class="st10" d="M66,124.3l-10.6,8.6c0,0-2.6,0.1-3.4,0.9c-0.8,0.9-4,7.2-3.5,8.1c0.4,0.9,5.7,2.6,6.8,1.6
				c1.1-1,3-6.9,3-7.6l13.6-9.1L66,124.3z"/>
			<g>
				<defs>
					<path id="XMLID_2_" d="M60.3,128.3l2.4,5.2c0,0,14.6-6.8,17.8-10.8c0.8-1,1.9-2.7,3.1-4.5c2-3.1,4.2-6.8,5.8-9.4
						c1.2-1.9,1.9-3.3,1.9-3.3L83,92.3c-1.8,1.4-7.4,23.7-8.3,24.9C73.7,118.4,60.3,128.3,60.3,128.3z"/>
				</defs>
				<use xlink:href="#XMLID_2_"  style="overflow:visible;fill:#407BFF;"/>
				<clipPath id="XMLID_00000130606776541745947320000015791650433553929626_">
					<use xlink:href="#XMLID_2_"  style="overflow:visible;"/>
				</clipPath>
				
					<path style="opacity:0.1;clip-path:url(#XMLID_00000130606776541745947320000015791650433553929626_);enable-background:new    ;" d="
					M83.6,118.1c2-3.1,4.2-6.8,5.8-9.4l-3.9-9.5C85.5,99.2,83.4,110.1,83.6,118.1z"/>
			</g>
			<path class="st10" d="M151,74.9l10.5-8.1c0,0,0.8-2.5,1.9-3c1.1-0.5,8.1-1.5,8.8-0.9c0.7,0.7,0.7,6.2-0.6,7
				c-1.3,0.7-7.5,0.8-8.1,0.5l-11.5,8.4L151,74.9z"/>
			<polygon class="st10" points="62.5,298.7 68.8,299.8 71.4,291.2 73.7,283.3 66.5,280.8 64.4,290.3 			"/>
			<polygon class="st8" points="64.3,290.5 71.3,291.4 73.7,283.4 66.5,280.9 			"/>
			<polygon class="st10" points="104.4,298.8 110.8,298.8 111.8,290.3 112.8,282.3 105.2,281.1 104.8,290.5 			"/>
			<polygon class="st8" points="104.8,291.1 111.8,290.8 112.8,282.5 105.2,281.3 			"/>
			<g>
				<g>
					<path class="st12" d="M63.7,283.6l10.3,1.8c10.4-25.9,17.8-47.6,23.1-65.6c2.8-9.7,5.1-18.3,6.7-26l-0.4,28.2v63.7h10.4
						c25.5-121,7.4-149.1,7.4-149.1l-30.5-5.1c-1.2,4.6-2,12-2.6,17.1l-1.4,10.1l-11.9,61.6L63.7,283.6z"/>
				</g>
			</g>
			<g>
				<polygon class="st2" points="75.7,284.1 62.9,279.9 63,285.3 73.6,288.7 				"/>
				<polygon class="st13" points="75.7,284.1 62.9,279.9 63,285.3 73.6,288.7 				"/>
			</g>
			<g>
				<polygon class="st2" points="115.2,284.7 101.8,282.8 103,288.1 114,289.6 				"/>
				<polygon class="st13" points="115.2,284.7 101.8,282.8 103,288.1 114,289.6 				"/>
			</g>
			<path class="st8" d="M95.7,224.6c0.5-1.6,1-3.2,1.4-4.7c2.6-8.8,4.3-16.7,6.3-23.8v0l1-13.1c0,0-6.5-14.4-4.1-24.5
				c-0.2,0.6-4.5,11.6-2.8,22.6C97.5,181,98.3,200.9,95.7,224.6z"/>
			<g>
				<path class="st10" d="M94.8,79.2c0.1,0.1,0.2,0.1,0.3,0.1c1.2,0.7,2.6,1.3,4.2,1.4c4.3,0.4,7-0.5,8.6-2.6c0,0,0,0,0,0
					c2.2-3.1,2.2-8.2,1.1-14.1c-0.5-2.7-1.2-5.1-2.2-6.8c0,0,0-0.1,0-0.1c0-0.1-0.1-0.2-0.1-0.2c-1.5-2.5-3.6-3.9-6.7-4.2
					c-1.1-0.1-2.3-0.1-3.6,0.1C84.6,54.1,85,73.7,94.8,79.2z"/>
				<path class="st8" d="M95.1,79.3c1.2,0.7,2.6,1.1,4.1,1.2c4.3,0.4,7-0.7,8.6-2.8c-2,0.7-4.7,1.2-7.5,0.4
					C98.5,77.6,96.7,78.2,95.1,79.3z"/>
				<path class="st10" d="M94.2,88.9c-1,3.3,3.1,5.1,3.1,5.1c7.4-2.3,9.1-6,9.1-6c-5.6-3.7-3-12.2-3-12.2l-1.3,0.5l-8.6,0.8
					c0,0,1.9,4.7,2.1,5.8c0,0,0,0,0,0C96.7,88.4,94.2,88.9,94.2,88.9z"/>
				<path class="st12" d="M106.7,57.1c0,0,1.7,8.1-5.6,12.6c0,0-2.2,8.9-7.1,9.7c-6.7,1-13.8-7.7-12.7-17.7
					C82.6,48.7,101.5,45.2,106.7,57.1z"/>
				<path class="st10" d="M104.7,66.9c-0.2-1.3-1.5-3.3-3.4-2.7c-2,0.6-2.5,5.8,2.7,6.3C104.8,70.4,105.1,69.5,104.7,66.9z"/>
			</g>
			<path class="st12" d="M111.5,297.6h-7.1c-0.3,0-0.6,0.2-0.6,0.5l-1.5,6.6c-0.1,0.6,0.3,1.2,0.8,1.3c0.1,0,0.2,0,0.2,0
				c2.9,0,3.1-0.2,6.8-0.2c2.3,0,9,0.2,12.2,0.2s3.5-3.1,2.2-3.4c-5.7-1.2-10-3-11.8-4.6C112.4,297.8,111.9,297.6,111.5,297.6z"/>
			<path class="st2" d="M112,298.6c-0.1,0-0.1-0.1-0.1-0.2c0-0.1,0-0.1,0.1-0.2c0.3-0.2,2.7-1.6,3.5-1.2c0.2,0.1,0.3,0.3,0.3,0.5
				c0,0.4-0.1,0.7-0.4,0.9c-0.4,0.3-0.9,0.4-1.4,0.4C113.3,298.9,112.6,298.8,112,298.6z M112.5,298.4c0.9,0.3,1.8,0.2,2.6-0.1
				c0.2-0.2,0.3-0.4,0.2-0.6c0-0.1-0.1-0.2-0.1-0.2c-0.1,0-0.1-0.1-0.2,0C114.1,297.5,113.3,297.9,112.5,298.4z"/>
			<path class="st2" d="M111.9,298.7c-0.1,0-0.1-0.1-0.1-0.2c0-0.1,0.2-2.2,1-2.9c0.2-0.2,0.5-0.3,0.7-0.2c0.3,0,0.5,0.2,0.6,0.5
				c0.2,0.8-1.3,2.4-2.1,2.8L111.9,298.7C112,298.7,112,298.7,111.9,298.7z M113.1,295.8c-0.5,0.7-0.8,1.5-0.9,2.3
				c0.8-0.6,1.7-1.8,1.6-2.3c0,0,0-0.2-0.3-0.2h-0.1C113.4,295.6,113.2,295.7,113.1,295.8z"/>
			<path class="st12" d="M69,297.6h-7.1c-0.3,0-0.6,0.2-0.6,0.5l-1.5,6.6c-0.1,0.6,0.3,1.2,0.8,1.3c0.1,0,0.2,0,0.2,0
				c2.9,0,3.1-0.2,6.8-0.2c2.3,0,9,0.2,12.2,0.2s3.5-3.1,2.2-3.4c-5.7-1.2-10-3-11.8-4.6C69.9,297.8,69.5,297.6,69,297.6z"/>
			<path class="st2" d="M69.5,298.6c-0.1,0-0.1-0.1-0.1-0.2c0-0.1,0-0.1,0.1-0.2c0.3-0.2,2.7-1.6,3.5-1.2c0.2,0.1,0.3,0.3,0.3,0.5
				c0,0.4-0.1,0.7-0.4,0.9c-0.4,0.3-0.9,0.4-1.4,0.4C70.8,298.9,70.2,298.8,69.5,298.6z M70,298.4c0.9,0.3,1.8,0.2,2.6-0.1
				c0.2-0.2,0.3-0.4,0.2-0.6c0-0.1-0.1-0.2-0.1-0.2c-0.1,0-0.1-0.1-0.2,0C71.7,297.5,70.8,297.9,70,298.4z"/>
			<path class="st2" d="M69.5,298.7c-0.1,0-0.1-0.1-0.1-0.2c0-0.1,0.2-2.2,1-2.9c0.2-0.2,0.5-0.3,0.7-0.2c0.3,0,0.5,0.2,0.6,0.5
				c0.2,0.8-1.3,2.4-2.1,2.8L69.5,298.7C69.6,298.7,69.5,298.7,69.5,298.7z M70.7,295.8c-0.5,0.7-0.8,1.5-0.9,2.3
				c0.8-0.6,1.7-1.8,1.6-2.3c0,0,0-0.2-0.3-0.2h-0.1C70.9,295.6,70.8,295.7,70.7,295.8z"/>
			<g>
				<defs>
					<path id="XMLID_1_" d="M121.2,136.8c0,0,5.8-35.4-4.2-51.3c0,0-20-1.2-34,6.9c0,0,5.8,15.8,6.7,44.5H121.2z"/>
				</defs>
				<use xlink:href="#XMLID_1_"  style="overflow:visible;fill:#407BFF;"/>
				<clipPath id="XMLID_00000076590757388995849350000014185461489659023496_">
					<use xlink:href="#XMLID_1_"  style="overflow:visible;"/>
				</clipPath>
				
					<path style="opacity:0.1;clip-path:url(#XMLID_00000076590757388995849350000014185461489659023496_);enable-background:new    ;" d="
					M123.1,109.7c0.4-4.8-1-9.4-1.2-13.5c-3.7-3.1-6.6-7.5-6.6-7.5S113.5,103,123.1,109.7z"/>
			</g>
			<path class="st2" d="M114.6,85.4c0,0,19.8-2.3,22.8-3.6c1.9-0.8,16.4-10.3,16.4-10.3l3.4,5.1c0,0-14.9,12-17.4,13.4
				c-5.9,3.2-19.2,7.8-19.2,7.8S112.6,92.3,114.6,85.4z"/>
			<path class="st12" d="M106.4,62.4c0,0,8.2-8.2,0.5-13.8c-7.8-5.5-15.6,1.7-15.6,1.7s-18.6,4.5-14.6,16.8
				c4,12.3,6.5,13.4,0.7,19.7s-11.9,15.7-5.9,21.7c6,6,27-0.2,33.4-9.2C111.3,90.4,100,70.9,106.4,62.4z"/>
			<g>
				<polygon points="89.7,136.8 89.6,133.4 121.6,134.2 121.6,137.4 				"/>
				<rect x="98.6" y="133.7" class="st12" width="1.3" height="3.3"/>
				<rect x="113.5" y="134" class="st12" width="1.1" height="3.6"/>
				<rect x="90.5" y="133.5" class="st12" width="1.1" height="3.9"/>
			</g>
		</g>
	</g>
</g>
</svg>
