<svg xmlns="http://www.w3.org/2000/svg" width="10.367" height="21.608" viewBox="0 0 10.367 21.608">
  <g id="_9073189_drag_vertical_icon" data-name="9073189_drag_vertical_icon" transform="translate(-4.5 -1.5)">
    <path id="Path_3" data-name="Path 3" d="M9.937,3.873a.937.937,0,1,1,.937-.937A.937.937,0,0,1,9.937,3.873Z" transform="translate(3.494)" fill="#005da3" stroke="#005da3" stroke-width="1"/>
    <path id="Path_4" data-name="Path 4" d="M9.937,8.873a.937.937,0,1,1,.937-.937A.937.937,0,0,1,9.937,8.873Z" transform="translate(3.494 4.367)" fill="#005da3" stroke="#005da3" stroke-width="1"/>
    <path id="Path_5" data-name="Path 5" d="M9.937,13.873a.937.937,0,1,1,.937-.937A.937.937,0,0,1,9.937,13.873Z" transform="translate(3.494 8.735)" fill="#005da3" stroke="#005da3" stroke-width="1"/>
    <path id="Path_6" data-name="Path 6" d="M5.937,3.873a.937.937,0,1,1,.937-.937A.937.937,0,0,1,5.937,3.873Z" fill="#005da3" stroke="#005da3" stroke-width="1"/>
    <path id="Path_7" data-name="Path 7" d="M5.937,8.873a.937.937,0,1,1,.937-.937A.937.937,0,0,1,5.937,8.873Z" transform="translate(0 4.367)" fill="#005da3" stroke="#005da3" stroke-width="1"/>
    <path id="Path_8" data-name="Path 8" d="M5.937,13.873a.937.937,0,1,1,.937-.937A.937.937,0,0,1,5.937,13.873Z" transform="translate(0 8.735)" fill="#005da3" stroke="#005da3" stroke-width="1"/>
  </g>
</svg>
