<svg xmlns="http://www.w3.org/2000/svg" width="18.001" height="18" viewBox="0 0 18.001 18">
  <g id="Group_6" data-name="Group 6" transform="translate(-1320.323 -134.387)">
    <g id="Group_28" data-name="Group 28" transform="translate(245.323 -435.613)">
      <g id="Rectangle_12" data-name="Rectangle 12" transform="translate(1075 570)" fill="none" stroke="#005da3" stroke-width="1">
        <rect width="18" height="18" stroke="none"/>
        <rect x="0.5" y="0.5" width="17" height="17" fill="none"/>
      </g>
      <line id="Line_9" data-name="Line 9" x2="4" transform="translate(1085 583)" fill="none" stroke="#005da3" stroke-linecap="round" stroke-linejoin="round" stroke-width="1"/>
    </g>
    <path id="Subtraction_1" data-name="Subtraction 1" d="M6,9.21V-7H23.045L6,9.208Zm4.091-10.4h0L10.069.083a.624.624,0,0,0,1.247,0V-1.186l1.247.022a.624.624,0,0,0,.623-.624.624.624,0,0,0-.623-.623H11.317V-3.659a.624.624,0,0,0-.624-.624.624.624,0,0,0-.624.624l.023,1.247H8.823a.624.624,0,0,0-.624.623.624.624,0,0,0,.624.624l1.268-.022Z" transform="translate(1315.279 142.282)" fill="#005da3"/>
  </g>
</svg>
