<svg xmlns="http://www.w3.org/2000/svg" width="65.508" height="57.508" viewBox="0 0 65.508 57.508">
  <g id="Group_9" data-name="Group 9" transform="translate(-960 -520.043)">
    <g id="Group_8" data-name="Group 8">
      <g id="Group_7" data-name="Group 7">
        <g id="_1904675_configuration_edit_gear_options_preferences_icon_1_" data-name="1904675_configuration_edit_gear_options_preferences_icon (1)" transform="translate(1000.384 552.426)">
          <path id="Path_1" data-name="Path 1" d="M43.81,39a4.81,4.81,0,1,0,4.81,4.81A4.81,4.81,0,0,0,43.81,39Zm0,8.465a3.655,3.655,0,1,1,3.655-3.655A3.655,3.655,0,0,1,43.81,47.465Z" transform="translate(-31.497 -31.497)" fill="#005da3" stroke="#005da3" stroke-width="1"/>
          <path id="Path_2" data-name="Path 2" d="M23.278,9.234H21.56a.192.192,0,0,1-.181-.131,9.6,9.6,0,0,0-.385-.933.192.192,0,0,1,.035-.221l1.214-1.216a1.347,1.347,0,0,0,0-1.9L19.794,2.382a1.347,1.347,0,0,0-1.9,0L16.676,3.6a.192.192,0,0,1-.221.035,9.572,9.572,0,0,0-.933-.385.192.192,0,0,1-.131-.181V1.347A1.347,1.347,0,0,0,14.044,0H10.581A1.347,1.347,0,0,0,9.234,1.347V3.065a.192.192,0,0,1-.131.181,9.6,9.6,0,0,0-.933.385A.192.192,0,0,1,7.949,3.6L6.733,2.382a1.347,1.347,0,0,0-1.9,0L2.382,4.831a1.347,1.347,0,0,0,0,1.9L3.6,7.949a.192.192,0,0,1,.035.221,9.573,9.573,0,0,0-.385.933.192.192,0,0,1-.181.131H1.347A1.347,1.347,0,0,0,0,10.581v3.463a1.347,1.347,0,0,0,1.347,1.347H3.065a.192.192,0,0,1,.181.131,9.6,9.6,0,0,0,.385.933.192.192,0,0,1-.035.221L2.382,17.891a1.347,1.347,0,0,0,0,1.9l2.449,2.449a1.347,1.347,0,0,0,1.9,0l1.214-1.214A.192.192,0,0,1,8.17,21a9.573,9.573,0,0,0,.933.385.192.192,0,0,1,.131.181v1.716a1.347,1.347,0,0,0,1.347,1.347h3.463a1.347,1.347,0,0,0,1.347-1.347V21.56a.192.192,0,0,1,.131-.181,9.6,9.6,0,0,0,.933-.385.192.192,0,0,1,.221.035l1.216,1.214a1.347,1.347,0,0,0,1.9,0l2.449-2.449a1.347,1.347,0,0,0,0-1.9l-1.214-1.214A.192.192,0,0,1,21,16.454a9.572,9.572,0,0,0,.385-.933.192.192,0,0,1,.181-.131h1.716a1.347,1.347,0,0,0,1.347-1.347V10.581a1.347,1.347,0,0,0-1.347-1.347Zm.192,4.81a.192.192,0,0,1-.192.192H21.56a1.347,1.347,0,0,0-1.27.9,8.446,8.446,0,0,1-.339.82,1.347,1.347,0,0,0,.26,1.539l1.214,1.214a.192.192,0,0,1,0,.271l-2.447,2.445a.192.192,0,0,1-.271,0l-1.214-1.214a1.347,1.347,0,0,0-1.539-.26,8.441,8.441,0,0,1-.821.339,1.347,1.347,0,0,0-.9,1.27v1.716a.192.192,0,0,1-.192.192H10.581a.192.192,0,0,1-.192-.192V21.56a1.347,1.347,0,0,0-.9-1.27,8.446,8.446,0,0,1-.82-.339,1.347,1.347,0,0,0-1.539.26L5.914,21.426a.192.192,0,0,1-.271,0L3.2,18.978a.192.192,0,0,1,0-.271l1.214-1.214a1.347,1.347,0,0,0,.26-1.539,8.442,8.442,0,0,1-.339-.821,1.347,1.347,0,0,0-1.268-.9H1.347a.192.192,0,0,1-.192-.192V10.581a.192.192,0,0,1,.192-.192H3.065a1.347,1.347,0,0,0,1.27-.9,8.445,8.445,0,0,1,.339-.82,1.347,1.347,0,0,0-.26-1.539L3.2,5.914a.192.192,0,0,1,0-.271L5.646,3.2a.192.192,0,0,1,.271,0L7.132,4.411a1.347,1.347,0,0,0,1.539.26,8.442,8.442,0,0,1,.821-.339,1.347,1.347,0,0,0,.9-1.268V1.347a.192.192,0,0,1,.192-.192h3.463a.192.192,0,0,1,.192.192V3.065a1.347,1.347,0,0,0,.9,1.27,8.446,8.446,0,0,1,.82.339,1.347,1.347,0,0,0,1.539-.26L18.711,3.2a.192.192,0,0,1,.271,0l2.449,2.449a.192.192,0,0,1,0,.271L20.217,7.134a1.347,1.347,0,0,0-.26,1.539,8.442,8.442,0,0,1,.339.821,1.347,1.347,0,0,0,1.27.9h1.712a.192.192,0,0,1,.192.192Z" transform="translate(0)" fill="#005da3" stroke="#005da3" stroke-width="1"/>
        </g>
        <path id="Subtraction_2" data-name="Subtraction 2" d="M41.965,54.7H9.876a9.876,9.876,0,0,1-9.86-9.315L0,44.822V21.585a6.84,6.84,0,0,1,2.912-5.6l.431-.279L29.223.32A2.28,2.28,0,0,1,31.235.163l.317.157,25.88,15.388a6.842,6.842,0,0,1,3.324,5.363l.019.513V32.829a14.888,14.888,0,0,0-4.558-1.275V24.036L31.441,36.967a2.278,2.278,0,0,1-1.768.143l-.339-.143L4.558,24.036V44.822a5.343,5.343,0,0,0,4.882,5.3l.436.018h30.08A14.889,14.889,0,0,0,41.964,54.7ZM30.388,4.93,5.8,19.548l24.59,12.828,24.583-12.83Z" transform="translate(960 520.043)" fill="#005da3"/>
        <g id="_211625_at_icon" data-name="211625_at_icon" transform="translate(948.612 498.841)">
          <path id="Path_8" data-name="Path 8" d="M46.642,45.021a7.4,7.4,0,0,1-2.958,1.923,10.7,10.7,0,0,1-3.614.607,9.079,9.079,0,0,1-3.308-.576,7.4,7.4,0,0,1-2.544-1.6,7.118,7.118,0,0,1-1.638-2.458A8.2,8.2,0,0,1,32,39.793a7.494,7.494,0,0,1,.635-3.093,7.718,7.718,0,0,1,1.732-2.468,8.1,8.1,0,0,1,2.569-1.642A8.336,8.336,0,0,1,40.071,32a9.4,9.4,0,0,1,2.787.417,7.222,7.222,0,0,1,2.4,1.253,6.141,6.141,0,0,1,1.67,2.09,6.537,6.537,0,0,1,.625,2.947,6.463,6.463,0,0,1-.347,2.215,4.854,4.854,0,0,1-.93,1.611,3.779,3.779,0,0,1-1.33.972,3.935,3.935,0,0,1-1.573.323,2.15,2.15,0,0,1-1.354-.4,1.227,1.227,0,0,1-.507-1h-.1a3.391,3.391,0,0,1-.972.951,2.782,2.782,0,0,1-1.607.451,2.718,2.718,0,0,1-2.218-.941,3.7,3.7,0,0,1-.781-2.447,5.271,5.271,0,0,1,.3-1.736,4.958,4.958,0,0,1,.844-1.527A4.305,4.305,0,0,1,38.276,36.1a3.527,3.527,0,0,1,1.691-.406,2.575,2.575,0,0,1,1.354.333,1.606,1.606,0,0,1,.719.816h.021l.17-.837h1.881l-.83,3.954c-.028.194-.066.41-.115.649a3.319,3.319,0,0,0-.073.67,1.178,1.178,0,0,0,.139.6.565.565,0,0,0,.538.24,1.58,1.58,0,0,0,1.364-.878,4.5,4.5,0,0,0,.538-2.361,5.531,5.531,0,0,0-.424-2.225,4.555,4.555,0,0,0-1.173-1.632,5.028,5.028,0,0,0-1.784-.993,7.346,7.346,0,0,0-2.26-.333,6.2,6.2,0,0,0-2.44.469A5.562,5.562,0,0,0,35.7,35.461,5.889,5.889,0,0,0,34.485,37.4a6.956,6.956,0,0,0,.017,4.9A5.41,5.41,0,0,0,35.78,44.2a5.57,5.57,0,0,0,1.965,1.2,8.028,8.028,0,0,0,5.46-.128,8.111,8.111,0,0,0,2.27-1.507Zm-6.613-7.606a1.423,1.423,0,0,0-.889.292,2.541,2.541,0,0,0-.646.743,3.817,3.817,0,0,0-.4.993,4.329,4.329,0,0,0-.139,1.045,2.989,2.989,0,0,0,.052.535,1.4,1.4,0,0,0,.212.524,1.194,1.194,0,0,0,1.09.552,1.647,1.647,0,0,0,.972-.281,2.262,2.262,0,0,0,.656-.712,3.3,3.3,0,0,0,.371-.93,4.158,4.158,0,0,0,.115-.92,3.508,3.508,0,0,0-.062-.66,1.758,1.758,0,0,0-.222-.587,1.247,1.247,0,0,0-.434-.427A1.266,1.266,0,0,0,40.029,37.415Z" fill="#005da3"/>
        </g>
      </g>
    </g>
  </g>
</svg>
