<svg xmlns="http://www.w3.org/2000/svg" width="54" height="45" viewBox="0 0 54 45">
  <g id="Group_31" data-name="Group 31" transform="translate(-1288 -393)">
    <g id="Rectangle_40" data-name="Rectangle 40" transform="translate(1288 393)" fill="none" stroke="#000" stroke-width="2">
      <rect width="54" height="45" stroke="none"/>
      <rect x="1" y="1" width="52" height="43" fill="none"/>
    </g>
    <g id="Rectangle_42" data-name="Rectangle 42" transform="translate(1292 397)" fill="none" stroke="#000" stroke-width="2">
      <rect width="20" height="6" stroke="none"/>
      <rect x="1" y="1" width="18" height="4" fill="none"/>
    </g>
    <g id="Rectangle_48" data-name="Rectangle 48" transform="translate(1292 407)" fill="none" stroke="#000" stroke-width="2">
      <rect width="20" height="6" stroke="none"/>
      <rect x="1" y="1" width="18" height="4" fill="none"/>
    </g>
    <g id="Rectangle_49" data-name="Rectangle 49" transform="translate(1292 417)" fill="none" stroke="#000" stroke-width="2">
      <rect width="20" height="6" stroke="none"/>
      <rect x="1" y="1" width="18" height="4" fill="none"/>
    </g>
    <g id="Rectangle_50" data-name="Rectangle 50" transform="translate(1292 427)" fill="none" stroke="#000" stroke-width="2">
      <rect width="20" height="6" stroke="none"/>
      <rect x="1" y="1" width="18" height="4" fill="none"/>
    </g>
    <g id="_1348652_click_cursor_finger_gesture_hand_icon" data-name="1348652_click_cursor_finger_gesture_hand_icon" transform="translate(1301.171 411.316) rotate(-30)">
      <g id="Group_26" data-name="Group 26" transform="translate(14.091 17.577)">
        <path id="Path_22" data-name="Path 22" d="M16.3,21.3" transform="translate(-16.3 -21.3)" stroke="#000" stroke-width="1"/>
      </g>
      <g id="Group_27" data-name="Group 27" transform="translate(6.503 4.786)">
        <path id="Path_23" data-name="Path 23" d="M25.942,14.788v6.429a5.765,5.765,0,0,1-1.549,3.95v.7a2.33,2.33,0,0,1-2.324,2.324H15.563a2.33,2.33,0,0,1-2.324-2.324.775.775,0,1,1,1.549,0,.776.776,0,0,0,.775.775h6.506a.776.776,0,0,0,.775-.775V24.625c0-.077.077-.155.155-.232a4.342,4.342,0,0,0,1.317-3.1V14.866a.7.7,0,0,0-.232-.542.917.917,0,0,0-.775-.232.934.934,0,0,0-.62.852V16.8a.775.775,0,0,1-1.549,0v-4.26a.794.794,0,0,0-.775-.775.833.833,0,0,0-.775.775V16.8a.775.775,0,0,1-1.549,0V10.219a.794.794,0,0,0-.775-.775.833.833,0,0,0-.775.775V16.8a.775.775,0,0,1-1.549,0V7.043a.7.7,0,0,0-.232-.542.917.917,0,0,0-.775-.232.934.934,0,0,0-.62.852V16.57a.677.677,0,0,1-.465.7A.707.707,0,0,1,12,17.112L9.986,15.1a1.153,1.153,0,0,0-1.7.077A1.207,1.207,0,0,0,8.437,16.8l5.422,5.422a.749.749,0,0,1,0,1.084.837.837,0,0,1-.542.232.7.7,0,0,1-.542-.232l-5.422-5.5a2.755,2.755,0,0,1-.232-3.718,2.847,2.847,0,0,1,2.091-1.007,3.056,3.056,0,0,1,1.936.775l.7.7V7.2a2.331,2.331,0,0,1,1.781-2.324,2.086,2.086,0,0,1,2.169.62,2.229,2.229,0,0,1,.7,1.627V8.05a2.752,2.752,0,0,1,.775-.155,2.382,2.382,0,0,1,2.324,2.324v.155a2.752,2.752,0,0,1,.775-.155,2.382,2.382,0,0,1,2.324,2.324V12.7c.077,0,.155-.077.232-.077a2.086,2.086,0,0,1,2.169.62A1.8,1.8,0,0,1,25.942,14.788Z" transform="translate(-6.503 -4.786)" stroke="#000" stroke-width="1"/>
      </g>
    </g>
  </g>
</svg>
