<svg xmlns="http://www.w3.org/2000/svg" width="59" height="45" viewBox="0 0 59 45">
  <g id="Group_30" data-name="Group 30" transform="translate(-1217 -455)">
    <g id="Rectangle_39" data-name="Rectangle 39" transform="translate(1217 455)" fill="none" stroke="#000" stroke-width="1">
      <rect width="59" height="12" stroke="none"/>
      <rect x="0.5" y="0.5" width="58" height="11" fill="none"/>
    </g>
    <g id="Rectangle_40" data-name="Rectangle 40" transform="translate(1220 466)" fill="none" stroke="#000" stroke-width="1">
      <rect width="54" height="34" stroke="none"/>
      <rect x="0.5" y="0.5" width="53" height="33" fill="none"/>
    </g>
    <g id="Rectangle_41" data-name="Rectangle 41" transform="translate(1236 471)" fill="#fff" stroke="#000" stroke-width="1">
      <rect width="1" height="24" stroke="none"/>
      <rect x="0.5" y="0.5" height="23" fill="none"/>
    </g>
    <g id="Rectangle_42" data-name="Rectangle 42" transform="translate(1223 471)" fill="none" stroke="#000" stroke-width="1">
      <rect width="11" height="4" stroke="none"/>
      <rect x="0.5" y="0.5" width="10" height="3" fill="none"/>
    </g>
    <g id="Rectangle_43" data-name="Rectangle 43" transform="translate(1223 476)" fill="none" stroke="#000" stroke-width="1">
      <rect width="11" height="4" stroke="none"/>
      <rect x="0.5" y="0.5" width="10" height="3" fill="none"/>
    </g>
    <g id="Rectangle_44" data-name="Rectangle 44" transform="translate(1223 481)" fill="none" stroke="#000" stroke-width="1">
      <rect width="11" height="4" stroke="none"/>
      <rect x="0.5" y="0.5" width="10" height="3" fill="none"/>
    </g>
    <g id="Rectangle_45" data-name="Rectangle 45" transform="translate(1223 486)" fill="none" stroke="#000" stroke-width="1">
      <rect width="11" height="4" stroke="none"/>
      <rect x="0.5" y="0.5" width="10" height="3" fill="none"/>
    </g>
    <g id="Rectangle_46" data-name="Rectangle 46" transform="translate(1223 491)" fill="none" stroke="#000" stroke-width="1">
      <rect width="11" height="4" stroke="none"/>
      <rect x="0.5" y="0.5" width="10" height="3" fill="none"/>
    </g>
    <g id="Rectangle_47" data-name="Rectangle 47" transform="translate(1256 473)" fill="none" stroke="#0a0a0a" stroke-width="1">
      <rect width="12" height="12" stroke="none"/>
      <rect x="0.5" y="0.5" width="11" height="11" fill="none"/>
    </g>
    <g id="Ellipse_1" data-name="Ellipse 1" transform="translate(1241 476)" fill="none" stroke="#0a0a0a" stroke-width="1">
      <circle cx="9.5" cy="9.5" r="9.5" stroke="none"/>
      <circle cx="9.5" cy="9.5" r="9" fill="none"/>
    </g>
    <g id="_1348652_click_cursor_finger_gesture_hand_icon" data-name="1348652_click_cursor_finger_gesture_hand_icon" transform="translate(1236.171 484.171) rotate(-30)">
      <g id="Group_26" data-name="Group 26" transform="translate(11.238 12.767)">
        <path id="Path_22" data-name="Path 22" d="M16.3,21.3" transform="translate(-16.3 -21.3)"/>
      </g>
      <g id="Group_27" data-name="Group 27" transform="translate(6.503 4.786)">
        <path id="Path_23" data-name="Path 23" d="M18.632,11.027v4.011a3.6,3.6,0,0,1-.967,2.465v.435a1.454,1.454,0,0,1-1.45,1.45H12.156a1.454,1.454,0,0,1-1.45-1.45.483.483,0,0,1,.967,0,.484.484,0,0,0,.483.483h4.059a.484.484,0,0,0,.483-.483v-.773c0-.048.048-.1.1-.145a2.709,2.709,0,0,0,.822-1.933V11.075a.439.439,0,0,0-.145-.338.572.572,0,0,0-.483-.145.583.583,0,0,0-.387.532v1.16a.483.483,0,0,1-.967,0V9.625a.5.5,0,0,0-.483-.483.52.52,0,0,0-.483.483v2.658a.483.483,0,0,1-.967,0V8.176a.5.5,0,0,0-.483-.483.52.52,0,0,0-.483.483v4.108a.483.483,0,0,1-.967,0V6.194a.439.439,0,0,0-.145-.338.572.572,0,0,0-.483-.145.583.583,0,0,0-.387.532v5.9a.423.423,0,0,1-.29.435.441.441,0,0,1-.532-.1L8.676,11.22a.719.719,0,0,0-1.063.048.753.753,0,0,0,.1,1.015l3.383,3.383a.467.467,0,0,1,0,.677.522.522,0,0,1-.338.145.439.439,0,0,1-.338-.145L7.033,12.911a1.719,1.719,0,0,1-.145-2.32,1.776,1.776,0,0,1,1.3-.628,1.907,1.907,0,0,1,1.208.483l.435.435V6.291a1.454,1.454,0,0,1,1.112-1.45,1.3,1.3,0,0,1,1.353.387,1.391,1.391,0,0,1,.435,1.015v.58a1.717,1.717,0,0,1,.483-.1,1.486,1.486,0,0,1,1.45,1.45v.1a1.717,1.717,0,0,1,.483-.1,1.486,1.486,0,0,1,1.45,1.45v.1c.048,0,.1-.048.145-.048a1.3,1.3,0,0,1,1.353.387A1.12,1.12,0,0,1,18.632,11.027Z" transform="translate(-6.503 -4.786)"/>
      </g>
    </g>
  </g>
</svg>
