<svg xmlns="http://www.w3.org/2000/svg" width="168.26" height="206" viewBox="0 0 168.26 206">
  <g id="Group_5" data-name="Group 5" transform="translate(-100.938 -68)">
    <g id="bell" transform="translate(52.494 71)">
      <path id="Path_28" data-name="Path 28" d="M223.371,0a20.833,20.833,0,0,0-20.833,20.833,20.75,20.75,0,0,0,.275,2.983,4.167,4.167,0,0,0,4.167,3.567,4.255,4.255,0,0,0,1.175-.167,53.766,53.766,0,0,1,30.508,0,4.268,4.268,0,0,0,3.442-.625A4.45,4.45,0,0,0,244,23.558a18.855,18.855,0,0,0,.25-2.733A20.834,20.834,0,0,0,223.4,0Z" transform="translate(-90.816 -3)" fill="#1e81ce"/>
      <path id="Path_29" data-name="Path 29" d="M235.371,426.667h-50a4.167,4.167,0,0,0-4.167,4.167,29.167,29.167,0,1,0,58.333,0A4.166,4.166,0,0,0,235.371,426.667Z" transform="translate(-76.816 -257)" fill="#1e81ce"/>
      <path id="Path_30" data-name="Path 30" d="M210.23,177.884c-1.317-2.908-2.975-6.158-4.808-9.742a135.665,135.665,0,0,1-18.7-62.833c0-33.025-17.5-57.258-44.567-61.733A53.275,53.275,0,0,0,98.3,56.359a58.508,58.508,0,0,0-20,46,133.059,133.059,0,0,1-18.6,65.9c-1.792,3.533-3.425,6.75-4.725,9.617a16.467,16.467,0,0,0,15.075,23.267H195.188a16.466,16.466,0,0,0,15.05-23.258h-.008Z" transform="translate(0 -26.143)" fill="none" stroke="#007aff" stroke-width="10"/>
      <path id="Path_31" data-name="Path 31" d="M107.142,210.333a4.167,4.167,0,0,1-3.725-6.033l1.342-2.633a152.667,152.667,0,0,0,20.442-70.5c0-21.142,9.825-45.833,37.5-45.833a4.167,4.167,0,0,1,0,8.334c-27.067,0-29.167,28.7-29.167,37.5a159.745,159.745,0,0,1-21.358,74.292l-1.3,2.575A4.167,4.167,0,0,1,107.142,210.333Z" transform="translate(-30.146 -52)" fill="#9bc9ff"/>
    </g>
  </g>
</svg>
