<svg xmlns="http://www.w3.org/2000/svg" width="192.365" height="192.364" viewBox="0 0 192.365 192.364">
  <g id="Property_master_icon" transform="translate(-590 -414)">
    <g id="settings_1_" data-name="settings (1)" transform="translate(590 413.998)">
      <path id="Path_83" data-name="Path 83" d="M194.849,114.019V90.835L177,86.388a75.825,75.825,0,0,0-10.5-25.347l9.477-15.765-16.4-16.4-15.765,9.477a75.833,75.833,0,0,0-25.347-10.5L114.017,10H90.833l-4.447,17.85a75.826,75.826,0,0,0-25.347,10.5L45.273,28.88l-16.4,16.4L38.354,61.04a75.833,75.833,0,0,0-10.5,25.347L10,90.834v23.184l17.85,4.447a75.825,75.825,0,0,0,10.5,25.347l-9.477,15.765,16.4,16.4L61.038,166.5A75.833,75.833,0,0,0,86.386,177l4.447,17.851h23.184L118.463,177a75.825,75.825,0,0,0,25.347-10.5l15.765,9.477,16.4-16.4-9.477-15.765A75.833,75.833,0,0,0,177,118.466Z" transform="translate(-6.243 -6.243)" fill="#fff"/>
      <circle id="Ellipse_8" data-name="Ellipse 8" cx="52.5" cy="52.5" r="52.5" transform="translate(44 44.002)" fill="#9bc9ff"/>
      <circle id="Ellipse_9" data-name="Ellipse 9" cx="23" cy="23" r="23" transform="translate(73 73.002)" fill="#fff"/>
      <path id="Path_84" data-name="Path 84" d="M189.514,80.946,173.9,77.056a79.258,79.258,0,0,0-9.241-22.3l8.289-13.789a3.757,3.757,0,0,0-.564-4.592l-16.4-16.4a3.757,3.757,0,0,0-4.592-.564L137.608,27.7a79.254,79.254,0,0,0-22.3-9.241L111.419,2.851A3.757,3.757,0,0,0,107.774,0H84.59a3.758,3.758,0,0,0-3.646,2.849L77.055,18.464a79.271,79.271,0,0,0-22.3,9.241L40.966,19.416a3.756,3.756,0,0,0-4.592.564l-16.4,16.4a3.757,3.757,0,0,0-.564,4.592L27.7,54.757a79.254,79.254,0,0,0-9.241,22.3L2.849,80.946A3.757,3.757,0,0,0,0,84.592v23.184a3.758,3.758,0,0,0,2.849,3.646l15.613,3.889a79.249,79.249,0,0,0,9.241,22.3L19.414,151.4a3.757,3.757,0,0,0,.564,4.592l16.4,16.4a3.757,3.757,0,0,0,4.592.564l13.789-8.289a79.275,79.275,0,0,0,22.3,9.241l3.889,15.613a3.757,3.757,0,0,0,3.646,2.849h23.184a3.758,3.758,0,0,0,3.646-2.849l3.89-15.613a79.257,79.257,0,0,0,22.3-9.241l13.789,8.289a3.757,3.757,0,0,0,4.592-.564l16.4-16.4a3.757,3.757,0,0,0,.564-4.592l-8.289-13.789a79.259,79.259,0,0,0,9.241-22.3l15.613-3.889a3.757,3.757,0,0,0,2.849-3.646V84.591A3.76,3.76,0,0,0,189.514,80.946Zm-4.665,23.894-15,3.737a3.756,3.756,0,0,0-2.766,2.859,71.865,71.865,0,0,1-9.984,24.092,3.757,3.757,0,0,0-.066,3.977L165,152.754,152.752,165,139.5,157.034a3.756,3.756,0,0,0-3.977.066,71.867,71.867,0,0,1-24.092,9.984,3.756,3.756,0,0,0-2.859,2.766l-3.737,15H87.526l-3.737-15a3.756,3.756,0,0,0-2.859-2.766A71.864,71.864,0,0,1,56.837,157.1a3.756,3.756,0,0,0-3.977-.066L39.611,165,27.367,152.754l7.964-13.249a3.757,3.757,0,0,0-.066-3.977,71.865,71.865,0,0,1-9.984-24.092,3.756,3.756,0,0,0-2.766-2.859l-15-3.738V87.528l15-3.737a3.757,3.757,0,0,0,2.766-2.859,71.865,71.865,0,0,1,9.984-24.092,3.757,3.757,0,0,0,.066-3.977L27.367,39.613,39.611,27.369,52.86,35.333a3.757,3.757,0,0,0,3.977-.066,71.859,71.859,0,0,1,24.092-9.984,3.756,3.756,0,0,0,2.859-2.766l3.737-15h17.312l3.737,15a3.757,3.757,0,0,0,2.859,2.766,71.865,71.865,0,0,1,24.092,9.984,3.757,3.757,0,0,0,3.977.066l13.249-7.964L165,39.613l-7.964,13.249a3.757,3.757,0,0,0,.066,3.977,71.865,71.865,0,0,1,9.984,24.092,3.756,3.756,0,0,0,2.766,2.859l15,3.737Z" fill="#1e81ce"/>
      <path id="Path_85" data-name="Path 85" d="M162.356,106a55.8,55.8,0,0,0-24.961,5.816,3.757,3.757,0,0,0,3.332,6.735,48.355,48.355,0,0,1,21.628-5.036,48.82,48.82,0,1,1-42.068,24.01,3.757,3.757,0,1,0-6.467-3.827A56.363,56.363,0,1,0,162.356,106Z" transform="translate(-66.175 -66.175)" fill="#1e81ce"/>
      <path id="Path_86" data-name="Path 86" d="M211.051,184A27.051,27.051,0,1,0,238.1,211.053,27.082,27.082,0,0,0,211.051,184Zm0,46.588a19.537,19.537,0,1,1,19.537-19.537A19.559,19.559,0,0,1,211.051,230.59Z" transform="translate(-114.869 -114.869)" fill="#1e81ce"/>
      <path id="Path_87" data-name="Path 87" d="M154.347,151.076a3.758,3.758,0,1,0-2.656-1.1A3.786,3.786,0,0,0,154.347,151.076Z" transform="translate(-94.012 -89.623)" fill="#1e81ce"/>
    </g>
  </g>
</svg>
