<svg xmlns="http://www.w3.org/2000/svg" width="22.363" height="13.534" viewBox="0 0 22.363 13.534">
  <g id="Group_12" data-name="Group 12" transform="translate(-998.405 -486.276)">
    <g id="Group_11" data-name="Group 11">
      <path id="Subtraction_4" data-name="Subtraction 4" d="M13.615,13.234H11.65a.745.745,0,0,1-.764-.724v-.923a.1.1,0,0,0-.074-.1,5.589,5.589,0,0,1-.53-.207.117.117,0,0,0-.049-.011.112.112,0,0,0-.077.029l-.689.652a.794.794,0,0,1-1.081,0L7.369,10.99A3.643,3.643,0,0,0,7.88,10.6l.969.918a.111.111,0,0,0,.077.03A.113.113,0,0,0,9,11.515l.689-.652a.781.781,0,0,1,.54-.212.8.8,0,0,1,.333.073,4.862,4.862,0,0,0,.465.182.728.728,0,0,1,.511.683v.923a.106.106,0,0,0,.109.1h1.963a.106.106,0,0,0,.109-.1v-.923a.729.729,0,0,1,.511-.682c.158-.053.315-.115.465-.182a.8.8,0,0,1,.333-.072.781.781,0,0,1,.54.212l.689.652a.114.114,0,0,0,.154,0L17.8,10.2a.1.1,0,0,0,0-.146L17.114,9.4a.7.7,0,0,1-.147-.827,4.252,4.252,0,0,0,.192-.44.765.765,0,0,1,.721-.485h.975a.106.106,0,0,0,.109-.1V5.689a.106.106,0,0,0-.109-.1h-.972a.763.763,0,0,1-.72-.484,4.454,4.454,0,0,0-.193-.442.7.7,0,0,1,.147-.827l.689-.652a.1.1,0,0,0,0-.146L16.416,1.719a.114.114,0,0,0-.154,0l-.689.652a.781.781,0,0,1-.54.212.8.8,0,0,1-.333-.072,4.961,4.961,0,0,0-.465-.182.728.728,0,0,1-.512-.682V.724a.106.106,0,0,0-.109-.1H11.65a.106.106,0,0,0-.109.1v.923a.728.728,0,0,1-.509.681,4.955,4.955,0,0,0-.466.182.79.79,0,0,1-.333.073.779.779,0,0,1-.54-.212L9,1.718a.113.113,0,0,0-.077-.03.111.111,0,0,0-.077.03L7.462,3.033a.1.1,0,0,0,0,.146l.689.652a.7.7,0,0,1,.147.827,4.507,4.507,0,0,0-.193.441.731.731,0,0,1-.381.409,3.678,3.678,0,0,0-.9-.545h.564a.111.111,0,0,0,.1-.07,5.148,5.148,0,0,1,.218-.5.1.1,0,0,0-.02-.119L7,3.619A.7.7,0,0,1,7,2.6L8.387,1.28a.794.794,0,0,1,1.081,0l.689.652a.113.113,0,0,0,.077.03.115.115,0,0,0,.049-.011,5.678,5.678,0,0,1,.529-.207.106.106,0,0,0,.074-.1V.724A.745.745,0,0,1,11.65,0h1.965a.745.745,0,0,1,.764.724v.923a.1.1,0,0,0,.074.1c.178.059.356.129.529.207a.114.114,0,0,0,.049.011.112.112,0,0,0,.076-.03L15.8,1.28a.794.794,0,0,1,1.081,0L18.267,2.6a.7.7,0,0,1,0,1.024l-.689.653a.1.1,0,0,0-.02.119,5.15,5.15,0,0,1,.218.5.11.11,0,0,0,.1.07h.975a.745.745,0,0,1,.764.724V7.548a.745.745,0,0,1-.764.724H17.88a.107.107,0,0,0-.1.07,4.9,4.9,0,0,1-.219.5.1.1,0,0,0,.02.119l.689.652a.7.7,0,0,1,0,1.024l-1.389,1.317a.794.794,0,0,1-1.081,0l-.69-.652a.112.112,0,0,0-.076-.03.114.114,0,0,0-.049.011c-.173.078-.351.147-.529.207a.1.1,0,0,0-.074.1v.923A.745.745,0,0,1,13.615,13.234ZM12.632,9.2A2.663,2.663,0,0,1,9.9,6.617a2.663,2.663,0,0,1,2.729-2.585,2.663,2.663,0,0,1,2.729,2.585A2.663,2.663,0,0,1,12.632,9.2Zm0-4.549a2.023,2.023,0,0,0-2.073,1.964,2.077,2.077,0,0,0,4.148,0A2.024,2.024,0,0,0,12.632,4.653Z" transform="translate(1001 486.426)" fill="#0a59a5" stroke="#0a59a5" stroke-width="0.3"/>
      <path id="_3671785_key_icon" data-name="3671785_key_icon" d="M3.169,4.805l.925.925h.819v.819h.819v.819l.819.819H8.188V6.549L4.807,3.168A2.456,2.456,0,1,0,3.169,4.805ZM1.18,2.914A1.227,1.227,0,1,1,2.915,1.178L1.18,2.914Z" transform="translate(998.406 493.872) rotate(-45)" fill="#0a59a5"/>
    </g>
  </g>
</svg>
