<svg xmlns="http://www.w3.org/2000/svg" width="52.133" height="42.051" viewBox="0 0 52.133 42.051">
  <g id="Group_1" data-name="Group 1" transform="translate(-1464 -1153)">
    <g id="Group_2" data-name="Group 2" transform="translate(1464 1153)">
      <path id="Subtraction_5" data-name="Subtraction 5" d="M32.414,42.051H5.256A5.263,5.263,0,0,1,0,36.795v-.876H8.761V5.256A5.263,5.263,0,0,1,14.017,0H36.795a5.256,5.256,0,0,1,.876,10.434v3.145H35.919V10.513h-21.9V8.761a3.5,3.5,0,1,0-3.5-3.5V36.795a5.242,5.242,0,0,1-1.349,3.5H32.414a3.5,3.5,0,0,0,3.477-3.067h1.762A5.263,5.263,0,0,1,32.414,42.051ZM1.863,37.671a3.5,3.5,0,0,0,6.786,0ZM17.924,1.752a5.226,5.226,0,0,1,0,7.008h18.87a3.5,3.5,0,1,0,0-7.008ZM24.53,37.671H12.265V35.919H24.53Zm0-4.38H12.265V31.538H24.53Zm0-4.38H12.265V27.158H24.53Zm0-4.38H12.265V22.778H24.53Zm0-4.38H12.265V18.4H24.53Zm0-4.38H12.265V14.017H24.53Z" transform="translate(0 0)"/>
    </g>
    <path id="_211748_folder_icon" data-name="211748_folder_icon" d="M119.561,114.572H106.2c-.376,0-.856-.8-1.48-1.527A2.515,2.515,0,0,0,103.08,112H98.256A2.025,2.025,0,0,0,96,113.953v18.853a2.332,2.332,0,0,0,2.256,2.339h21.305a2.159,2.159,0,0,0,2.04-2.339V116.565A1.872,1.872,0,0,0,119.561,114.572Zm-21.305-1.286h4.408a1.5,1.5,0,0,1,1.144.667c.968,1.149,1.24,1.9,2.392,1.9h13.361c.528,0,.76.177.76.707v1.864H97.28v-4.476C97.28,113.23,98.1,113.286,98.256,113.286Zm21.305,20.573H98.256a1.048,1.048,0,0,1-.976-1.053V119.715h23.041v13.091C120.321,133.288,120.113,133.859,119.561,133.859Z" transform="translate(1394.282 1054.235)" stroke="#0d0c0c" stroke-width="0.5"/>
  </g>
</svg>
