<svg xmlns="http://www.w3.org/2000/svg" width="58" height="48" viewBox="0 0 58 48">
  <g id="Group_2" data-name="Group 2" transform="translate(-332 -430)">
    <path id="Subtraction_5" data-name="Subtraction 5" d="M37,48H6a6.007,6.007,0,0,1-6-6V41H10V6a6.007,6.007,0,0,1,6-6H42a6,6,0,0,1,1,11.91V15.5H41V12H16V10a4,4,0,1,0-4-4V42a5.984,5.984,0,0,1-1.54,4H37a4,4,0,0,0,3.969-3.5h2.011A6.007,6.007,0,0,1,37,48ZM2.127,43a4,4,0,0,0,7.746,0ZM20.46,2a5.965,5.965,0,0,1,0,8H42a4,4,0,0,0,0-8ZM28,43H14V41H28v2Zm0-5H14V36H28v2Zm0-5H14V31H28v2Zm0-5H14V26H28v2Zm0-5H14V21H28v2Zm0-5H14V16H28v2Z" transform="translate(332 430)"/>
    <g id="Group_1" data-name="Group 1" transform="translate(72 9)">
      <g id="Rectangle_14" data-name="Rectangle 14" transform="translate(289 440)" fill="none" stroke="#000" stroke-width="2">
        <rect width="11" height="24" rx="3" stroke="none"/>
        <rect x="1" y="1" width="9" height="22" rx="2" fill="none"/>
      </g>
      <g id="Rectangle_19" data-name="Rectangle 19" transform="translate(307 440)" fill="none" stroke="#000" stroke-width="2">
        <rect width="11" height="24" rx="3" stroke="none"/>
        <rect x="1" y="1" width="9" height="22" rx="2" fill="none"/>
      </g>
      <g id="Rectangle_17" data-name="Rectangle 17" transform="translate(298 435)" fill="none" stroke="#000" stroke-width="2">
        <rect width="11" height="29" rx="3" stroke="none"/>
        <rect x="1" y="1" width="9" height="27" rx="2" fill="none"/>
      </g>
      <g id="Subtraction_1" data-name="Subtraction 1" transform="translate(291 444)">
        <path d="M 6.500200271606445 4.500400066375732 L 0.5000001192092896 4.500400066375732 L 0.5000001192092896 0.5000000596046448 L 3.479995489120483 0.5000000596046448 C 2.38627815246582 0.5108612775802612 1.499800086021423 1.403962016105652 1.499800086021423 2.500200033187866 C 1.499800086021423 3.602669954299927 2.397130250930786 4.499599933624268 3.500100135803223 4.499599933624268 C 4.603070259094238 4.499599933624268 5.500400066375732 3.602669954299927 5.500400066375732 2.500200033187866 C 5.500400066375732 1.403962016105652 4.613922119140625 0.5108612775802612 3.520204782485962 0.5000000596046448 L 6.500200271606445 0.5000000596046448 L 6.500200271606445 4.500400066375732 Z" stroke="none"/>
        <path d="M 6.000200271606445 4.000400066375732 L 6.000200271606445 2.532033443450928 C 5.993313312530518 3.082237005233765 5.807617664337158 3.590185880661011 5.498735904693604 4.000400066375732 L 6.000200271606445 4.000400066375732 M 1.501464486122131 4.000400066375732 C 1.192582488059998 3.590185880661011 1.006887078285217 3.082237005233765 1.00000011920929 2.532033443450928 L 1.00000011920929 4.000400066375732 L 1.501464486122131 4.000400066375732 M 6.000200271606445 2.468355178833008 L 6.000200271606445 1 L 5.499143123626709 1 C 5.807855606079102 1.410296201705933 5.99331521987915 1.918119788169861 6.000200271606445 2.468355178833008 M 1.00000011920929 2.468355178833008 C 1.006884932518005 1.918119788169861 1.192344427108765 1.410296201705933 1.501057147979736 1 L 1.00000011920929 1 L 1.00000011920929 2.468355178833008 M 7.000200271606445 5.000400066375732 L 1.358032193365943e-07 5.000400066375732 L 1.358032193365943e-07 3.318786667705353e-08 L 7.000200271606445 3.318786667705353e-08 L 7.000200271606445 5.000400066375732 Z M 3.500100135803223 0.9999000430107117 C 2.672830104827881 0.9999000430107117 1.999800086021423 1.672930002212524 1.999800086021423 2.500200033187866 C 1.999800086021423 3.326970100402832 2.672830104827881 3.999599933624268 3.500100135803223 3.999599933624268 C 4.327370166778564 3.999599933624268 5.000400066375732 3.326970100402832 5.000400066375732 2.500200033187866 C 5.000400066375732 1.672930002212524 4.327370166778564 0.9999000430107117 3.500100135803223 0.9999000430107117 Z" stroke="none" fill="#000"/>
      </g>
      <g id="Subtraction_2" data-name="Subtraction 2" transform="translate(300 444)">
        <path d="M 6.500200271606445 4.500400066375732 L 0.5000001192092896 4.500400066375732 L 0.5000001192092896 0.5000000596046448 L 3.479995489120483 0.5000000596046448 C 2.38627815246582 0.5108612775802612 1.499800086021423 1.403962016105652 1.499800086021423 2.500200033187866 C 1.499800086021423 3.602669954299927 2.397130250930786 4.499599933624268 3.500100135803223 4.499599933624268 C 4.603070259094238 4.499599933624268 5.500400066375732 3.602669954299927 5.500400066375732 2.500200033187866 C 5.500400066375732 1.403962016105652 4.613922119140625 0.5108612775802612 3.520204782485962 0.5000000596046448 L 6.500200271606445 0.5000000596046448 L 6.500200271606445 4.500400066375732 Z" stroke="none"/>
        <path d="M 6.000200271606445 4.000400066375732 L 6.000200271606445 2.532033443450928 C 5.993313312530518 3.082237005233765 5.807617664337158 3.590185880661011 5.498735904693604 4.000400066375732 L 6.000200271606445 4.000400066375732 M 1.501464486122131 4.000400066375732 C 1.192582488059998 3.590185880661011 1.006887078285217 3.082237005233765 1.00000011920929 2.532033443450928 L 1.00000011920929 4.000400066375732 L 1.501464486122131 4.000400066375732 M 6.000200271606445 2.468355178833008 L 6.000200271606445 1 L 5.499143123626709 1 C 5.807855606079102 1.410296201705933 5.99331521987915 1.918119788169861 6.000200271606445 2.468355178833008 M 1.00000011920929 2.468355178833008 C 1.006884932518005 1.918119788169861 1.192344427108765 1.410296201705933 1.501057147979736 1 L 1.00000011920929 1 L 1.00000011920929 2.468355178833008 M 7.000200271606445 5.000400066375732 L 1.358032193365943e-07 5.000400066375732 L 1.358032193365943e-07 3.318786667705353e-08 L 7.000200271606445 3.318786667705353e-08 L 7.000200271606445 5.000400066375732 Z M 3.500100135803223 0.9999000430107117 C 2.672830104827881 0.9999000430107117 1.999800086021423 1.672930002212524 1.999800086021423 2.500200033187866 C 1.999800086021423 3.326970100402832 2.672830104827881 3.999599933624268 3.500100135803223 3.999599933624268 C 4.327370166778564 3.999599933624268 5.000400066375732 3.326970100402832 5.000400066375732 2.500200033187866 C 5.000400066375732 1.672930002212524 4.327370166778564 0.9999000430107117 3.500100135803223 0.9999000430107117 Z" stroke="none" fill="#000"/>
      </g>
      <g id="Subtraction_3" data-name="Subtraction 3" transform="translate(309 444)">
        <path d="M 6.500200271606445 4.500400066375732 L 0.5000001192092896 4.500400066375732 L 0.5000001192092896 0.5000000596046448 L 3.479995489120483 0.5000000596046448 C 2.38627815246582 0.5108612775802612 1.499800086021423 1.403962016105652 1.499800086021423 2.500200033187866 C 1.499800086021423 3.602669954299927 2.397130250930786 4.499599933624268 3.500100135803223 4.499599933624268 C 4.603070259094238 4.499599933624268 5.500400066375732 3.602669954299927 5.500400066375732 2.500200033187866 C 5.500400066375732 1.403962016105652 4.613922119140625 0.5108612775802612 3.520204782485962 0.5000000596046448 L 6.500200271606445 0.5000000596046448 L 6.500200271606445 4.500400066375732 Z" stroke="none"/>
        <path d="M 6.000200271606445 4.000400066375732 L 6.000200271606445 2.532033443450928 C 5.993313312530518 3.082237005233765 5.807617664337158 3.590185880661011 5.498735904693604 4.000400066375732 L 6.000200271606445 4.000400066375732 M 1.501464486122131 4.000400066375732 C 1.192582488059998 3.590185880661011 1.006887078285217 3.082237005233765 1.00000011920929 2.532033443450928 L 1.00000011920929 4.000400066375732 L 1.501464486122131 4.000400066375732 M 6.000200271606445 2.468355178833008 L 6.000200271606445 1 L 5.499143123626709 1 C 5.807855606079102 1.410296201705933 5.99331521987915 1.918119788169861 6.000200271606445 2.468355178833008 M 1.00000011920929 2.468355178833008 C 1.006884932518005 1.918119788169861 1.192344427108765 1.410296201705933 1.501057147979736 1 L 1.00000011920929 1 L 1.00000011920929 2.468355178833008 M 7.000200271606445 5.000400066375732 L 1.358032193365943e-07 5.000400066375732 L 1.358032193365943e-07 3.318786667705353e-08 L 7.000200271606445 3.318786667705353e-08 L 7.000200271606445 5.000400066375732 Z M 3.500100135803223 0.9999000430107117 C 2.672830104827881 0.9999000430107117 1.999800086021423 1.672930002212524 1.999800086021423 2.500200033187866 C 1.999800086021423 3.326970100402832 2.672830104827881 3.999599933624268 3.500100135803223 3.999599933624268 C 4.327370166778564 3.999599933624268 5.000400066375732 3.326970100402832 5.000400066375732 2.500200033187866 C 5.000400066375732 1.672930002212524 4.327370166778564 0.9999000430107117 3.500100135803223 0.9999000430107117 Z" stroke="none" fill="#000"/>
      </g>
    </g>
  </g>
</svg>
