<svg height="512" viewBox="0 0 512 512" width="512" xmlns="http://www.w3.org/2000/svg"><g><g fill="#b3e1f5"><path d="m476 96h-117.64l-7.36 144-95 48-96-48-6.55-144h-117.45a19.994 19.994 0 0 0 -20 20v268h480v-268a19.994 19.994 0 0 0 -20-20zm-92 248h-256v-32h256z"/><path d="m303 432h-96l-8 40h113z"/><path d="m255.92 252.19 64.07-32.37 6.34-123.82.61-12.02-70.94-32.74-71.06 32.8.54 11.96 5.63 123.78z"/></g><g fill="#007aff"><path d="m476 88h-109.22l1.21-23.59a7.987 7.987 0 0 0 -4.64-7.67l-104-48a7.928 7.928 0 0 0 -6.7 0l-104 48a7.973 7.973 0 0 0 -4.64 7.62l1.07 23.64h-109.08a28.031 28.031 0 0 0 -28 28v296a28.031 28.031 0 0 0 28 28h161.24l-4.8 24h-56.44a8 8 0 0 0 -8 8v24a8 8 0 0 0 8 8h240a8 8 0 0 0 8-8v-24a8 8 0 0 0 -8-8h-57.6l-5.4-24h163a28.031 28.031 0 0 0 28-28v-296a28.031 28.031 0 0 0 -28-28zm-220-63.19 95.73 44.19-8.48 165.95-87.27 44.1-88.2-44.1-7.54-165.94zm112 455.19v8h-224v-8zm-159.24-16 4.8-24h83.04l5.4 24zm279.24-52a12.01 12.01 0 0 1 -12 12h-440a12.01 12.01 0 0 1 -12-12v-20h464zm0-36h-464v-260a12.01 12.01 0 0 1 12-12h109.81l6.2 136.36a8.012 8.012 0 0 0 4.41 6.8l96 48a8.028 8.028 0 0 0 7.19-.02l95-48a8 8 0 0 0 4.38-6.73l6.98-136.41h110.03a12.01 12.01 0 0 1 12 12z"/><path d="m187.536 226.936 64.811 32.405a8 8 0 0 0 7.186-.015l64.065-32.37a8 8 0 0 0 4.382-6.732l6.946-135.831a8 8 0 0 0 -4.637-7.673l-70.936-32.74a8.008 8.008 0 0 0 -6.706 0l-71.056 32.8a8 8 0 0 0 -4.639 7.627l6.17 135.742a8 8 0 0 0 4.414 6.787zm68.464-166.881 62.67 28.925-6.432 125.79-56.332 28.461-57.014-28.5-5.712-125.682z"/><path d="m128 352h256a8 8 0 0 0 8-8v-32a8 8 0 0 0 -8-8h-256a8 8 0 0 0 -8 8v32a8 8 0 0 0 8 8zm8-32h240v16h-240z"/></g></g></svg>