<svg xmlns="http://www.w3.org/2000/svg" width="12.377" height="18.812" viewBox="0 0 12.377 18.812">
  <g id="Group_27" data-name="Group 27" transform="translate(-1038 -564.188)">
    <path id="_7503199_filter_sort_sorting_filters_filtering_icon" data-name="7503199_filter_sort_sorting_filters_filtering_icon" d="M43.276,26.87l-4.144,5.98,0,.006a1.232,1.232,0,0,0-.232.72V36.5a.551.551,0,0,1-.26.468L36,38.611c-.211.131-.517.088-.515-.161V33.575a1.232,1.232,0,0,0-.232-.72l0-.006L31.1,26.87a.563.563,0,0,1-.042-.574.53.53,0,0,1,.474-.3H33.66a.234.234,0,0,1,.234.234v.317a.551.551,0,0,0,.551.551h5.479a.551.551,0,0,0,.551-.551v-.317A.234.234,0,0,1,40.708,26h2.136a.531.531,0,0,1,.474.3.564.564,0,0,1-.042.574Z" transform="translate(1007 544.317)" fill="#005da3"/>
    <path id="_3671669_arrow_up_icon" data-name="3671669_arrow_up_icon" d="M3.7,1.115,1.927,2.884l-.412-.412L3.987,0l.206.206L6.46,2.472l-.412.412L4.279,1.115V5.828H3.7Z" transform="translate(1037.048 564.188)" fill="#005da3"/>
    <path id="_3671669_arrow_up_icon-2" data-name="3671669_arrow_up_icon" d="M3.7,4.712,1.927,2.943l-.412.412L3.987,5.828l.206-.206L6.46,3.355l-.412-.412L4.279,4.712V0H3.7Z" transform="translate(1041.993 564.188)" fill="#005da3"/>
  </g>
</svg>
