<svg xmlns="http://www.w3.org/2000/svg" width="49" height="85" viewBox="0 0 49 85">
  <g id="Group_26" data-name="Group 26" transform="translate(-4610 -1821)">
    <rect id="Rectangle_30" data-name="Rectangle 30" width="49" height="85" transform="translate(4610 1821)" fill="#fff"/>
    <g id="Group_25" data-name="Group 25" transform="translate(4617 1825)">
      <g id="Group_9" data-name="Group 9">
        <g id="Ellipse_1" data-name="Ellipse 1" transform="translate(0.5 0.132)" fill="#575151" stroke="#707070" stroke-width="1" opacity="0.7">
          <circle cx="4" cy="4" r="4" stroke="none"/>
          <circle cx="4" cy="4" r="3.5" fill="none"/>
        </g>
        <g id="Ellipse_4" data-name="Ellipse 4" transform="translate(0 15.132)" fill="#575151" stroke="#707070" stroke-width="1" opacity="0.7">
          <circle cx="4" cy="4" r="4" stroke="none"/>
          <circle cx="4" cy="4" r="3.5" fill="none"/>
        </g>
        <g id="Ellipse_2" data-name="Ellipse 2" transform="translate(26.5 0.132)" fill="#575151" stroke="#707070" stroke-width="1" opacity="0.7">
          <circle cx="4" cy="4" r="4" stroke="none"/>
          <circle cx="4" cy="4" r="3.5" fill="none"/>
        </g>
        <g id="Ellipse_5" data-name="Ellipse 5" transform="translate(26 15.132)" fill="#575151" stroke="#707070" stroke-width="1" opacity="0.7">
          <circle cx="4" cy="4" r="4" stroke="none"/>
          <circle cx="4" cy="4" r="3.5" fill="none"/>
        </g>
        <path id="Path_13" data-name="Path 13" d="M0,0A23.088,23.088,0,0,1,12.308-3.622,26.167,26.167,0,0,1,26,0" transform="translate(4 3.632)" fill="none" stroke="#005da3" stroke-linecap="round" stroke-linejoin="round" stroke-width="1" opacity="0.7"/>
        <path id="Path_15" data-name="Path 15" d="M0,0A23.088,23.088,0,0,1,12.308-3.622,26.167,26.167,0,0,1,26,0" transform="translate(3.5 18.632)" fill="none" stroke="#005da3" stroke-linecap="round" stroke-linejoin="round" stroke-width="1" opacity="0.7"/>
        <path id="Path_14" data-name="Path 14" d="M0,0A23.088,23.088,0,0,1,12.308-3.622,26.167,26.167,0,0,1,26,0" transform="translate(4 5.765)" fill="none" stroke="#005da3" stroke-linecap="round" stroke-linejoin="round" stroke-width="1" opacity="0.7"/>
        <path id="Path_16" data-name="Path 16" d="M0,0A23.088,23.088,0,0,1,12.308-3.622,26.167,26.167,0,0,1,26,0" transform="translate(3.5 20.765)" fill="none" stroke="#005da3" stroke-linecap="round" stroke-linejoin="round" stroke-width="1" opacity="0.7"/>
        <g id="Ellipse_3" data-name="Ellipse 3" transform="translate(29.5 3.132)" fill="#fff" stroke="#707070" stroke-width="1" opacity="0.7">
          <circle cx="0.5" cy="0.5" r="0.5" stroke="none"/>
          <circle cx="0.5" cy="0.5" fill="none"/>
        </g>
        <g id="Ellipse_6" data-name="Ellipse 6" transform="translate(29 18.132)" fill="#fff" stroke="#707070" stroke-width="1" opacity="0.7">
          <circle cx="0.5" cy="0.5" r="0.5" stroke="none"/>
          <circle cx="0.5" cy="0.5" fill="none"/>
        </g>
      </g>
      <g id="Group_10" data-name="Group 10" transform="translate(0 44)">
        <g id="Ellipse_1-2" data-name="Ellipse 1" transform="translate(0.5 0.132)" fill="#575151" stroke="#707070" stroke-width="1" opacity="0.7">
          <circle cx="4" cy="4" r="4" stroke="none"/>
          <circle cx="4" cy="4" r="3.5" fill="none"/>
        </g>
        <g id="Ellipse_4-2" data-name="Ellipse 4" transform="translate(0 15.132)" fill="#575151" stroke="#707070" stroke-width="1" opacity="0.7">
          <circle cx="4" cy="4" r="4" stroke="none"/>
          <circle cx="4" cy="4" r="3.5" fill="none"/>
        </g>
        <g id="Ellipse_2-2" data-name="Ellipse 2" transform="translate(26.5 0.132)" fill="#575151" stroke="#707070" stroke-width="1" opacity="0.7">
          <circle cx="4" cy="4" r="4" stroke="none"/>
          <circle cx="4" cy="4" r="3.5" fill="none"/>
        </g>
        <g id="Ellipse_5-2" data-name="Ellipse 5" transform="translate(26 15.132)" fill="#575151" stroke="#707070" stroke-width="1" opacity="0.7">
          <circle cx="4" cy="4" r="4" stroke="none"/>
          <circle cx="4" cy="4" r="3.5" fill="none"/>
        </g>
        <path id="Path_13-2" data-name="Path 13" d="M0,0A23.088,23.088,0,0,1,12.308-3.622,26.167,26.167,0,0,1,26,0" transform="translate(4 3.632)" fill="none" stroke="#005da3" stroke-linecap="round" stroke-linejoin="round" stroke-width="1" opacity="0.7"/>
        <path id="Path_15-2" data-name="Path 15" d="M0,0A23.088,23.088,0,0,1,12.308-3.622,26.167,26.167,0,0,1,26,0" transform="translate(3.5 18.632)" fill="none" stroke="#005da3" stroke-linecap="round" stroke-linejoin="round" stroke-width="1" opacity="0.7"/>
        <path id="Path_14-2" data-name="Path 14" d="M0,0A23.088,23.088,0,0,1,12.308-3.622,26.167,26.167,0,0,1,26,0" transform="translate(4 5.765)" fill="none" stroke="#005da3" stroke-linecap="round" stroke-linejoin="round" stroke-width="1" opacity="0.7"/>
        <path id="Path_16-2" data-name="Path 16" d="M0,0A23.088,23.088,0,0,1,12.308-3.622,26.167,26.167,0,0,1,26,0" transform="translate(3.5 20.765)" fill="none" stroke="#005da3" stroke-linecap="round" stroke-linejoin="round" stroke-width="1" opacity="0.7"/>
        <g id="Ellipse_3-2" data-name="Ellipse 3" transform="translate(29.5 3.132)" fill="#fff" stroke="#707070" stroke-width="1" opacity="0.7">
          <circle cx="0.5" cy="0.5" r="0.5" stroke="none"/>
          <circle cx="0.5" cy="0.5" fill="none"/>
        </g>
        <g id="Ellipse_6-2" data-name="Ellipse 6" transform="translate(29 18.132)" fill="#fff" stroke="#707070" stroke-width="1" opacity="0.7">
          <circle cx="0.5" cy="0.5" r="0.5" stroke="none"/>
          <circle cx="0.5" cy="0.5" fill="none"/>
        </g>
      </g>
    </g>
  </g>
</svg>
