<svg xmlns="http://www.w3.org/2000/svg" width="195.368" height="195.368" viewBox="0 0 195.368 195.368">
  <g id="Group_1" data-name="Group 1" transform="translate(-139 -376)">
    <g id="Manage_Master" data-name="Manage Master" transform="translate(-701 -38)">
      <g id="Group_11" data-name="Group 11">
        <g id="Menu_icon" transform="translate(484)">
          <g id="category" transform="translate(340 398)">
            <path id="Path_62" data-name="Path 62" d="M212.852,88V244.291a6.512,6.512,0,0,1-6.512,6.512H30.512A6.512,6.512,0,0,1,24,244.291V88Z" transform="translate(-4.744 -42.695)" fill="#fff"/>
            <path id="Path_63" data-name="Path 63" d="M24,50.048V30.512A6.512,6.512,0,0,1,30.512,24H206.339a6.512,6.512,0,0,1,6.512,6.512V50.048Z" transform="translate(-4.744 -4.744)" fill="#fff"/>
            <path id="Path_69" data-name="Path 69" d="M201.6,16H25.768A9.779,9.779,0,0,0,16,25.768V201.6a9.779,9.779,0,0,0,9.768,9.768H201.6a9.779,9.779,0,0,0,9.768-9.768V25.768A9.779,9.779,0,0,0,201.6,16Zm3.256,185.6a3.26,3.26,0,0,1-3.256,3.256H25.768a3.26,3.26,0,0,1-3.256-3.256V25.768a3.26,3.26,0,0,1,3.256-3.256H201.6a3.26,3.26,0,0,1,3.256,3.256Z" fill="#1e81ce"/>
          </g>
        </g>
      </g>
    </g>
    <g id="Layer_x0020_1" transform="translate(119.834 400.071)">
      <path id="Path_1" data-name="Path 1" d="M64.141,9.1h93.653a2.841,2.841,0,0,1,2.841,2.841V119.918a2.841,2.841,0,0,1-2.841,2.841H64.141a2.841,2.841,0,0,1-2.841-2.841V11.941A2.841,2.841,0,0,1,64.141,9.1ZM78.007,93.622c-3.739,0-3.739-5.683,0-5.683h23.867c3.739,0,3.739,5.683,0,5.683H78.007Zm0-12.786c-3.739,0-3.739-5.683,0-5.683h23.867c3.739,0,3.739,5.683,0,5.683Zm42.054,0c-3.737,0-3.737-5.683,0-5.683H143.93c3.737,0,3.737,5.683,0,5.683ZM86.39,33.383h49.156a2.842,2.842,0,0,1,2.843,2.841v21.6a2.843,2.843,0,0,1-2.843,2.841H86.39a2.843,2.843,0,0,1-2.843-2.841v-21.6A2.842,2.842,0,0,1,86.39,33.383ZM132.7,39.066H89.231V54.979H132.7Zm-65.722-17.9h87.971V14.783H66.983Zm87.971,5.683H66.983v90.228h87.971Z" fill="#1e81ce"/>
    </g>
    <path id="user-tag-solid" d="M139.082,118.907V98.817a6.973,6.973,0,0,1,6.98-6.98h20.09a10.471,10.471,0,0,1,7.395,3.076l20.941,20.941a10.493,10.493,0,0,1,0,14.811l-16.6,16.6a10.493,10.493,0,0,1-14.811,0l-20.941-20.941a10.471,10.471,0,0,1-3.076-7.395Zm22.686-9.642a5.235,5.235,0,1,0-5.235,5.235A5.235,5.235,0,0,0,161.768,109.265Z" transform="translate(104.064 398.749)" fill="#9bc9ff" stroke="#1e81ce" stroke-width="4"/>
    <rect id="Rectangle_1" data-name="Rectangle 1" width="62" height="33" rx="5" transform="translate(200 433)" fill="#9bc9ff"/>
  </g>
</svg>
