<?xml version="1.0" encoding="utf-8"?>
<!-- Generator: Adobe Illustrator 25.0.0, SVG Export Plug-In . SVG Version: 6.00 Build 0)  -->
<svg version="1.1" id="Layer_1" xmlns="http://www.w3.org/2000/svg" xmlns:xlink="http://www.w3.org/1999/xlink" x="0px" y="0px"
	 viewBox="0 0 512 512" style="enable-background:new 0 0 512 512;" xml:space="preserve">
<style type="text/css">
	.st0{fill:#9BC9FF;stroke:#1E81CE;stroke-width:3;stroke-miterlimit:10;}
	.st1{fill:#0277BD;}
</style>
<g transform="translate(0.000000,512.000000) scale(0.100000,-0.100000)">
	<path class="st0" d="M105,4786c-41-18-83-69-90-109c-4-18-5-118-3-224c3-210,5-218,72-267l27-21l2443-3l2443-2l43,23
		c75,39,80,59,80,301c0,239-5,257-84,295l-42,21H2564C567,4799,130,4797,105,4786z"/>
	<path class="st0" d="M105,3826c-41-18-83-69-90-109c-4-18-5-118-3-224c3-210,5-218,72-267c27-21,37-21,868-24c829-2,841-2,882,18
		c78,39,81,47,84,290c3,248-2,267-78,307l-43,23H966C298,3839,129,3837,105,3826z"/>
	<path class="st0" d="M105,2866c-41-18-83-69-90-109c-4-18-5-118-3-224c3-210,5-218,72-267c27-21,37-21,870-24l842-2l43,23
		c75,39,81,60,81,297s-6,258-80,297l-43,23H966C298,2879,129,2877,105,2866z"/>
	<path class="st0" d="M105,1906c-36-15-82-67-91-100c-3-12-4-113-2-223c3-221,5-227,72-277c27-21,37-21,870-24l842-2l43,23
		c76,39,81,59,81,301c0,239-5,257-84,295c-42,21-53,21-872,21C297,1919,129,1917,105,1906z"/>
	<path class="st0" d="M105,946c-36-15-82-67-91-100c-3-12-4-113-2-223c3-221,5-227,72-277l27-21l2443-3l2443-2l43,23
		c75,39,80,59,80,301c0,239-5,257-84,295l-42,21H2564C567,959,130,957,105,946z"/>
</g>
<g>
	<g>
		<path class="st1" d="M512.6,197.7h-162v-71.3c0-2.6-1.6-5-4-6s-5.2-0.5-7.1,1.4L209.9,251.4c-1.2,1.2-1.9,2.9-1.9,4.6
			s0.7,3.4,1.9,4.6l129.7,129.6c1.2,1.2,2.9,1.9,4.6,1.9c0.8,0,1.7-0.2,2.5-0.5c2.4-1,4-3.4,4-6v-71.3h162c3.6,0,6.5-2.9,6.5-6.5
			V204.1C519,200.6,516.1,197.7,512.6,197.7z"/>
	</g>
</g>
</svg>
