<svg xmlns="http://www.w3.org/2000/svg" width="200" height="193.548" viewBox="0 0 200 193.548">
  <g id="Group_30" data-name="Group 30" transform="translate(-1671 -414)">
    <g id="help" transform="translate(1663 398)">
      <g id="Group_25" data-name="Group 25" transform="translate(11.226 19.226)">
        <path id="Path_125" data-name="Path 125" d="M226.581,24v9.677h-38.71l-9.677,16.129H104V24Z" transform="translate(-68.516 -24)" fill="#9bc9ff"/>
        <path id="Path_126" data-name="Path 126" d="M237.419,166.709a38.545,38.545,0,1,1-11.289-27.421A38.71,38.71,0,0,1,237.419,166.709Z" transform="translate(-101.935 -86.064)" fill="#57a4ff"/>
        <path id="Path_127" data-name="Path 127" d="M209.548,368v9.677a9.68,9.68,0,0,1-9.677,9.677H25.677A9.68,9.68,0,0,1,16,377.677V368Z" transform="translate(-16 -229.29)" fill="#57a4ff"/>
        <path id="Path_128" data-name="Path 128" d="M168,464h70.968v9.677H168Z" transform="translate(-106.71 -286.581)" fill="#57a4ff"/>
        <path id="Path_129" data-name="Path 129" d="M237.419,166.7a38.545,38.545,0,0,1-9.859,25.806h-57.7A38.71,38.71,0,1,1,237.419,166.7Z" transform="translate(-101.935 -86.057)" fill="#57a4ff"/>
        <path id="Path_130" data-name="Path 130" d="M237.419,166.709a38.545,38.545,0,1,1-11.289-27.421A38.71,38.71,0,0,1,237.419,166.709Z" transform="translate(-101.935 -86.064)" fill="#9bc9ff"/>
        <circle id="Ellipse_10" data-name="Ellipse 10" cx="3" cy="3" r="3" transform="translate(93.774 103.774)" fill="#57a4ff"/>
      </g>
      <g id="Group_26" data-name="Group 26" transform="translate(8 16)">
        <path id="Path_131" data-name="Path 131" d="M195.1,57.935H178.968V28.9a3.226,3.226,0,0,0-3.226-3.226h-3.226V19.226A3.226,3.226,0,0,0,169.29,16H46.71a3.226,3.226,0,0,0-3.226,3.226V41.806H40.258a3.226,3.226,0,0,0-3.226,3.226v12.9H20.9A12.92,12.92,0,0,0,8,70.839v96.774a12.92,12.92,0,0,0,12.9,12.9H87.4l-4.3,12.9H72.516a3.226,3.226,0,0,0-3.226,3.226V203.1H43.484a3.226,3.226,0,0,0,0,6.452H172.516a3.226,3.226,0,0,0,0-6.452H146.71v-6.452a3.226,3.226,0,0,0-3.226-3.226H132.907l-4.3-12.9H195.1a12.92,12.92,0,0,0,12.9-12.9V70.839a12.92,12.92,0,0,0-12.9-12.9ZM49.935,22.452H166.065v3.226H130.581a3.226,3.226,0,0,0-2.766,1.565l-8.738,14.565H49.935ZM43.484,48.258H120.9a3.226,3.226,0,0,0,2.766-1.565l8.738-14.565h40.109v90.323H143.323a41.935,41.935,0,1,0-70.645,0H43.484ZM108,135.355a35.484,35.484,0,1,1,35.484-35.484A35.484,35.484,0,0,1,108,135.355Zm32.258,64.516V203.1H75.742v-3.226ZM89.9,193.419l4.3-12.9h27.6l4.3,12.9Zm111.653-25.806a6.46,6.46,0,0,1-6.452,6.452H20.9a6.46,6.46,0,0,1-6.452-6.452v-6.452h187.1Zm0-12.9H14.452V70.839A6.46,6.46,0,0,1,20.9,64.387H37.032v61.29a3.226,3.226,0,0,0,3.226,3.226H77.77a41.863,41.863,0,0,0,60.46,0h37.512a3.226,3.226,0,0,0,3.226-3.226V64.387H195.1a6.46,6.46,0,0,1,6.452,6.452Z" transform="translate(-8 -16)" fill="#1e81ce"/>
        <path id="Path_132" data-name="Path 132" d="M62.581,384H43.226a3.226,3.226,0,1,0,0,6.452H62.581a3.226,3.226,0,1,0,0-6.452Z" transform="translate(-27.097 -235.613)" fill="#1e81ce"/>
        <path id="Path_133" data-name="Path 133" d="M118.452,384h-3.226a3.226,3.226,0,0,0,0,6.452h3.226a3.226,3.226,0,1,0,0-6.452Z" transform="translate(-70.065 -235.613)" fill="#1e81ce"/>
        <path id="Path_134" data-name="Path 134" d="M211.226,174.576a3.226,3.226,0,0,0,3.226-3.226,12.9,12.9,0,1,1,17.725,11.973,12.82,12.82,0,0,0-8.047,11.952v1.882a3.226,3.226,0,1,0,6.452,0v-1.882a6.4,6.4,0,0,1,4.008-5.968A19.357,19.357,0,1,0,208,171.35,3.226,3.226,0,0,0,211.226,174.576Z" transform="translate(-127.355 -97.157)" fill="#1e81ce"/>
        <circle id="Ellipse_11" data-name="Ellipse 11" cx="3" cy="3" r="3" transform="translate(97 107)" fill="#1e81ce"/>
      </g>
    </g>
  </g>
</svg>
