<svg xmlns="http://www.w3.org/2000/svg" width="45.25" height="46" viewBox="0 0 45.25 46">
  <g id="Group_2" data-name="Group 2" transform="translate(-1420 -1096)">
    <g id="Group_6" data-name="Group 6" transform="translate(1896 415)">
      <g id="Group_5" data-name="Group 5" transform="translate(-2819 1333)">
        <g id="Group_4" data-name="Group 4">
          <path id="Subtraction_2" data-name="Subtraction 2" d="M30,46H4a4,4,0,0,1-4-4V4A4,4,0,0,1,4,0H23a.976.976,0,0,1,.776.4l9.829,9.829A.987.987,0,0,1,34,11V21.01c-.159-.01-.327-.01-.5-.01a11.655,11.655,0,0,0-1.5.1V12H23a1,1,0,0,1-1-1V2H4A2,2,0,0,0,2,4V42a2,2,0,0,0,2,2H30a2,2,0,0,0,1.007-.271A11.567,11.567,0,0,0,33.465,44,4.016,4.016,0,0,1,30,46ZM24,3.381V10h6.619ZM14.4,38H6a1,1,0,0,1,0-2h7.542a11.46,11.46,0,0,0,.855,2Zm-1.125-8H6a1,1,0,0,1,0-2h7.913a11.445,11.445,0,0,0-.641,2ZM14,22H6a1,1,0,0,1,0-2h8a1,1,0,0,1,0,2Z" transform="translate(2343 -652)" fill="#005da3"/>
          <g id="_211661_eye_icon" data-name="211661_eye_icon" transform="translate(2328 -755.037)">
            <path id="Path_19" data-name="Path 19" d="M46.893,128c-5.446,0-9.687,3.311-14.893,8.686,4.482,4.594,8.243,8.686,14.893,8.686s11.529-5.186,14.893-8.583C58.341,132.79,53.461,128,46.893,128Zm0,14.882a6.066,6.066,0,0,1-5.689-3.744,6.291,6.291,0,0,1,1.242-6.792,5.983,5.983,0,0,1,6.63-1.4,6.2,6.2,0,0,1,3.774,5.735,6.136,6.136,0,0,1-5.959,6.2Z" transform="translate(-1.536 -1.018)" fill="#005da3"/>
            <g id="Group_24" data-name="Group 24" transform="translate(43.372 133.506)">
              <path id="Path_20" data-name="Path 20" d="M206.141,203.686a1.487,1.487,0,0,1,.351-.958,2.214,2.214,0,0,0-.351-.028,2.47,2.47,0,1,0,2.424,2.47c0-.1-.009-.214-.019-.32a1.485,1.485,0,0,1-2.4-1.163Z" transform="translate(-203.624 -202.7)" fill="#005da3"/>
            </g>
          </g>
        </g>
      </g>
    </g>
  </g>
</svg>
