<svg xmlns="http://www.w3.org/2000/svg" width="43.768" height="46" viewBox="0 0 43.768 46">
  <g id="Group_6" data-name="Group 6" transform="translate(476 -681)">
    <g id="Group_5" data-name="Group 5" transform="translate(-2819 1333)">
      <g id="Group_4" data-name="Group 4">
        <path id="Subtraction_2" data-name="Subtraction 2" d="M30,46H4a4,4,0,0,1-4-4V4A4,4,0,0,1,4,0H23a.976.976,0,0,1,.776.4l9.829,9.829A.987.987,0,0,1,34,11V21.01c-.159-.01-.327-.01-.5-.01a11.655,11.655,0,0,0-1.5.1V12H23a1,1,0,0,1-1-1V2H4A2,2,0,0,0,2,4V42a2,2,0,0,0,2,2H30a2,2,0,0,0,1.007-.271A11.567,11.567,0,0,0,33.465,44,4.016,4.016,0,0,1,30,46ZM24,3.381V10h6.619ZM16.4,38H8a1,1,0,0,1,0-2h7.542a11.46,11.46,0,0,0,.855,2Zm-1.125-8H8a1,1,0,0,1,0-2h7.913a11.445,11.445,0,0,0-.641,2ZM16,22H8a1,1,0,0,1,0-2h8a1,1,0,0,1,0,2Z" transform="translate(2343 -652)" fill="#005da3"/>
        <g id="_211661_eye_icon" data-name="211661_eye_icon" transform="translate(2328 -755.983)">
          <path id="Path_19" data-name="Path 19" d="M45.384,128c-4.894,0-8.706,3.042-13.384,7.979,4.028,4.22,7.408,7.979,13.384,7.979s10.361-4.764,13.384-7.885C55.672,132.4,51.287,128,45.384,128Zm0,13.671a5.45,5.45,0,0,1-5.113-3.439,5.876,5.876,0,0,1,1.116-6.239,5.294,5.294,0,0,1,5.958-1.283,5.7,5.7,0,0,1,3.392,5.268,5.583,5.583,0,0,1-5.355,5.692Z" transform="translate(0)" fill="#005da3"/>
          <g id="Group_24" data-name="Group 24" transform="translate(42.942 133.603)">
            <path id="Path_20" data-name="Path 20" d="M206.046,203.649a1.431,1.431,0,0,1,.338-.922,2.13,2.13,0,0,0-.338-.027,2.377,2.377,0,1,0,2.332,2.377c0-.1-.009-.206-.018-.308a1.429,1.429,0,0,1-2.314-1.119Z" transform="translate(-203.624 -202.7)" fill="#005da3"/>
          </g>
        </g>
      </g>
    </g>
  </g>
</svg>
