<svg xmlns="http://www.w3.org/2000/svg" xmlns:xlink="http://www.w3.org/1999/xlink" width="17.523" height="17.523" viewBox="0 0 17.523 17.523">
  <defs>
    <clipPath id="clip-path">
      <path id="path351" d="M0-682.665H17.523v17.523H0Z" transform="translate(0 682.665)" fill="#f90b0b"/>
    </clipPath>
  </defs>
  <g id="g345" transform="translate(0 682.665)">
    <g id="g347" transform="translate(0 -682.665)">
      <g id="g349" clip-path="url(#clip-path)">
        <g id="g355" transform="translate(0.342 6.185)">
          <path id="path357" d="M-62.359-120.275-64-120.913V-122.8l1.641-.639Z" transform="translate(64 123.443)" fill="none" stroke="#f50808" stroke-linecap="round" stroke-linejoin="round" stroke-miterlimit="10" stroke-width="1"/>
        </g>
      </g>
    </g>
    <g id="g359" transform="translate(7.324 -680.782)">
      <path id="path361" d="M-152.944-35.695l1.446-.94v11.773l-5.476-3.556v-4.658l1.447-.94" transform="translate(156.973 36.635)" fill="none" stroke="#f50808" stroke-linecap="round" stroke-linejoin="round" stroke-miterlimit="10" stroke-width="1"/>
    </g>
    <g id="g363" transform="translate(0 -682.665)">
      <g id="g365" clip-path="url(#clip-path)">
        <g id="g371" transform="translate(12.799 1.268)">
          <path id="path373" d="M-31.179-493.66h0A.821.821,0,0,1-32-494.48v-11.362a.821.821,0,0,1,.821-.821h0a.821.821,0,0,1,.821.821v11.362a.821.821,0,0,1-.821.821Z" transform="translate(32 506.663)" fill="none" stroke="#f50808" stroke-linecap="round" stroke-linejoin="round" stroke-miterlimit="10" stroke-width="1"/>
        </g>
        <g id="g375" transform="translate(3.399 10.096)">
          <path id="path377" d="M-118.228-233.839h0a1.289,1.289,0,0,1-1.213-.854l-1.9-5.307h2.735l1.59,4.437a1.288,1.288,0,0,1-.158,1.176A1.288,1.288,0,0,1-118.228-233.839Z" transform="translate(121.343 240)" fill="none" stroke="#f50808" stroke-linecap="round" stroke-linejoin="round" stroke-miterlimit="10" stroke-width="1"/>
        </g>
        <g id="g379" transform="translate(1.985 5.441)">
          <path id="path381" d="M-29.88-176.679h4.552v-4.654H-29.88a.787.787,0,0,0-.787.787v3.077a.787.787,0,0,0,.23.558.787.787,0,0,0,.558.231Z" transform="translate(30.667 181.333)" fill="none" stroke="#f50808" stroke-linecap="round" stroke-linejoin="round" stroke-miterlimit="10" stroke-width="1"/>
        </g>
        <g id="g383" transform="translate(15.811 8.299)">
          <path id="path385" d="M0,0H1.368" fill="none" stroke="#f50808" stroke-linecap="round" stroke-linejoin="round" stroke-miterlimit="10" stroke-width="1"/>
        </g>
        <g id="g387" transform="translate(15.995 5.287)">
          <path id="path389" d="M0-25.982l1.186-.684" transform="translate(0 26.666)" fill="none" stroke="#f50808" stroke-linecap="round" stroke-linejoin="round" stroke-miterlimit="10" stroke-width="1"/>
        </g>
        <g id="g391" transform="translate(15.995 10.628)">
          <path id="path393" d="M0,0,1.186.684" fill="none" stroke="#f50808" stroke-linecap="round" stroke-linejoin="round" stroke-miterlimit="10" stroke-width="1"/>
        </g>
        <g id="g395" transform="translate(4.108 11.739)">
          <path id="path397" d="M-30.745,0h-.81" transform="translate(31.555)" fill="none" stroke="#f50808" stroke-linecap="round" stroke-linejoin="round" stroke-miterlimit="10" stroke-width="1"/>
        </g>
        <g id="g399" transform="translate(4.654 13.381)">
          <path id="path401" d="M-32.478,0h-.855" transform="translate(33.333)" fill="none" stroke="#f50808" stroke-linecap="round" stroke-linejoin="round" stroke-miterlimit="10" stroke-width="1"/>
        </g>
        <g id="g403" transform="translate(10.062 3.662)">
          <path id="path405" d="M0,0H0" fill="none" stroke="#f50808" stroke-linecap="round" stroke-linejoin="round" stroke-miterlimit="10" stroke-width="1"/>
        </g>
      </g>
    </g>
  </g>
</svg>
