<svg xmlns="http://www.w3.org/2000/svg" width="8.827" height="10.955" viewBox="0 0 8.827 10.955">
  <g id="Group_28" data-name="Group 28" transform="translate(-2893.95 -1757.95)">
    <g id="Page-1" transform="translate(2888 1754)">
      <g id="icon-30-book" transform="translate(6 4)">
        <path id="book" d="M10.776,6.171h3.473V14.42H8.171V6.171Zm3.908,8.684H7.3a1.3,1.3,0,0,1-1.3-1.3V5.085A1.081,1.081,0,0,1,7.082,4h7.6v.434h-.219a.651.651,0,0,0,0,1.3h.219v9.118ZM7.737,14.42H7.3a.865.865,0,0,1-.866-.865v-7.6a1.075,1.075,0,0,0,.648.216h.654V14.42ZM7.083,4.434a.651.651,0,0,0,0,1.3H13.6a1.477,1.477,0,0,1-.217-.663,1.337,1.337,0,0,1,.217-.64Z" transform="translate(-6 -4)" fill="#fff" stroke="#fff" stroke-width="0.1" fill-rule="evenodd"/>
      </g>
    </g>
  </g>
</svg>
