<svg xmlns="http://www.w3.org/2000/svg" width="200" height="200" viewBox="0 0 200 200">
  <g id="Group_48" data-name="Group 48" transform="translate(-1788 -2707)">
    <g id="workflow" transform="translate(1822.722 2765)">
      <path id="Path_145" data-name="Path 145" d="M45.433,12H30.179a2.179,2.179,0,0,0,0,4.358H45.433a2.179,2.179,0,1,0,0-4.358Z" transform="translate(29.478 10.612)" fill="#9bc9ff"/>
      <path id="Path_146" data-name="Path 146" d="M43.358,12H41.179a2.179,2.179,0,1,0,0,4.358h2.179a2.179,2.179,0,1,0,0-4.358Z" transform="translate(42.449 10.612)" fill="#9bc9ff"/>
      <path id="Path_147" data-name="Path 147" d="M48.358,12H46.179a2.179,2.179,0,1,0,0,4.358h2.179a2.179,2.179,0,0,0,0-4.358Z" transform="translate(48.344 10.612)" fill="#9bc9ff"/>
      <path id="Path_148" data-name="Path 148" d="M31.179,35.359h2.179a2.179,2.179,0,1,0,0-4.358H31.179a2.179,2.179,0,0,0,0,4.358Z" transform="translate(30.657 33.016)" fill="#9bc9ff"/>
      <path id="Path_149" data-name="Path 149" d="M26.179,35.359h2.179a2.179,2.179,0,0,0,0-4.358H26.179a2.179,2.179,0,0,0,0,4.358Z" transform="translate(24.762 33.016)" fill="#9bc9ff"/>
      <path id="Path_150" data-name="Path 150" d="M31.358,50H29.179a2.179,2.179,0,1,0,0,4.358h2.179a2.179,2.179,0,0,0,0-4.358Z" transform="translate(28.299 55.419)" fill="#9bc9ff"/>
      <path id="Path_151" data-name="Path 151" d="M36.358,50H34.179a2.179,2.179,0,1,0,0,4.358h2.179a2.179,2.179,0,1,0,0-4.358Z" transform="translate(34.195 55.419)" fill="#9bc9ff"/>
      <path id="Path_152" data-name="Path 152" d="M107.6,85.808A21.821,21.821,0,0,0,85.918,105.42H81.449V96.7a4.363,4.363,0,0,0-4.358-4.358H29.15A4.363,4.363,0,0,0,24.791,96.7v8.661a18.511,18.511,0,0,1,1.09-36.99H40.045v8.717A4.363,4.363,0,0,0,44.4,81.449H92.344A4.363,4.363,0,0,0,96.7,77.091V68.374h9.806a22.866,22.866,0,0,0,1.09-45.707V13.9a4.281,4.281,0,0,0-4.19-4.358H55.131a4.281,4.281,0,0,0-4.19,4.358v8.717H46.583V20.434a2.18,2.18,0,0,0-1.909-2.162l-3.179-.4,1.966-2.53a2.179,2.179,0,0,0-.179-2.878L37.119,6.3a2.182,2.182,0,0,0-2.879-.18L31.71,8.091l-.4-3.181A2.179,2.179,0,0,0,29.15,3H20.433a2.179,2.179,0,0,0-2.162,1.909l-.4,3.181-2.53-1.968a2.182,2.182,0,0,0-2.879.18L6.3,12.465a2.179,2.179,0,0,0-.179,2.878l1.966,2.53-3.179.4A2.18,2.18,0,0,0,3,20.434V29.15a2.178,2.178,0,0,0,1.909,2.162l3.179.4L6.122,34.24A2.179,2.179,0,0,0,6.3,37.119l6.163,6.164a2.179,2.179,0,0,0,2.879.18l2.53-1.968.4,3.18a2.179,2.179,0,0,0,2.162,1.909H29.15a2.179,2.179,0,0,0,2.162-1.909l.4-3.18,2.53,1.968a2.179,2.179,0,0,0,2.879-.18l6.163-6.164a2.179,2.179,0,0,0,.179-2.878l-1.966-2.53,3.179-.4a2.178,2.178,0,0,0,1.909-2.162V26.971h4.358v8.717a4.281,4.281,0,0,0,4.19,4.358h48.277a4.281,4.281,0,0,0,4.19-4.358V27.026a18.511,18.511,0,0,1-1.09,36.99H96.7V55.3a4.363,4.363,0,0,0-4.358-4.358H44.4A4.363,4.363,0,0,0,40.045,55.3v8.717H25.881a22.866,22.866,0,0,0-1.09,45.707v8.772a4.363,4.363,0,0,0,4.358,4.358H77.09a4.363,4.363,0,0,0,4.358-4.358v-8.717h4.469A21.791,21.791,0,1,0,107.6,85.808ZM42.224,27.226l-5.073.635a2.178,2.178,0,0,0-1.449,3.5L38.841,35.4,35.4,38.841,31.361,35.7a2.18,2.18,0,0,0-3.5,1.45l-.634,5.073H22.357l-.634-5.073a2.18,2.18,0,0,0-3.5-1.45l-4.037,3.14L10.742,35.4l3.139-4.036a2.178,2.178,0,0,0-1.449-3.5l-5.073-.635V22.357l5.073-.634a2.178,2.178,0,0,0,1.449-3.5l-3.139-4.037,3.443-3.443,4.037,3.14a2.18,2.18,0,0,0,3.5-1.45l.634-5.074h4.869l.634,5.074a2.18,2.18,0,0,0,3.5,1.45l4.037-3.14,3.443,3.443L35.7,18.224a2.178,2.178,0,0,0,1.449,3.5l5.073.634ZM55.3,35.688l-.081-10.494a2.07,2.07,0,0,0,.081-.4,2.083,2.083,0,0,0-.087-.433L55.131,13.9H103.24l-.013,21.791ZM44.4,55.3H92.344V77.091H44.4V66.2s0,0,0-.005,0,0,0-.005V55.3ZM29.15,118.494V96.7H77.09l0,10.885s0,.007,0,.011,0,.007,0,.011l0,10.885Zm78.449,6.537A17.433,17.433,0,1,1,125.031,107.6,17.453,17.453,0,0,1,107.6,125.032Z" transform="translate(0 0)" fill="#1e81ce"/>
      <path id="Path_153" data-name="Path 153" d="M17.717,9a8.717,8.717,0,1,0,8.717,8.717A8.726,8.726,0,0,0,17.717,9Zm0,13.075a4.358,4.358,0,1,1,4.358-4.358A4.363,4.363,0,0,1,17.717,22.075Z" transform="translate(7.075 7.075)" fill="#9bc9ff"/>
      <path id="Path_154" data-name="Path 154" d="M63.937,47.784,54.57,59.026l-4.85-4.851a2.179,2.179,0,1,0-3.081,3.081l6.537,6.538a2.177,2.177,0,0,0,1.541.638l.1,0a2.183,2.183,0,0,0,1.577-.782l10.9-13.075a2.18,2.18,0,0,0-3.35-2.79Z" transform="translate(50.703 51.882)" fill="#9bc9ff"/>
      <path id="Path_155" data-name="Path 155" d="M36.179,35.359H49.254a2.179,2.179,0,1,0,0-4.358H36.179a2.179,2.179,0,0,0,0,4.358Z" transform="translate(36.553 33.016)" fill="#9bc9ff"/>
      <path id="Path_156" data-name="Path 156" d="M32.254,50H19.179a2.179,2.179,0,1,0,0,4.358H32.254a2.179,2.179,0,1,0,0-4.358Z" transform="translate(16.508 55.419)" fill="#9bc9ff"/>
    </g>
    <g id="Template" transform="translate(1786 2705)">
      <path id="Path_9" data-name="Path 9" d="M189.667,3h-180A6.667,6.667,0,0,0,3,9.667V43H196.333V9.667A6.667,6.667,0,0,0,189.667,3ZM23,29.667A6.667,6.667,0,1,1,29.667,23,6.667,6.667,0,0,1,23,29.667Zm23.333,0A6.667,6.667,0,1,1,53,23a6.667,6.667,0,0,1-6.667,6.667Zm23.333,0A6.667,6.667,0,1,1,76.333,23a6.667,6.667,0,0,1-6.667,6.667Zm106.667,0h-80a6.667,6.667,0,1,1,0-13.333h80a6.667,6.667,0,1,1,0,13.333Z" transform="translate(2.333 2.333)" fill="#9bc9ff"/>
      <g id="Group_3" data-name="Group 3" transform="translate(2 2)">
        <path id="Path_15" data-name="Path 15" d="M192,2H12A10,10,0,0,0,2,12V192a10,10,0,0,0,10,10H192a10,10,0,0,0,10-10V12A10,10,0,0,0,192,2ZM8.667,12A3.333,3.333,0,0,1,12,8.667H192A3.333,3.333,0,0,1,195.333,12V42H8.667ZM195.333,192A3.333,3.333,0,0,1,192,195.333H12A3.333,3.333,0,0,1,8.667,192V48.667H195.333Z" transform="translate(-2 -2)" fill="#1e81ce"/>
        <path id="Path_16" data-name="Path 16" d="M118,26H38A10,10,0,1,1,38,6h80a10,10,0,0,1,0,20ZM38,12.667a3.333,3.333,0,1,0,0,6.667h80a3.334,3.334,0,0,0,0-6.667Z" transform="translate(58.667 7.333)" fill="#1e81ce"/>
        <path id="Path_17" data-name="Path 17" d="M16,26A10,10,0,1,1,26,16,10,10,0,0,1,16,26Zm0-13.333A3.333,3.333,0,1,0,19.333,16,3.333,3.333,0,0,0,16,12.667Z" transform="translate(7.333 7.333)" fill="#1e81ce"/>
        <path id="Path_18" data-name="Path 18" d="M23,26A10,10,0,1,1,33,16,10,10,0,0,1,23,26Zm0-13.333A3.333,3.333,0,1,0,26.333,16,3.333,3.333,0,0,0,23,12.667Z" transform="translate(23.667 7.333)" fill="#1e81ce"/>
        <path id="Path_19" data-name="Path 19" d="M30,26A10,10,0,1,1,40,16,10,10,0,0,1,30,26Zm0-13.333A3.333,3.333,0,1,0,33.333,16,3.333,3.333,0,0,0,30,12.667Z" transform="translate(40 7.333)" fill="#1e81ce"/>
      </g>
    </g>
  </g>
</svg>
