<svg xmlns="http://www.w3.org/2000/svg" width="16.757" height="14.374" viewBox="0 0 16.757 14.374">
  <g id="_211610_circled_alert_icon" data-name="211610_circled_alert_icon" transform="translate(-31.986 -64)">
    <path id="Path_5" data-name="Path 5" d="M48.625,77.408,40.892,64.325A.634.634,0,0,0,40.365,64a.623.623,0,0,0-.528.325L32.1,77.408a.754.754,0,0,0-.071.67.606.606,0,0,0,.524.3h15.61a.606.606,0,0,0,.524-.3.74.74,0,0,0-.066-.67Zm-7.066-.831H39.167v-1.8h2.4Zm0-2.994H39.167V68.192h2.4Z" transform="translate(0 0)" fill="#f69606"/>
  </g>
</svg>
