<svg xmlns="http://www.w3.org/2000/svg" width="200" height="195.364" viewBox="0 0 200 195.364">
  <g id="API_listing_icon" transform="translate(-106 -414)">
    <g id="api" transform="translate(104 412)">
      <path id="Path_49" data-name="Path 49" d="M183.279,3H16.354C8.979,3,3,8.7,3,15.733v19.1H196.633v-19.1C196.633,8.7,190.655,3,183.279,3ZM23.031,25.283a6.527,6.527,0,0,1-6.677-6.367,6.527,6.527,0,0,1,6.677-6.367,6.527,6.527,0,0,1,6.677,6.367A6.527,6.527,0,0,1,23.031,25.283Zm23.37,0a6.527,6.527,0,0,1-6.677-6.367,6.685,6.685,0,0,1,13.354,0A6.527,6.527,0,0,1,46.4,25.283Zm23.37,0a6.527,6.527,0,0,1-6.677-6.367,6.685,6.685,0,0,1,13.354,0A6.527,6.527,0,0,1,69.77,25.283Z" transform="translate(2.183 2.183)" fill="#9bc9ff"/>
      <path id="Path_50" data-name="Path 50" d="M120.77,44.211l-8.086,8.054a46.027,46.027,0,0,0-8.468-3.5v-11.4A6.386,6.386,0,0,0,97.85,31H85.117a6.386,6.386,0,0,0-6.367,6.367v11.4A44.026,44.026,0,0,0,70.282,52.3L62.2,44.211a6.341,6.341,0,0,0-8.977,0L44.211,53.22a6.341,6.341,0,0,0,0,8.977L52.3,70.282a44.025,44.025,0,0,0-3.533,8.468h-11.4A6.386,6.386,0,0,0,31,85.117V97.85a6.386,6.386,0,0,0,6.367,6.367h11.4a44.025,44.025,0,0,0,3.534,8.468l-8.086,8.086a6.392,6.392,0,0,0-1.751,5.73h71.307A12.733,12.733,0,0,0,126.5,113.767V42.46a6.392,6.392,0,0,0-5.73,1.751ZM91.483,113.767a22.283,22.283,0,1,1,22.283-22.283,22.283,22.283,0,0,1-22.283,22.283Z" transform="translate(72.317 67.68)" fill="#9bc9ff"/>
      <g id="Group_9" data-name="Group 9" transform="translate(2 2)">
        <path id="Path_51" data-name="Path 51" d="M185.333,2H18.667A16.5,16.5,0,0,0,2,18.28v162.8a16.5,16.5,0,0,0,16.667,16.28H185.333A16.5,16.5,0,0,0,202,181.083V18.28A16.5,16.5,0,0,0,185.333,2ZM18.667,8.512H185.333a9.886,9.886,0,0,1,10,9.768v16.28H8.667V18.28a9.886,9.886,0,0,1,10-9.768Zm-10,172.571V41.073H195.333v63.978a10.012,10.012,0,0,0-5.02,2.579l-6.76,6.581a52.293,52.293,0,0,0-4.887-1.973v-9.3a9.886,9.886,0,0,0-10-9.768H155.333a9.886,9.886,0,0,0-10,9.768v9.3a51.284,51.284,0,0,0-4.9,1.989l-6.747-6.594a10.393,10.393,0,0,0-14.113,0l-9.433,9.211a9.583,9.583,0,0,0,0,13.789l6.75,6.594a47.972,47.972,0,0,0-2.04,4.783h-9.52a9.886,9.886,0,0,0-10,9.768V164.8a9.886,9.886,0,0,0,10,9.768h9.52a47.975,47.975,0,0,0,2.04,4.78l-6.75,6.594a9.638,9.638,0,0,0-2.647,4.907H18.667a9.886,9.886,0,0,1-10-9.768Zm176.667,9.768H114.617a3.588,3.588,0,0,1,.24-.3l8.467-8.27a3.2,3.2,0,0,0,.567-3.865,41.944,41.944,0,0,1-3.433-8.039,3.325,3.325,0,0,0-3.19-2.315H105.333A3.3,3.3,0,0,1,102,164.8V151.779a3.3,3.3,0,0,1,3.333-3.256h11.933a3.325,3.325,0,0,0,3.19-2.315,41.941,41.941,0,0,1,3.433-8.039,3.2,3.2,0,0,0-.567-3.865l-8.467-8.274a3.174,3.174,0,0,1,0-4.575l9.433-9.215a3.445,3.445,0,0,1,4.687,0l8.467,8.27a3.393,3.393,0,0,0,3.957.554,43.372,43.372,0,0,1,8.227-3.35A3.267,3.267,0,0,0,152,114.595V102.938a3.3,3.3,0,0,1,3.333-3.256h13.333A3.3,3.3,0,0,1,172,102.938v11.657a3.267,3.267,0,0,0,2.373,3.119,45.185,45.185,0,0,1,8.25,3.334,3.393,3.393,0,0,0,3.93-.563l8.47-8.244a3.073,3.073,0,0,1,.31-.234v69.077a9.886,9.886,0,0,1-10,9.768Z" transform="translate(-2 -2)" fill="#1e81ce"/>
        <path id="Path_52" data-name="Path 52" d="M15.55,24.1A9.55,9.55,0,1,0,6,14.55,9.55,9.55,0,0,0,15.55,24.1Zm0-12.733a3.183,3.183,0,1,1-3.183,3.183A3.183,3.183,0,0,1,15.55,11.367Z" transform="translate(6.733 4.55)" fill="#1e81ce"/>
        <path id="Path_53" data-name="Path 53" d="M22.55,24.1A9.55,9.55,0,1,0,13,14.55,9.55,9.55,0,0,0,22.55,24.1Zm0-12.733a3.183,3.183,0,1,1-3.183,3.183A3.183,3.183,0,0,1,22.55,11.367Z" transform="translate(23.85 4.55)" fill="#1e81ce"/>
        <path id="Path_54" data-name="Path 54" d="M29.55,24.1A9.55,9.55,0,1,0,20,14.55,9.55,9.55,0,0,0,29.55,24.1Zm0-12.733a3.183,3.183,0,1,1-3.183,3.183A3.183,3.183,0,0,1,29.55,11.367Z" transform="translate(40.3 4.55)" fill="#1e81ce"/>
        <path id="Path_55" data-name="Path 55" d="M67.467,42A25.467,25.467,0,1,0,92.933,67.467,25.467,25.467,0,0,0,67.467,42Zm0,44.567a19.1,19.1,0,1,1,19.1-19.1,19.1,19.1,0,0,1-19.1,19.1Z" transform="translate(94.333 89.697)" fill="#1e81ce"/>
        <path id="Path_56" data-name="Path 56" d="M11.183,62.567a3.183,3.183,0,0,0,3.183-3.183V43.467H27.1V59.383a3.183,3.183,0,1,0,6.367,0V30.733A12.733,12.733,0,1,0,8,30.733v28.65A3.183,3.183,0,0,0,11.183,62.567Zm9.55-38.2A6.367,6.367,0,0,1,27.1,30.733V37.1H14.367V30.733A6.367,6.367,0,0,1,20.733,24.367Z" transform="translate(11.1 34.451)" fill="#1e81ce"/>
        <path id="Path_57" data-name="Path 57" d="M21.183,62.567a3.183,3.183,0,0,0,3.183-3.183V43.467h9.55a9.55,9.55,0,0,0,9.55-9.55V27.55A9.55,9.55,0,0,0,33.917,18H21.183A3.183,3.183,0,0,0,18,21.183v38.2A3.183,3.183,0,0,0,21.183,62.567Zm3.183-38.2h9.55A3.183,3.183,0,0,1,37.1,27.55v6.367A3.183,3.183,0,0,1,33.917,37.1h-9.55Z" transform="translate(35.703 34.451)" fill="#1e81ce"/>
        <path id="Path_58" data-name="Path 58" d="M31.183,62.567a3.183,3.183,0,0,0,3.183-3.183v-38.2a3.183,3.183,0,0,0-6.367,0v38.2A3.183,3.183,0,0,0,31.183,62.567Z" transform="translate(58.801 34.451)" fill="#1e81ce"/>
        <path id="Path_59" data-name="Path 59" d="M11.183,42.367H74.85a3.183,3.183,0,0,0,0-6.367H11.183a3.183,3.183,0,0,0,0,6.367Z" transform="translate(11.1 74.791)" fill="#1e81ce"/>
        <path id="Path_60" data-name="Path 60" d="M74.85,42H11.183a3.183,3.183,0,0,0,0,6.367H74.85a3.183,3.183,0,0,0,0-6.367Z" transform="translate(11.1 88.343)" fill="#1e81ce"/>
        <path id="Path_61" data-name="Path 61" d="M65.3,48H11.183a3.183,3.183,0,0,0,0,6.367H65.3A3.183,3.183,0,1,0,65.3,48Z" transform="translate(11.1 101.894)" fill="#1e81ce"/>
      </g>
    </g>
  </g>
</svg>
