<svg xmlns="http://www.w3.org/2000/svg" width="38.52" height="39.426" viewBox="0 0 38.52 39.426">
  <g id="Group_7" data-name="Group 7" transform="translate(629 -792.75)">
    <g id="Group_7-2" data-name="Group 7" transform="translate(-2733.326 1552.757)">
      <g id="Group_6" data-name="Group 6">
        <g id="Group_5" data-name="Group 5">
          <g id="Group_4" data-name="Group 4">
            <g id="Group_2" data-name="Group 2" transform="translate(2113.879 -741.757)">
              <path id="_6936490_lock_protection_safety_security_shield_icon" data-name="6936490_lock_protection_safety_security_shield_icon" d="M18.125,5.448,11.57,3.135,5.016,5.448V10.9a8.067,8.067,0,0,0,3.415,6.59l3.14,2.217,3.139-2.216a8.067,8.067,0,0,0,3.414-6.59ZM11.571,22.176l4.3-3.037A10.084,10.084,0,0,0,20.143,10.9V4.025L11.571,1,3,4.025V10.9a10.084,10.084,0,0,0,4.268,8.241Z" transform="translate(-3 -1)" fill="#005da3" fill-rule="evenodd"/>
              <g id="_216286_closed_lock_icon" data-name="216286_closed_lock_icon" transform="translate(3.847 3.952)">
                <g id="Group_1" data-name="Group 1" transform="translate(3.846 7.71)">
                  <circle id="Ellipse_1" data-name="Ellipse 1" cx="0.877" cy="0.877" r="0.877" transform="translate(0 0)" fill="#005da3"/>
                </g>
                <path id="Path_1" data-name="Path 1" d="M13.1,7.993h-.675V6.65a2.706,2.706,0,0,0-5.4,0V8H6.35A1.35,1.35,0,0,0,5,9.343v4.723a1.35,1.35,0,0,0,1.35,1.35H13.1a1.35,1.35,0,0,0,1.35-1.35V9.343a1.35,1.35,0,0,0-1.35-1.35ZM8.373,6.65a1.353,1.353,0,0,1,2.706,0V8.668H8.373ZM13.1,14.074H6.35V9.343H13.1Z" transform="translate(-5 -4.131)" fill="#005da3"/>
              </g>
            </g>
            <g id="_1904675_configuration_edit_gear_options_preferences_icon" data-name="1904675_configuration_edit_gear_options_preferences_icon" transform="translate(2121.812 -759.757)">
              <path id="Path_6" data-name="Path 6" d="M42.516,39a3.516,3.516,0,1,0,3.516,3.516A3.516,3.516,0,0,0,42.516,39Zm0,6.188a2.672,2.672,0,1,1,2.672-2.672,2.672,2.672,0,0,1-2.672,2.672Z" transform="translate(-33.516 -33.516)" fill="#005da3" stroke="#005da3" stroke-width="0.5"/>
              <path id="Path_7" data-name="Path 7" d="M17.017,6.75H15.76a.141.141,0,0,1-.132-.1,7.017,7.017,0,0,0-.282-.681.141.141,0,0,1,.025-.162l.887-.89a.984.984,0,0,0,0-1.392l-1.789-1.79a.984.984,0,0,0-1.392,0l-.887.887a.141.141,0,0,1-.162.025,7,7,0,0,0-.683-.28.141.141,0,0,1-.1-.132V.989A.984.984,0,0,0,10.266,0H7.734A.984.984,0,0,0,6.75.984V2.243a.141.141,0,0,1-.1.132,7.017,7.017,0,0,0-.681.282.141.141,0,0,1-.162-.025l-.89-.887a.984.984,0,0,0-1.392,0L1.744,3.531a.984.984,0,0,0,0,1.392l.887.887a.141.141,0,0,1,.025.162,7,7,0,0,0-.282.681.141.141,0,0,1-.132.1H.984A.984.984,0,0,0,0,7.734v2.532a.984.984,0,0,0,.984.984H2.243a.141.141,0,0,1,.132.1,7.016,7.016,0,0,0,.282.681.141.141,0,0,1-.025.162l-.887.888a.984.984,0,0,0,0,1.392l1.79,1.79a.984.984,0,0,0,1.392,0l.887-.887a.141.141,0,0,1,.162-.025,7,7,0,0,0,.681.282.141.141,0,0,1,.1.132V17.02a.984.984,0,0,0,.98.98h2.529a.984.984,0,0,0,.984-.984V15.76a.141.141,0,0,1,.1-.132,7.017,7.017,0,0,0,.681-.282.141.141,0,0,1,.162.025l.89.887a.984.984,0,0,0,1.392,0l1.79-1.79a.984.984,0,0,0,0-1.392l-.887-.887a.141.141,0,0,1-.025-.162,7,7,0,0,0,.282-.681.141.141,0,0,1,.132-.1h1.255a.984.984,0,0,0,.98-.98V7.734a.984.984,0,0,0-.984-.984Zm.141,3.516a.141.141,0,0,1-.141.141H15.76a.984.984,0,0,0-.928.66,6.173,6.173,0,0,1-.249.6.984.984,0,0,0,.191,1.121l.887.887a.141.141,0,0,1,0,.2l-1.789,1.787a.141.141,0,0,1-.2,0l-.887-.887a.984.984,0,0,0-1.121-.191,6.171,6.171,0,0,1-.6.249.984.984,0,0,0-.658.928v1.256a.141.141,0,0,1-.141.141H7.734a.141.141,0,0,1-.141-.141V15.76a.984.984,0,0,0-.66-.928,6.172,6.172,0,0,1-.6-.249.984.984,0,0,0-1.121.191l-.887.887a.141.141,0,0,1-.2,0L2.337,13.874a.141.141,0,0,1,0-.2l.887-.887a.984.984,0,0,0,.191-1.121,6.171,6.171,0,0,1-.249-.6.984.984,0,0,0-.923-.658H.984a.141.141,0,0,1-.141-.141V7.734a.141.141,0,0,1,.141-.141H2.243a.984.984,0,0,0,.928-.66,6.174,6.174,0,0,1,.249-.6.984.984,0,0,0-.191-1.121l-.887-.887a.141.141,0,0,1,0-.2L4.127,2.337a.141.141,0,0,1,.2,0l.887.887a.984.984,0,0,0,1.121.191,6.171,6.171,0,0,1,.6-.249A.984.984,0,0,0,7.6,2.243V.984A.141.141,0,0,1,7.734.843h2.532a.141.141,0,0,1,.141.141V2.243a.984.984,0,0,0,.66.928,6.173,6.173,0,0,1,.6.249.984.984,0,0,0,1.121-.191l.887-.887a.141.141,0,0,1,.2,0l1.79,1.79a.141.141,0,0,1,0,.2l-.887.887a.984.984,0,0,0-.191,1.121,6.169,6.169,0,0,1,.249.6.984.984,0,0,0,.928.658h1.246a.141.141,0,0,1,.141.141Z" fill="#005da3" stroke="#005da3" stroke-width="0.5"/>
            </g>
            <path id="Subtraction_3" data-name="Subtraction 3" d="M31.469,24.045h-.981V22.669h.662l.275-.034A5.868,5.868,0,0,0,33.867,11.5a10.592,10.592,0,0,0,1.162-.9,7.172,7.172,0,0,1,3.491,6.2,7.3,7.3,0,0,1-2.075,5.088,6.887,6.887,0,0,1-4.976,2.157Zm-23.439,0H7.7a7.552,7.552,0,0,1-5.448-2.333A7.91,7.91,0,0,1,0,16.169,7.577,7.577,0,0,1,5.21,8.964a5.291,5.291,0,0,1,5.064-4.471,5.058,5.058,0,0,1,2.3.551A10.109,10.109,0,0,1,17.892,0a10.5,10.5,0,0,0-.311,1.639,8.906,8.906,0,0,0-3.815,4l-.559,1.178L12.046,6.23a3.684,3.684,0,0,0-1.711-.413A3.96,3.96,0,0,0,6.56,9.2l-.129.757-.722.257A6.241,6.241,0,0,0,1.393,16.13a6.549,6.549,0,0,0,6.379,6.543H8.03v1.375Z" transform="translate(2104.326 -756.282)" fill="#005da3"/>
          </g>
        </g>
      </g>
    </g>
  </g>
</svg>
