<svg xmlns="http://www.w3.org/2000/svg" width="200" height="200" viewBox="0 0 200 200">
  <g id="Template" transform="translate(-2 -2)">
    <path id="Path_9" data-name="Path 9" d="M189.667,3h-180A6.667,6.667,0,0,0,3,9.667V43H196.333V9.667A6.667,6.667,0,0,0,189.667,3ZM23,29.667A6.667,6.667,0,1,1,29.667,23,6.667,6.667,0,0,1,23,29.667Zm23.333,0A6.667,6.667,0,1,1,53,23,6.667,6.667,0,0,1,46.333,29.667Zm23.333,0A6.667,6.667,0,1,1,76.333,23,6.667,6.667,0,0,1,69.667,29.667Zm106.667,0h-80a6.667,6.667,0,1,1,0-13.333h80a6.667,6.667,0,1,1,0,13.333Z" transform="translate(2.333 2.333)" fill="#9bc9ff"/>
    <path id="Path_10" data-name="Path 10" d="M11,21H64.333V61H11Z" transform="translate(21 44.333)" fill="#9bc9ff"/>
    <path id="Path_11" data-name="Path 11" d="M43,37H76.333V50.333H43Z" transform="translate(95.667 81.667)" fill="#9bc9ff"/>
    <path id="Path_12" data-name="Path 12" d="M11,37H44.333V50.333H11Z" transform="translate(21 81.667)" fill="#9bc9ff"/>
    <path id="Path_13" data-name="Path 13" d="M27,37H60.333V50.333H27Z" transform="translate(58.333 81.667)" fill="#9bc9ff"/>
    <path id="Path_14" data-name="Path 14" d="M11,45H151V78.333H11Z" transform="translate(21 100.333)" fill="#9bc9ff"/>
    <g id="Group_3" data-name="Group 3" transform="translate(2 2)">
      <path id="Path_15" data-name="Path 15" d="M192,2H12A10,10,0,0,0,2,12V192a10,10,0,0,0,10,10H192a10,10,0,0,0,10-10V12A10,10,0,0,0,192,2ZM8.667,12A3.333,3.333,0,0,1,12,8.667H192A3.333,3.333,0,0,1,195.333,12V42H8.667ZM195.333,192A3.333,3.333,0,0,1,192,195.333H12A3.333,3.333,0,0,1,8.667,192V48.667H195.333Z" transform="translate(-2 -2)" fill="#1e81ce"/>
      <path id="Path_16" data-name="Path 16" d="M118,26H38A10,10,0,0,1,38,6h80a10,10,0,0,1,0,20ZM38,12.667a3.333,3.333,0,0,0,0,6.667h80a3.333,3.333,0,0,0,0-6.667Z" transform="translate(58.667 7.333)" fill="#1e81ce"/>
      <path id="Path_17" data-name="Path 17" d="M16,26A10,10,0,1,1,26,16,10,10,0,0,1,16,26Zm0-13.333A3.333,3.333,0,1,0,19.333,16,3.333,3.333,0,0,0,16,12.667Z" transform="translate(7.333 7.333)" fill="#1e81ce"/>
      <path id="Path_18" data-name="Path 18" d="M23,26A10,10,0,1,1,33,16,10,10,0,0,1,23,26Zm0-13.333A3.333,3.333,0,1,0,26.333,16,3.333,3.333,0,0,0,23,12.667Z" transform="translate(23.667 7.333)" fill="#1e81ce"/>
      <path id="Path_19" data-name="Path 19" d="M30,26A10,10,0,1,1,40,16,10,10,0,0,1,30,26Zm0-13.333A3.333,3.333,0,1,0,33.333,16,3.333,3.333,0,0,0,30,12.667Z" transform="translate(40 7.333)" fill="#1e81ce"/>
      <path id="Path_20" data-name="Path 20" d="M66.667,66.667H13.333A3.333,3.333,0,0,1,10,63.333v-40A3.333,3.333,0,0,1,13.333,20H66.667A3.333,3.333,0,0,1,70,23.333v40A3.333,3.333,0,0,1,66.667,66.667ZM16.667,60H63.333V26.667H16.667Z" transform="translate(16.667 40)" fill="#1e81ce"/>
      <path id="Path_21" data-name="Path 21" d="M102,28.667H35.333a3.333,3.333,0,1,1,0-6.667H102a3.333,3.333,0,1,1,0,6.667Z" transform="translate(68 44.667)" fill="#1e81ce"/>
      <path id="Path_22" data-name="Path 22" d="M102,32.667H35.333a3.333,3.333,0,0,1,0-6.667H102a3.333,3.333,0,1,1,0,6.667Z" transform="translate(68 54)" fill="#1e81ce"/>
      <path id="Path_23" data-name="Path 23" d="M102,36.667H35.333a3.333,3.333,0,1,1,0-6.667H102a3.333,3.333,0,1,1,0,6.667Z" transform="translate(68 63.333)" fill="#1e81ce"/>
      <path id="Path_24" data-name="Path 24" d="M78.667,56H45.333A3.333,3.333,0,0,1,42,52.667V39.333A3.333,3.333,0,0,1,45.333,36H78.667A3.333,3.333,0,0,1,82,39.333V52.667A3.333,3.333,0,0,1,78.667,56Zm-30-6.667H75.333V42.667H48.667Z" transform="translate(91.333 77.333)" fill="#1e81ce"/>
      <path id="Path_25" data-name="Path 25" d="M46.667,56H13.333A3.333,3.333,0,0,1,10,52.667V39.333A3.333,3.333,0,0,1,13.333,36H46.667A3.333,3.333,0,0,1,50,39.333V52.667A3.333,3.333,0,0,1,46.667,56Zm-30-6.667H43.333V42.667H16.667Z" transform="translate(16.667 77.333)" fill="#1e81ce"/>
      <path id="Path_26" data-name="Path 26" d="M62.667,56H29.333A3.333,3.333,0,0,1,26,52.667V39.333A3.333,3.333,0,0,1,29.333,36H62.667A3.333,3.333,0,0,1,66,39.333V52.667A3.333,3.333,0,0,1,62.667,56Zm-30-6.667H59.333V42.667H32.667Z" transform="translate(54 77.333)" fill="#1e81ce"/>
      <path id="Path_27" data-name="Path 27" d="M153.333,84h-140A3.333,3.333,0,0,1,10,80.667V47.333A3.333,3.333,0,0,1,13.333,44h140a3.333,3.333,0,0,1,3.333,3.333V80.667A3.333,3.333,0,0,1,153.333,84ZM16.667,77.333H150V50.667H16.667Z" transform="translate(16.667 96)" fill="#1e81ce"/>
    </g>
  </g>
</svg>
