<svg xmlns="http://www.w3.org/2000/svg" width="158.333" height="200" viewBox="0 0 158.333 200">
  <g id="document_1_" data-name="document (1)" transform="translate(-53.333)">
    <path id="Path_37" data-name="Path 37" d="M396,44H371a8.358,8.358,0,0,1-8.333-8.333v-25Z" transform="translate(-188.5 -6.5)" fill="#87d2f3"/>
    <path id="Path_38" data-name="Path 38" d="M214,44V194a8.358,8.358,0,0,1-8.333,8.333H72.333A8.358,8.358,0,0,1,64,194V19a8.358,8.358,0,0,1,8.333-8.333H180.666v25A8.359,8.359,0,0,0,189,44Z" transform="translate(-6.5 -6.5)" fill="#fff"/>
    <path id="Path_39" data-name="Path 39" d="M132.167,170.667h91.667A4.167,4.167,0,0,1,228,174.834v50A4.167,4.167,0,0,1,223.834,229H132.167A4.167,4.167,0,0,1,128,224.834v-50A4.167,4.167,0,0,1,132.167,170.667Z" transform="translate(-45.5 -104)" fill="#87d2f3"/>
    <g id="Group_4" data-name="Group 4" transform="translate(53.333)">
      <path id="Path_40" data-name="Path 40" d="M117.333,64H159v8.333H117.333Z" transform="translate(-92.333 -39)" fill="#007aff"/>
      <path id="Path_41" data-name="Path 41" d="M117.333,106.667h8.333V115h-8.333Z" transform="translate(-92.333 -65)" fill="#007aff"/>
      <path id="Path_42" data-name="Path 42" d="M160,106.667h8.333V115H160Z" transform="translate(-118.333 -65)" fill="#007aff"/>
      <path id="Path_43" data-name="Path 43" d="M210.446,34.554,177.112,1.221A4.165,4.165,0,0,0,174.167,0H65.833a12.5,12.5,0,0,0-12.5,12.5h0v175a12.5,12.5,0,0,0,12.5,12.5H199.166a12.5,12.5,0,0,0,12.5-12.5V37.5A4.164,4.164,0,0,0,210.446,34.554ZM203.333,187.5a4.167,4.167,0,0,1-4.167,4.167H65.833a4.167,4.167,0,0,1-4.167-4.167V12.5a4.167,4.167,0,0,1,4.167-4.167H170V29.166a12.5,12.5,0,0,0,12.5,12.5h8.333V33.333H182.5a4.167,4.167,0,0,1-4.167-4.167V14.225l25,25Z" transform="translate(-53.333)" fill="#007aff"/>
      <path id="Path_44" data-name="Path 44" d="M373.333,362.667h8.333V371h-8.333Z" transform="translate(-248.333 -221)" fill="#007aff"/>
      <path id="Path_45" data-name="Path 45" d="M330.667,362.667H339V371h-8.333Z" transform="translate(-222.333 -221)" fill="#007aff"/>
      <path id="Path_46" data-name="Path 46" d="M117.333,362.667H184V371H117.333Z" transform="translate(-92.333 -221)" fill="#007aff"/>
      <path id="Path_47" data-name="Path 47" d="M117.333,416H225.666v8.333H117.333Z" transform="translate(-92.333 -253.5)" fill="#007aff"/>
      <path id="Path_48" data-name="Path 48" d="M217.334,160H125.667a8.333,8.333,0,0,0-8.333,8.333v50a8.333,8.333,0,0,0,8.333,8.333h91.667a8.333,8.333,0,0,0,8.333-8.333v-50A8.333,8.333,0,0,0,217.334,160Zm0,58.333H125.667v-50h91.667v50Z" transform="translate(-92.334 -97.5)" fill="#007aff"/>
    </g>
  </g>
</svg>
