<svg xmlns="http://www.w3.org/2000/svg" width="98.286" height="90.373" viewBox="0 0 98.286 90.373">
  <g id="Group_4" data-name="Group 4" transform="translate(-623 -413.627)">
    <g id="Group_3" data-name="Group 3" transform="translate(-21 -8.373)">
      <g id="_1904675_configuration_edit_gear_options_preferences_icon_1_" data-name="1904675_configuration_edit_gear_options_preferences_icon (1)" transform="translate(667.708 449.757)">
        <path id="Path_1" data-name="Path 1" d="M48.545,39a9.545,9.545,0,1,0,9.545,9.545A9.545,9.545,0,0,0,48.545,39Zm0,16.8A7.254,7.254,0,1,1,55.8,48.545,7.254,7.254,0,0,1,48.545,55.8Z" transform="translate(-24.11 -24.11)" fill="#005da3" stroke="#005da3" stroke-width="1"/>
        <path id="Path_2" data-name="Path 2" d="M46.2,18.326H42.788a.382.382,0,0,1-.359-.26,19.051,19.051,0,0,0-.764-1.852.382.382,0,0,1,.069-.439l2.409-2.413a2.673,2.673,0,0,0,0-3.78l-4.86-4.857a2.673,2.673,0,0,0-3.78,0L33.094,7.136a.382.382,0,0,1-.439.069A19,19,0,0,0,30.8,6.441a.382.382,0,0,1-.26-.359V2.673A2.673,2.673,0,0,0,27.871,0H21a2.673,2.673,0,0,0-2.673,2.673V6.082a.382.382,0,0,1-.26.359,19.052,19.052,0,0,0-1.852.764.382.382,0,0,1-.439-.069L13.363,4.727a2.673,2.673,0,0,0-3.78,0L4.727,9.587a2.673,2.673,0,0,0,0,3.78l2.409,2.409a.382.382,0,0,1,.069.439,19,19,0,0,0-.764,1.852.382.382,0,0,1-.359.26H2.673A2.673,2.673,0,0,0,0,21v6.872a2.673,2.673,0,0,0,2.673,2.673H6.082a.382.382,0,0,1,.359.26A19.052,19.052,0,0,0,7.2,32.655a.382.382,0,0,1-.069.439L4.727,35.507a2.673,2.673,0,0,0,0,3.78l4.86,4.86a2.673,2.673,0,0,0,3.78,0l2.409-2.409a.382.382,0,0,1,.439-.069,19,19,0,0,0,1.852.764.382.382,0,0,1,.26.359V46.2A2.673,2.673,0,0,0,21,48.87h6.872A2.673,2.673,0,0,0,30.544,46.2V42.788a.382.382,0,0,1,.26-.359,19.05,19.05,0,0,0,1.852-.764.382.382,0,0,1,.439.069l2.413,2.409a2.673,2.673,0,0,0,3.78,0l4.86-4.86a2.673,2.673,0,0,0,0-3.78l-2.409-2.409a.382.382,0,0,1-.069-.439,19,19,0,0,0,.764-1.852.382.382,0,0,1,.359-.26H46.2a2.673,2.673,0,0,0,2.673-2.673V21A2.673,2.673,0,0,0,46.2,18.326Zm.382,9.545a.382.382,0,0,1-.382.382H42.788a2.673,2.673,0,0,0-2.52,1.791A16.763,16.763,0,0,1,39.6,31.67a2.673,2.673,0,0,0,.515,3.054l2.409,2.409a.382.382,0,0,1,0,.538l-4.856,4.853a.382.382,0,0,1-.538,0l-2.409-2.409a2.673,2.673,0,0,0-3.054-.515,16.754,16.754,0,0,1-1.63.672,2.673,2.673,0,0,0-1.787,2.52V46.2a.382.382,0,0,1-.382.382H21a.382.382,0,0,1-.382-.382V42.788a2.673,2.673,0,0,0-1.791-2.52A16.762,16.762,0,0,1,17.2,39.6a2.673,2.673,0,0,0-3.054.515l-2.409,2.409a.382.382,0,0,1-.538,0L6.346,37.665a.382.382,0,0,1,0-.538l2.409-2.409a2.673,2.673,0,0,0,.515-3.054,16.752,16.752,0,0,1-.672-1.63,2.673,2.673,0,0,0-2.516-1.779H2.673a.382.382,0,0,1-.382-.382V21a.382.382,0,0,1,.382-.382H6.082A2.673,2.673,0,0,0,8.6,18.827,16.761,16.761,0,0,1,9.274,17.2a2.673,2.673,0,0,0-.515-3.054L6.349,11.737a.382.382,0,0,1,0-.538l4.857-4.853a.382.382,0,0,1,.538,0l2.409,2.409a2.673,2.673,0,0,0,3.054.515,16.754,16.754,0,0,1,1.63-.672,2.673,2.673,0,0,0,1.779-2.516V2.673A.382.382,0,0,1,21,2.291h6.872a.382.382,0,0,1,.382.382V6.082A2.673,2.673,0,0,0,30.044,8.6a16.761,16.761,0,0,1,1.626.672,2.673,2.673,0,0,0,3.054-.515l2.409-2.409a.382.382,0,0,1,.538,0l4.86,4.86a.382.382,0,0,1,0,.538l-2.409,2.409a2.673,2.673,0,0,0-.515,3.054,16.753,16.753,0,0,1,.672,1.63,2.673,2.673,0,0,0,2.52,1.787h3.4a.382.382,0,0,1,.382.382Z" transform="translate(0)" fill="#005da3" stroke="#005da3" stroke-width="1"/>
      </g>
      <path id="_9040304_house_heart_icon" data-name="9040304_house_heart_icon" d="M54.275,3.126a6.552,6.552,0,0,0-9.265,0L1.458,46.671A3.278,3.278,0,1,0,6.1,51.3l4.233-4.233V81.752a9.828,9.828,0,0,0,9.828,9.828H79.127a9.828,9.828,0,0,0,9.828-9.828V47.071L93.188,51.3a3.278,3.278,0,1,0,4.639-4.632L82.4,31.254V9.678A3.276,3.276,0,0,0,79.127,6.4H72.575A3.276,3.276,0,0,0,69.3,9.678V18.15ZM82.4,40.519,49.643,7.758,16.882,40.519V81.752a3.276,3.276,0,0,0,3.276,3.276H79.127A3.276,3.276,0,0,0,82.4,81.752Z" transform="translate(643.5 420.793)" fill="#005da3" fill-rule="evenodd"/>
    </g>
  </g>
</svg>
