<svg id="Capa_1" enable-background="new 0 0 512 512" height="512" viewBox="0 0 512 512" fill="#0277bd" width="512" xmlns="http://www.w3.org/2000/svg"><g><path d="m161 256c0-5.523-4.478-10-10-10s-10 4.477-10 10v60c0 5.523 4.478 10 10 10h210c5.522 0 10-4.477 10-10v-60c0-5.523-4.478-10-10-10s-10 4.477-10 10v50h-190z"/><path d="m502 432h-35v-236c0-5.523-4.478-10-10-10h-146v-46h35c3.788 0 7.25-2.14 8.944-5.528 1.693-3.388 1.328-7.442-.944-10.472l-90-120c-1.889-2.518-4.853-4-8-4s-6.111 1.482-8 4l-90 120c-2.272 3.03-2.638 7.084-.944 10.472s5.156 5.528 8.944 5.528h35v46h-146c-5.522 0-10 4.477-10 10v236h-35c-5.522 0-10 4.477-10 10 0 38.598 31.402 70 70 70h141c5.522 0 10-4.478 10-10s-4.478-10-10-10h-141c-24.146 0-44.35-17.206-48.995-40.01h469.99c-4.645 22.804-24.849 40.01-48.995 40.01h-141c-5.522 0-10 4.478-10 10s4.478 10 10 10h141c38.598 0 70-31.402 70-70 0-5.523-4.477-10-10-10zm-316-312 70-93.333 70 93.333h-25c-5.522 0-10 4.477-10 10v116h-70v-116c0-5.523-4.478-10-10-10zm261 312h-382v-226h136v50c0 5.523 4.478 10 10 10h90c5.522 0 10-4.477 10-10v-50h136z"/><circle cx="256" cy="502" r="10"/></g></svg>