<svg xmlns="http://www.w3.org/2000/svg" width="20.004" height="20.001" viewBox="0 0 20.004 20.001">
  <g id="Group_10" data-name="Group 10" transform="translate(-967 -466)">
    <path id="Subtraction_3" data-name="Subtraction 3" d="M4,20H0V16l8.26-8.26A6,6,0,1,1,19.148,9.085a6.053,6.053,0,0,1-.354.526A6.5,6.5,0,0,0,7.814,16H6v2L4,20ZM15,2a2.984,2.984,0,0,0-2.12.88l4.24,4.24A3,3,0,0,0,15,2Z" transform="translate(967 466)" fill="#0a59a5"/>
    <g id="icons" transform="translate(975.195 474.192)">
      <path id="user2" d="M5.9,0a5.9,5.9,0,1,0,5.9,5.9A5.922,5.922,0,0,0,5.9,0Zm0,1.968a2.247,2.247,0,0,1,1.968,2.46A2.247,2.247,0,0,1,5.9,6.889a2.247,2.247,0,0,1-1.968-2.46A2.247,2.247,0,0,1,5.9,1.968ZM9.152,9.6A5,5,0,0,1,5.9,10.825,5,5,0,0,1,2.657,9.6a.478.478,0,0,1-.049-.689A4.422,4.422,0,0,1,4.675,7.578a2.71,2.71,0,0,0,2.46,0A4.191,4.191,0,0,1,9.2,8.906.443.443,0,0,1,9.152,9.6Z" fill="#0a59a5"/>
    </g>
  </g>
</svg>
