<svg xmlns="http://www.w3.org/2000/svg" width="8.95" height="8.659" viewBox="0 0 8.95 8.659">
  <g id="Group_30" data-name="Group 30" transform="translate(-2913.984 -1746.75)">
    <g id="Group_29" data-name="Group 29">
      <g id="_605510_book_brochure_information_paper_reading_icon" data-name="605510_book_brochure_information_paper_reading_icon" transform="translate(2894.234 1726)">
        <path id="Path_9" data-name="Path 9" d="M30.081,28.989,27,27.854V21l3.081,1.135a1.408,1.408,0,0,0,.974,0L34.135,21v6.854l-3.081,1.135A1.408,1.408,0,0,1,30.081,28.989Z" transform="translate(-6.343)" fill="none" stroke="#005da3" stroke-linecap="round" stroke-linejoin="round" stroke-miterlimit="10" stroke-width="0.5"/>
        <line id="Line_14" data-name="Line 14" y1="4.604" transform="translate(24.225 22.221)" fill="none" stroke="#005da3" stroke-linecap="round" stroke-linejoin="round" stroke-miterlimit="10" stroke-width="0.5"/>
        <line id="Line_15" data-name="Line 15" y1="0.278" transform="translate(24.225 27.67)" fill="none" stroke="#005da3" stroke-linecap="round" stroke-linejoin="round" stroke-miterlimit="10" stroke-width="0.5"/>
        <path id="Path_10" data-name="Path 10" d="M27.8,30.072,28.45,30v6.854l-4.069.452a1.408,1.408,0,0,1-.311,0L20,36.854V30l.645.072" transform="translate(0 -8.155)" fill="none" stroke="#005da3" stroke-linecap="round" stroke-linejoin="round" stroke-miterlimit="10" stroke-width="0.5"/>
      </g>
    </g>
  </g>
</svg>
