<svg xmlns="http://www.w3.org/2000/svg" width="95.001" height="98.162" viewBox="0 0 95.001 98.162">
  <g id="refresh_reload_update_icon" transform="translate(-16.5 -14.919)">
    <path id="Path_10" data-name="Path 10" d="M18.233,81.666l-.016,0c.006.012.01.022.016.036.008.1.026.195.04.293,0,.017,0,.029,0,.045L22.2,107.557a5.674,5.674,0,0,0,11.216-1.728l-.611-3.965c.712.587,1.43,1.169,2.175,1.714A49.013,49.013,0,0,0,111.5,76.224L96.022,71.962A32.994,32.994,0,0,1,44.488,90.615c-.841-.616-1.645-1.282-2.424-1.976l4.488.435A5.693,5.693,0,0,0,47.645,77.78L23.986,75.489a5.362,5.362,0,0,0-5.564,4.188c-.05.185-.076.374-.109.565-.021.132-.061.255-.074.39,0,.041,0,.077,0,.114-.013.174,0,.351,0,.528C18.235,81.406,18.224,81.539,18.233,81.666Z" fill="#0277bd"/>
    <path id="Path_11" data-name="Path 11" d="M109.767,46.334l.015,0-.016-.037c-.008-.1-.027-.195-.04-.293,0-.015,0-.029,0-.044L105.8,20.445A5.674,5.674,0,0,0,94.58,22.171l.612,3.967c-.715-.587-1.433-1.169-2.177-1.715A49.011,49.011,0,0,0,16.5,51.778l15.479,4.26A33,33,0,0,1,83.513,37.384c.841.618,1.645,1.284,2.423,1.976l-4.487-.434A5.693,5.693,0,0,0,80.355,50.22l23.659,2.291a5.362,5.362,0,0,0,5.564-4.188,5.524,5.524,0,0,0,.107-.565c.022-.132.063-.255.075-.391.006-.038,0-.075,0-.112a5.2,5.2,0,0,0,0-.53C109.764,46.6,109.774,46.462,109.767,46.334Z" fill="#0277bd"/>
  </g>
</svg>
