<svg xmlns="http://www.w3.org/2000/svg" width="200" height="186.364" viewBox="0 0 200 186.364">
  <g id="html" transform="translate(-5 -12)">
    <path id="Path_33" data-name="Path 33" d="M198.182,12H11.818A6.7,6.7,0,0,0,5,18.818V191.545a6.7,6.7,0,0,0,6.818,6.818H198.182A6.7,6.7,0,0,0,205,191.545V18.818A6.7,6.7,0,0,0,198.182,12Zm-6.818,13.636V53.591H18.636V25.636ZM18.636,184.727V67.227H191.364v117.5Z" transform="translate(0 0)" fill="#007aff"/>
    <path id="Path_34" data-name="Path 34" d="M63.736,49.241A6.832,6.832,0,0,0,54.191,48.1L20.1,75.378A6.8,6.8,0,0,0,17.6,80.6a6.465,6.465,0,0,0,2.5,5.227L54.191,113.1a7.75,7.75,0,0,0,4.318,1.591,6.465,6.465,0,0,0,5.227-2.5A6.832,6.832,0,0,0,62.6,102.65L35.1,80.6,62.827,58.787A6.607,6.607,0,0,0,63.736,49.241Z" transform="translate(16.036 44.122)" fill="#9bc9ff"/>
    <path id="Path_35" data-name="Path 35" d="M69.65,48.2a6.8,6.8,0,0,0-8.409,10.682l27.5,22.045-27.5,22.045a6.832,6.832,0,0,0-1.136,9.545,7.158,7.158,0,0,0,5.227,2.5,6.376,6.376,0,0,0,4.318-1.591l34.091-27.273a6.8,6.8,0,0,0,2.5-5.227,6.465,6.465,0,0,0-2.5-5.227Z" transform="translate(68.304 44.25)" fill="#9bc9ff"/>
    <path id="Path_36" data-name="Path 36" d="M72.185,38.212a6.776,6.776,0,0,0-8.182,5L39.912,137.985a6.776,6.776,0,0,0,5,8.182,3.868,3.868,0,0,0,1.591.227,6.771,6.771,0,0,0,6.591-5.227L77.185,46.394A6.776,6.776,0,0,0,72.185,38.212Z" transform="translate(44.179 33.106)" fill="#007aff"/>
  </g>
</svg>
