<svg xmlns="http://www.w3.org/2000/svg" width="37.399" height="36.432" viewBox="0 0 37.399 36.432">
  <g id="Group_13" data-name="Group 13" transform="translate(-906.469 -492.478)">
    <g id="_1904675_configuration_edit_gear_options_preferences_icon_1_" data-name="1904675_configuration_edit_gear_options_preferences_icon (1)" transform="translate(926.384 511.426)">
      <path id="Path_1" data-name="Path 1" d="M42.366,39a3.366,3.366,0,1,0,3.366,3.366A3.366,3.366,0,0,0,42.366,39Zm0,5.924a2.558,2.558,0,1,1,2.558-2.558A2.558,2.558,0,0,1,42.366,44.924Z" transform="translate(-33.749 -33.749)" fill="#0a59a5" stroke="#0a59a5" stroke-width="0.5"/>
      <path id="Path_2" data-name="Path 2" d="M16.291,6.463h-1.2a.135.135,0,0,1-.127-.092,6.718,6.718,0,0,0-.269-.653.135.135,0,0,1,.024-.155l.85-.851a.942.942,0,0,0,0-1.333L13.853,1.667a.942.942,0,0,0-1.333,0l-.85.85a.135.135,0,0,1-.155.024,6.7,6.7,0,0,0-.653-.269.135.135,0,0,1-.092-.127V.942A.942.942,0,0,0,9.829,0H7.405a.942.942,0,0,0-.942.942v1.2a.135.135,0,0,1-.092.127,6.719,6.719,0,0,0-.653.269.135.135,0,0,1-.155-.024l-.851-.85a.942.942,0,0,0-1.333,0L1.667,3.381a.942.942,0,0,0,0,1.333l.85.85a.135.135,0,0,1,.024.155,6.7,6.7,0,0,0-.269.653.135.135,0,0,1-.127.092H.942A.942.942,0,0,0,0,7.405V9.829a.942.942,0,0,0,.942.942h1.2a.135.135,0,0,1,.127.092,6.719,6.719,0,0,0,.269.653.135.135,0,0,1-.024.155l-.85.851a.942.942,0,0,0,0,1.333l1.714,1.714a.942.942,0,0,0,1.333,0l.85-.85a.135.135,0,0,1,.155-.024,6.7,6.7,0,0,0,.653.269.135.135,0,0,1,.092.127v1.2a.942.942,0,0,0,.942.942H9.829a.942.942,0,0,0,.942-.942v-1.2a.135.135,0,0,1,.092-.127,6.718,6.718,0,0,0,.653-.269.135.135,0,0,1,.155.024l.851.85a.942.942,0,0,0,1.333,0l1.714-1.714a.942.942,0,0,0,0-1.333l-.85-.85a.135.135,0,0,1-.024-.155,6.7,6.7,0,0,0,.269-.653.135.135,0,0,1,.127-.092h1.2a.942.942,0,0,0,.942-.942V7.405a.942.942,0,0,0-.942-.942Zm.135,3.366a.135.135,0,0,1-.135.135h-1.2a.942.942,0,0,0-.889.631,5.911,5.911,0,0,1-.237.574.942.942,0,0,0,.182,1.077l.85.85a.135.135,0,0,1,0,.19L13.282,15a.135.135,0,0,1-.19,0l-.85-.85a.942.942,0,0,0-1.077-.182,5.908,5.908,0,0,1-.575.237.942.942,0,0,0-.63.889v1.2a.135.135,0,0,1-.135.135H7.405a.135.135,0,0,1-.135-.135v-1.2a.942.942,0,0,0-.631-.889,5.911,5.911,0,0,1-.574-.237.942.942,0,0,0-1.077.182l-.85.85a.135.135,0,0,1-.19,0L2.238,13.282a.135.135,0,0,1,0-.19l.85-.85a.942.942,0,0,0,.182-1.077,5.908,5.908,0,0,1-.237-.575.942.942,0,0,0-.887-.627H.942a.135.135,0,0,1-.135-.135V7.405a.135.135,0,0,1,.135-.135h1.2a.942.942,0,0,0,.889-.631,5.911,5.911,0,0,1,.237-.574.942.942,0,0,0-.182-1.077l-.85-.85a.135.135,0,0,1,0-.19L3.952,2.238a.135.135,0,0,1,.19,0l.85.85a.942.942,0,0,0,1.077.182,5.908,5.908,0,0,1,.575-.237.942.942,0,0,0,.627-.887V.942A.135.135,0,0,1,7.405.808H9.829a.135.135,0,0,1,.135.135v1.2a.942.942,0,0,0,.631.889,5.911,5.911,0,0,1,.574.237.942.942,0,0,0,1.077-.182l.85-.85a.135.135,0,0,1,.19,0L15,3.953a.135.135,0,0,1,0,.19l-.85.85a.942.942,0,0,0-.182,1.077,5.908,5.908,0,0,1,.237.575.942.942,0,0,0,.889.63h1.2a.135.135,0,0,1,.135.135Z" transform="translate(0)" fill="#0a59a5" stroke="#0a59a5" stroke-width="0.5"/>
    </g>
    <path id="Subtraction_1" data-name="Subtraction 1" d="M20.834,32.426H0a16.111,16.111,0,0,1,2.6-8.8c.126-.194.254-.382.379-.559L3,23.1a16.227,16.227,0,0,1,21.743-4.463,9,9,0,0,0-3.908,13.782ZM16.227,16.2a8.1,8.1,0,1,1,8.1-8.1A8.109,8.109,0,0,1,16.227,16.2Z" transform="translate(906.469 492.478)" fill="#0a59a5"/>
  </g>
</svg>
