<svg xmlns="http://www.w3.org/2000/svg" width="195.364" height="195.364" viewBox="0 0 195.364 195.364">
  <g id="management" transform="translate(0 0)">
    <path id="Path_91" data-name="Path 91" d="M232.561,208.28A16.28,16.28,0,1,1,216.28,192,16.28,16.28,0,0,1,232.561,208.28Zm0,0" transform="translate(-118.599 -113.854)" fill="#9bc9ff"/>
    <path id="Path_92" data-name="Path 92" d="M368.561,240.28A16.28,16.28,0,1,1,352.28,224,16.28,16.28,0,0,1,368.561,240.28Zm0,0" transform="translate(-199.246 -132.83)" fill="#9bc9ff"/>
    <path id="Path_93" data-name="Path 93" d="M96.561,240.28A16.28,16.28,0,1,1,80.28,224,16.28,16.28,0,0,1,96.561,240.28Zm0,0" transform="translate(-37.952 -132.83)" fill="#9bc9ff"/>
    <path id="Path_94" data-name="Path 94" d="M170.048,296H196.1a26.048,26.048,0,0,1,26.048,26.048v32.561a13.025,13.025,0,0,1-13.024,13.024h-52.1A13.025,13.025,0,0,1,144,354.609V322.048A26.049,26.049,0,0,1,170.048,296Zm0,0" transform="translate(-85.391 -175.526)" fill="#9bc9ff"/>
    <path id="Path_95" data-name="Path 95" d="M306.048,328H332.1a26.048,26.048,0,0,1,26.048,26.048v13.024a19.536,19.536,0,0,1-19.536,19.536H280V354.048A26.049,26.049,0,0,1,306.048,328Zm0,0" transform="translate(-166.038 -194.501)" fill="#9bc9ff"/>
    <path id="Path_96" data-name="Path 96" d="M86.145,386.609H27.536A19.537,19.537,0,0,1,8,367.073V354.048A26.049,26.049,0,0,1,34.048,328H60.1a26.048,26.048,0,0,1,26.048,26.048Zm0,0" transform="translate(-4.744 -194.501)" fill="#9bc9ff"/>
    <g id="Group_12" data-name="Group 12" transform="translate(0 0)">
      <path id="Path_97" data-name="Path 97" d="M190.059,107.45v-6.512a3.256,3.256,0,0,0,3.256-3.256V78.146a3.256,3.256,0,0,0-3.256-3.256H172.477l-.631-2.445a60.158,60.158,0,0,0-6.642-15.91l-1.3-2.178L176.385,41.85a3.228,3.228,0,0,0,0-4.558L162.556,23.444a3.3,3.3,0,0,0-4.56,0L145.49,35.95l-2.178-1.3A60.289,60.289,0,0,0,127.383,28l-2.445-.636V9.768a3.256,3.256,0,0,0-3.256-3.256H102.145a3.256,3.256,0,0,0-3.256,3.256V27.351l-2.445.633a60.284,60.284,0,0,0-15.911,6.638l-2.18,1.3L65.85,23.444a3.3,3.3,0,0,0-4.574,0L47.444,37.272a3.232,3.232,0,0,0,0,4.579L59.95,54.356l-1.3,2.178a60.159,60.159,0,0,0-6.642,15.91l-.638,2.445h-17.6a3.256,3.256,0,0,0-3.256,3.256V97.682a3.256,3.256,0,0,0,3.256,3.256v6.512A9.769,9.769,0,0,1,24,97.682V78.146a9.769,9.769,0,0,1,9.768-9.768h12.6a66.518,66.518,0,0,1,5.418-12.969L42.83,46.455a9.736,9.736,0,0,1,0-13.786L56.669,18.831a9.971,9.971,0,0,1,13.789,0l8.951,8.951A66.536,66.536,0,0,1,92.377,22.37V9.768A9.769,9.769,0,0,1,102.145,0h19.536a9.769,9.769,0,0,1,9.768,9.768v12.6a66.506,66.506,0,0,1,12.969,5.415l8.954-8.954a9.973,9.973,0,0,1,13.791,0L181,32.666a9.74,9.74,0,0,1,0,13.786l-8.954,8.954a66.681,66.681,0,0,1,5.417,12.972h12.6a9.769,9.769,0,0,1,9.768,9.768V97.682a9.769,9.769,0,0,1-9.768,9.768Zm0,0" transform="translate(-14.232 0)" fill="#1e81ce"/>
      <path id="Path_98" data-name="Path 98" d="M219.17,149.585h-6.512a39.073,39.073,0,0,0-78.145,0H128a45.585,45.585,0,0,1,91.17,0Zm0,0" transform="translate(-75.903 -61.671)" fill="#1e81ce"/>
      <path id="Path_99" data-name="Path 99" d="M211.536,223.073a19.536,19.536,0,1,1,19.536-19.536A19.537,19.537,0,0,1,211.536,223.073Zm0-32.561a13.024,13.024,0,1,0,13.024,13.024A13.025,13.025,0,0,0,211.536,190.512Zm0,0" transform="translate(-113.854 -109.111)" fill="#1e81ce"/>
      <path id="Path_100" data-name="Path 100" d="M347.536,255.073a19.536,19.536,0,1,1,19.536-19.536A19.537,19.537,0,0,1,347.536,255.073Zm0-32.561a13.024,13.024,0,1,0,13.024,13.024A13.025,13.025,0,0,0,347.536,222.512Zm0,0" transform="translate(-194.501 -128.086)" fill="#1e81ce"/>
      <path id="Path_101" data-name="Path 101" d="M75.536,255.073a19.536,19.536,0,1,1,19.536-19.536A19.537,19.537,0,0,1,75.536,255.073Zm0-32.561a13.024,13.024,0,1,0,13.024,13.024A13.025,13.025,0,0,0,75.536,222.512Zm0,0" transform="translate(-33.207 -128.086)" fill="#1e81ce"/>
      <path id="Path_102" data-name="Path 102" d="M182.554,306.122a28.98,28.98,0,0,0-16.495-5.1H140.01a29.077,29.077,0,0,0-4.725.429,29.191,29.191,0,0,0-7.973-8.274,12.575,12.575,0,0,0-1.5-.976,29.078,29.078,0,0,0-15.105-4.2H84.657a28.979,28.979,0,0,0-24.57,13.453,29.193,29.193,0,0,0-4.735-.429H29.3a28.977,28.977,0,0,0-16.485,5.092A29.3,29.3,0,0,0,0,330.328v13.024a22.812,22.812,0,0,0,13.26,20.689,22.076,22.076,0,0,0,9.533,2.1H55.353v-6.512h-29.3V323.816H19.536v35.491a15.305,15.305,0,0,1-3.545-1.178,16.306,16.306,0,0,1-9.479-14.776V330.328a22.817,22.817,0,0,1,9.983-18.84,22.528,22.528,0,0,1,12.81-3.952H55.353c.574,0,1.127.062,1.687.1a29.293,29.293,0,0,0-1.687,9.668v32.561a16.3,16.3,0,0,0,16.28,16.28H81.4v-52.1H74.889v45.585H71.633a9.769,9.769,0,0,1-9.768-9.768V317.3a22.793,22.793,0,0,1,22.792-22.792h26.048a22.758,22.758,0,0,1,11.868,3.35,8.241,8.241,0,0,1,.951.609,23.064,23.064,0,0,1,7.3,8.14A22.742,22.742,0,0,1,133.5,317.3v32.561a9.769,9.769,0,0,1-9.768,9.768h-3.256V314.048h-6.512v52.1h9.768a16.3,16.3,0,0,0,16.28-16.28V317.3a29.338,29.338,0,0,0-1.684-9.668c.561-.038,1.115-.1,1.684-.1h26.048a22.536,22.536,0,0,1,12.819,3.959,22.816,22.816,0,0,1,9.973,18.834v13.024a16.3,16.3,0,0,1-9.533,14.8,15.018,15.018,0,0,1-3.491,1.153V323.816h-6.512v35.817h-29.3v6.512h32.561a22.01,22.01,0,0,0,9.479-2.078,22.82,22.82,0,0,0,13.314-20.714V330.328a29.3,29.3,0,0,0-12.81-24.206Zm0,0" transform="translate(0 -170.781)" fill="#1e81ce"/>
      <path id="Path_103" data-name="Path 103" d="M208,464h26.048v6.512H208Zm0,0" transform="translate(-123.342 -275.149)" fill="#1e81ce"/>
    </g>
  </g>
</svg>
