<svg xmlns="http://www.w3.org/2000/svg" width="44" height="46" viewBox="0 0 44 46">
  <g id="Group_5" data-name="Group 5" transform="translate(-2343 652)">
    <g id="Group_4" data-name="Group 4">
      <path id="Subtraction_2" data-name="Subtraction 2" d="M30,46H4a4,4,0,0,1-4-4V4A4,4,0,0,1,4,0H23a.976.976,0,0,1,.776.4l9.829,9.829A.987.987,0,0,1,34,11V21.01C33.841,21,33.673,21,33.5,21a11.655,11.655,0,0,0-1.5.1V12H23a1,1,0,0,1-1-1V2H4A2,2,0,0,0,2,4V42a2,2,0,0,0,2,2H30a2,2,0,0,0,1.007-.271A11.567,11.567,0,0,0,33.465,44,4.016,4.016,0,0,1,30,46ZM24,3.381V10h6.619ZM23.4,38H8a1,1,0,0,1,0-2H22.542a11.46,11.46,0,0,0,.855,2Zm-1.125-8H8a1,1,0,1,1,0-2H22.913a11.445,11.445,0,0,0-.641,2ZM26,22H8a1,1,0,1,1,0-2H26a1,1,0,1,1,0,2Z" transform="translate(2343 -652)" fill="#005da3"/>
      <g id="_211661_eye_icon" data-name="211661_eye_icon" transform="translate(2338 -752.357)">
        <path id="Path_19" data-name="Path 19" d="M40.5,128c-3.108,0-5.529,1.852-8.5,4.857,2.558,2.569,4.705,4.857,8.5,4.857s6.58-2.9,8.5-4.8C47.034,130.679,44.249,128,40.5,128Zm0,8.322a3.465,3.465,0,1,1,3.4-3.465,3.465,3.465,0,0,1-3.4,3.465Z" fill="#005da3"/>
        <g id="Group_24" data-name="Group 24" transform="translate(38.515 130.835)">
          <path id="Path_20" data-name="Path 20" d="M205.685,203.508a1.218,1.218,0,0,1,.288-.785,1.813,1.813,0,0,0-.288-.023,2.023,2.023,0,1,0,1.985,2.023c0-.087-.008-.175-.015-.262a1.216,1.216,0,0,1-1.969-.952Z" transform="translate(-203.7 -202.7)" fill="#005da3"/>
        </g>
      </g>
    </g>
  </g>
</svg>
